<svg width="14" height="14" viewBox="0 0 14 14" fill="none" xmlns="http://www.w3.org/2000/svg">
<path fill-rule="evenodd" clip-rule="evenodd" d="M10.5415 7.58321L2.0503 7.58321C1.72813 7.58321 1.46697 7.32204 1.46697 6.99988C1.46697 6.67771 1.72813 6.41654 2.0503 6.41654L10.5415 6.41654L7.82503 3.70005C7.59722 3.47224 7.59722 3.10289 7.82503 2.87509C8.05283 2.64728 8.42218 2.64728 8.64998 2.87509L12.3623 6.5874C12.4245 6.64957 12.4697 6.72227 12.4979 6.79977C12.5152 6.84705 12.5265 6.89718 12.531 6.94927C12.5339 6.98294 12.5339 7.01682 12.531 7.05049C12.5266 7.10134 12.5157 7.15034 12.4991 7.19663C12.471 7.27538 12.4254 7.34929 12.3623 7.41236L8.64998 11.1247C8.42218 11.3525 8.05283 11.3525 7.82503 11.1247C7.59722 10.8969 7.59722 10.5275 7.82503 10.2997L10.5415 7.58321Z" fill="#00D856"/>
<mask id="mask0_220_8857" style="mask-type:luminance" maskUnits="userSpaceOnUse" x="1" y="2" width="12" height="10">
<path fill-rule="evenodd" clip-rule="evenodd" d="M10.5415 7.58321L2.0503 7.58321C1.72813 7.58321 1.46697 7.32204 1.46697 6.99988C1.46697 6.67771 1.72813 6.41654 2.0503 6.41654L10.5415 6.41654L7.82503 3.70005C7.59722 3.47224 7.59722 3.10289 7.82503 2.87509C8.05283 2.64728 8.42218 2.64728 8.64998 2.87509L12.3623 6.5874C12.4245 6.64957 12.4697 6.72227 12.4979 6.79977C12.5152 6.84705 12.5265 6.89718 12.531 6.94927C12.5339 6.98294 12.5339 7.01682 12.531 7.05049C12.5266 7.10134 12.5157 7.15034 12.4991 7.19663C12.471 7.27538 12.4254 7.34929 12.3623 7.41236L8.64998 11.1247C8.42218 11.3525 8.05283 11.3525 7.82503 11.1247C7.59722 10.8969 7.59722 10.5275 7.82503 10.2997L10.5415 7.58321Z" fill="white"/>
</mask>
<g mask="url(#mask0_220_8857)">
<rect y="-0.00012207" width="14" height="14" fill="#00D856"/>
</g>
</svg>
