<svg width="16" height="17" viewBox="0 0 16 17" fill="none" xmlns="http://www.w3.org/2000/svg">
<path opacity="0.45" d="M5.02863 10.9099C4.95031 10.9099 4.87275 10.9253 4.8004 10.9554C4.72806 10.9854 4.66236 11.0294 4.60707 11.0849L3.41399 12.278C3.35538 12.3326 3.30837 12.3985 3.27576 12.4716C3.24316 12.5448 3.22563 12.6238 3.22421 12.7039C3.2228 12.784 3.23753 12.8636 3.26754 12.9378C3.29754 13.0121 3.3422 13.0796 3.39884 13.1362C3.45549 13.1929 3.52297 13.2375 3.59725 13.2675C3.67153 13.2976 3.75109 13.3123 3.83119 13.3109C3.91129 13.3095 3.99028 13.2919 4.06345 13.2593C4.13663 13.2267 4.20249 13.1797 4.2571 13.1211L5.45019 11.928C5.53351 11.8446 5.59024 11.7383 5.61322 11.6227C5.63619 11.507 5.62438 11.3872 5.57927 11.2782C5.53416 11.1693 5.45778 11.0762 5.35978 11.0106C5.26177 10.9451 5.14654 10.91 5.02863 10.9099Z" />
<path opacity="0.4" d="M4.43231 8.52379C4.43231 8.36558 4.36946 8.21384 4.25758 8.10197C4.14571 7.9901 3.99398 7.92725 3.83576 7.92725H2.24498C2.08677 7.92725 1.93503 7.9901 1.82316 8.10197C1.71129 8.21384 1.64844 8.36558 1.64844 8.52379C1.64844 8.682 1.71129 8.83374 1.82316 8.94561C1.93503 9.05748 2.08677 9.12033 2.24498 9.12033H3.83576C3.99398 9.12033 4.14571 9.05748 4.25758 8.94561C4.36946 8.83374 4.43231 8.682 4.43231 8.52379Z" />
<path opacity="0.35" d="M4.2571 3.92644C4.20249 3.86783 4.13663 3.82082 4.06345 3.78821C3.99028 3.75561 3.91129 3.73808 3.83119 3.73667C3.75109 3.73525 3.67153 3.74999 3.59725 3.77999C3.52297 3.80999 3.45549 3.85465 3.39884 3.9113C3.3422 3.96794 3.29754 4.03542 3.26754 4.1097C3.23753 4.18398 3.2228 4.26354 3.22421 4.34364C3.22563 4.42374 3.24316 4.50273 3.27576 4.57591C3.30837 4.64908 3.35538 4.71494 3.41399 4.76955L4.60707 5.96264C4.66169 6.02125 4.72755 6.06826 4.80072 6.10086C4.8739 6.13347 4.95289 6.151 5.03299 6.15241C5.11309 6.15383 5.19265 6.13909 5.26693 6.10909C5.34121 6.07909 5.40868 6.03443 5.46533 5.97778C5.52198 5.92114 5.56664 5.85366 5.59664 5.77938C5.62664 5.7051 5.64138 5.62554 5.63996 5.54544C5.63855 5.46534 5.62102 5.38635 5.58841 5.31317C5.55581 5.24 5.5088 5.17414 5.45019 5.11953L4.2571 3.92644Z" />
<path opacity="0.65" d="M10.9945 6.13763C11.1527 6.13763 11.3047 6.07479 11.416 5.96264L12.6091 4.76955C12.6677 4.71494 12.7147 4.64908 12.7473 4.57591C12.7799 4.50273 12.7975 4.42374 12.7989 4.34364C12.8003 4.26354 12.7856 4.18398 12.7555 4.1097C12.7255 4.03542 12.6809 3.96794 12.6242 3.9113C12.5676 3.85465 12.5001 3.80999 12.4258 3.77999C12.3516 3.74999 12.272 3.73525 12.1919 3.73667C12.1118 3.73808 12.0328 3.75561 11.9596 3.78821C11.8865 3.82082 11.8206 3.86783 11.766 3.92644L10.5729 5.11953C10.4896 5.20295 10.4328 5.3092 10.4099 5.42485C10.3869 5.5405 10.3987 5.66036 10.4438 5.7693C10.4889 5.87824 10.5653 5.97137 10.6633 6.03692C10.7613 6.10248 10.8765 6.13752 10.9945 6.13763Z" />
<path opacity="0.55" d="M11.4158 11.085C11.3612 11.0264 11.2953 10.9794 11.2221 10.9468C11.149 10.9142 11.07 10.8966 10.9899 10.8952C10.9098 10.8938 10.8302 10.9086 10.7559 10.9386C10.6817 10.9686 10.6142 11.0132 10.5575 11.0699C10.5009 11.1265 10.4562 11.194 10.4262 11.2683C10.3962 11.3425 10.3815 11.4221 10.3829 11.5022C10.3843 11.5823 10.4019 11.6613 10.4345 11.7345C10.4671 11.8077 10.5141 11.8735 10.5727 11.9281L11.7658 13.1212C11.8204 13.1798 11.8862 13.2268 11.9594 13.2594C12.0326 13.292 12.1116 13.3096 12.1917 13.311C12.2718 13.3124 12.3513 13.2977 12.4256 13.2677C12.4999 13.2377 12.5674 13.193 12.624 13.1364C12.6807 13.0797 12.7253 13.0122 12.7553 12.9379C12.7853 12.8637 12.8001 12.7841 12.7987 12.704C12.7972 12.6239 12.7797 12.5449 12.7471 12.4717C12.7145 12.3986 12.6675 12.3327 12.6089 12.2781L11.4158 11.085Z" />
<path opacity="0.5" d="M8.01158 12.1031C7.85337 12.1031 7.70164 12.166 7.58976 12.2779C7.47789 12.3897 7.41504 12.5415 7.41504 12.6997V14.2905C7.41504 14.4487 7.47789 14.6004 7.58976 14.7123C7.70164 14.8242 7.85337 14.887 8.01158 14.887C8.1698 14.887 8.32153 14.8242 8.4334 14.7123C8.54528 14.6004 8.60813 14.4487 8.60813 14.2905V12.6997C8.60813 12.5415 8.54528 12.3897 8.4334 12.2779C8.32153 12.166 8.1698 12.1031 8.01158 12.1031Z" />
<path opacity="0.7" d="M8.03697 2.31848C7.87876 2.31848 7.72703 2.38133 7.61515 2.4932C7.50328 2.60508 7.44043 2.75681 7.44043 2.91502V4.50581C7.44043 4.66402 7.50328 4.81575 7.61515 4.92763C7.72703 5.0395 7.87876 5.10235 8.03697 5.10235C8.19519 5.10235 8.34692 5.0395 8.45879 4.92763C8.57067 4.81575 8.63352 4.66402 8.63352 4.50581V2.91502C8.63352 2.75681 8.57067 2.60508 8.45879 2.4932C8.34692 2.38133 8.19519 2.31848 8.03697 2.31848Z" />
<path opacity="0.6" d="M12.2128 8.08508H13.8035C13.9617 8.08508 14.1135 8.14793 14.2254 8.25981C14.3372 8.37168 14.4001 8.52341 14.4001 8.68163C14.4001 8.83984 14.3372 8.99157 14.2254 9.10345C14.1135 9.21532 13.9617 9.27817 13.8035 9.27817H12.2128C12.0545 9.27817 11.9028 9.21532 11.7909 9.10345C11.6791 8.99157 11.6162 8.83984 11.6162 8.68163C11.6162 8.52341 11.6791 8.37168 11.7909 8.25981C11.9028 8.14793 12.0545 8.08508 12.2128 8.08508Z" />
</svg>
