<svg width="12" height="13" viewBox="0 0 12 13" fill="none" xmlns="http://www.w3.org/2000/svg">
<path fill-rule="evenodd" clip-rule="evenodd" d="M7.64645 3.85355C7.84171 4.04882 8.15829 4.04882 8.35355 3.85355C8.54882 3.65829 8.54882 3.34171 8.35355 3.14645L6.35355 1.14645C6.30562 1.09851 6.25036 1.06234 6.19139 1.03794C6.13244 1.01349 6.0678 1 6 1C5.93209 1 5.86734 1.01354 5.80831 1.03806C5.75032 1.0621 5.69594 1.09752 5.64857 1.14433M5.64598 1.14691L3.64645 3.14645C3.45118 3.34171 3.45118 3.65829 3.64645 3.85355C3.84171 4.04882 4.15829 4.04882 4.35355 3.85355L5.5 2.70711V8C5.5 8.27614 5.72386 8.5 6 8.5C6.27614 8.5 6.5 8.27614 6.5 8V2.70711L7.64645 3.85355M1.5 6.5V10.5C1.5 11.3284 2.17157 12 3 12H9C9.82843 12 10.5 11.3284 10.5 10.5V6.5C10.5 6.22386 10.2761 6 10 6C9.72386 6 9.5 6.22386 9.5 6.5V10.5C9.5 10.7761 9.27614 11 9 11H3C2.72386 11 2.5 10.7761 2.5 10.5V6.5C2.5 6.22386 2.27614 6 2 6C1.72386 6 1.5 6.22386 1.5 6.5Z" fill="black"/>
<mask id="mask0_232_4036" style="mask-type:luminance" maskUnits="userSpaceOnUse" x="1" y="1" width="10" height="11">
<path fill-rule="evenodd" clip-rule="evenodd" d="M7.64645 3.85355C7.84171 4.04882 8.15829 4.04882 8.35355 3.85355C8.54882 3.65829 8.54882 3.34171 8.35355 3.14645L6.35355 1.14645C6.30562 1.09851 6.25036 1.06234 6.19139 1.03794C6.13244 1.01349 6.0678 1 6 1C5.93209 1 5.86734 1.01354 5.80831 1.03806C5.75032 1.0621 5.69594 1.09752 5.64857 1.14433M5.64598 1.14691L3.64645 3.14645C3.45118 3.34171 3.45118 3.65829 3.64645 3.85355C3.84171 4.04882 4.15829 4.04882 4.35355 3.85355L5.5 2.70711V8C5.5 8.27614 5.72386 8.5 6 8.5C6.27614 8.5 6.5 8.27614 6.5 8V2.70711L7.64645 3.85355M1.5 6.5V10.5C1.5 11.3284 2.17157 12 3 12H9C9.82843 12 10.5 11.3284 10.5 10.5V6.5C10.5 6.22386 10.2761 6 10 6C9.72386 6 9.5 6.22386 9.5 6.5V10.5C9.5 10.7761 9.27614 11 9 11H3C2.72386 11 2.5 10.7761 2.5 10.5V6.5C2.5 6.22386 2.27614 6 2 6C1.72386 6 1.5 6.22386 1.5 6.5Z" fill="white"/>
</mask>
<g mask="url(#mask0_232_4036)">
<rect y="0.5" width="12" height="12" fill="black"/>
</g>
</svg>
