<svg width="14" height="15" viewBox="0 0 14 15" fill="none" xmlns="http://www.w3.org/2000/svg">
<path d="M6.99976 3.19165C5.71118 3.19165 4.55249 3.75732 3.76294 4.65625L4.7063 5.59961C4.82935 5.72266 4.74219 5.93457 4.56787 5.93457H1.71216C1.60449 5.93457 1.51562 5.84741 1.51562 5.73804V2.88062C1.51562 2.7063 1.72583 2.61914 1.85059 2.74219L2.93237 3.82397C3.93555 2.71484 5.38647 2.01758 7.00146 2.01758C9.80762 2.01758 12.1216 4.12476 12.4463 6.84375C12.4856 7.16675 12.2549 7.45898 11.9319 7.49658C11.6089 7.53589 11.3167 7.30518 11.2791 6.98218C11.0227 4.84595 9.20435 3.19165 6.99976 3.19165ZM2.06763 7.50342C2.39062 7.46411 2.68286 7.69482 2.72046 8.01782C2.97681 10.1523 4.79517 11.8083 6.99976 11.8083C8.28833 11.8083 9.44702 11.2427 10.2366 10.3438L9.29321 9.40039C9.17017 9.27734 9.25732 9.06543 9.43164 9.06543H12.2891C12.3967 9.06543 12.4856 9.15259 12.4856 9.26196V12.1194C12.4856 12.2937 12.2754 12.3809 12.1506 12.2578L11.0688 11.176C10.0657 12.2869 8.61475 12.9841 6.99976 12.9841C4.1936 12.9841 1.87964 10.877 1.55493 8.15796C1.51562 7.83496 1.74634 7.54273 2.06763 7.50342Z" />
</svg>
