<svg width="14" height="14" viewBox="0 0 14 14" fill="none" xmlns="http://www.w3.org/2000/svg">
<path fill-rule="evenodd" clip-rule="evenodd" d="M2.3335 8.16671H2.91683C3.239 8.16671 3.50016 8.42787 3.50016 8.75004C3.50016 9.07221 3.239 9.33337 2.91683 9.33337H2.3335C1.367 9.33337 0.583496 8.54987 0.583496 7.58337V2.33337C0.583496 1.36688 1.367 0.583374 2.3335 0.583374H7.5835C8.54999 0.583374 9.3335 1.36688 9.3335 2.33337V2.91671C9.3335 3.23887 9.07233 3.50004 8.75016 3.50004C8.428 3.50004 8.16683 3.23887 8.16683 2.91671V2.33337C8.16683 2.01121 7.90566 1.75004 7.5835 1.75004H2.3335C2.01133 1.75004 1.75016 2.01121 1.75016 2.33337V7.58337C1.75016 7.90554 2.01133 8.16671 2.3335 8.16671ZM6.41667 4.66667H11.6667C12.6332 4.66667 13.4167 5.45017 13.4167 6.41667V11.6667C13.4167 12.6332 12.6332 13.4167 11.6667 13.4167H6.41667C5.45017 13.4167 4.66667 12.6332 4.66667 11.6667V6.41667C4.66667 5.45017 5.45017 4.66667 6.41667 4.66667ZM6.41683 5.83337C6.09466 5.83337 5.8335 6.09454 5.8335 6.41671V11.6667C5.8335 11.9889 6.09466 12.25 6.41683 12.25H11.6668C11.989 12.25 12.2502 11.9889 12.2502 11.6667V6.41671C12.2502 6.09454 11.989 5.83337 11.6668 5.83337H6.41683Z" fill="black"/>
<mask id="mask0_9405_152801" style="mask-type:luminance" maskUnits="userSpaceOnUse" x="0" y="0" width="14" height="14">
<path fill-rule="evenodd" clip-rule="evenodd" d="M2.3335 8.16671H2.91683C3.239 8.16671 3.50016 8.42787 3.50016 8.75004C3.50016 9.07221 3.239 9.33337 2.91683 9.33337H2.3335C1.367 9.33337 0.583496 8.54987 0.583496 7.58337V2.33337C0.583496 1.36688 1.367 0.583374 2.3335 0.583374H7.5835C8.54999 0.583374 9.3335 1.36688 9.3335 2.33337V2.91671C9.3335 3.23887 9.07233 3.50004 8.75016 3.50004C8.428 3.50004 8.16683 3.23887 8.16683 2.91671V2.33337C8.16683 2.01121 7.90566 1.75004 7.5835 1.75004H2.3335C2.01133 1.75004 1.75016 2.01121 1.75016 2.33337V7.58337C1.75016 7.90554 2.01133 8.16671 2.3335 8.16671ZM6.41667 4.66667H11.6667C12.6332 4.66667 13.4167 5.45017 13.4167 6.41667V11.6667C13.4167 12.6332 12.6332 13.4167 11.6667 13.4167H6.41667C5.45017 13.4167 4.66667 12.6332 4.66667 11.6667V6.41667C4.66667 5.45017 5.45017 4.66667 6.41667 4.66667ZM6.41683 5.83337C6.09466 5.83337 5.8335 6.09454 5.8335 6.41671V11.6667C5.8335 11.9889 6.09466 12.25 6.41683 12.25H11.6668C11.989 12.25 12.2502 11.9889 12.2502 11.6667V6.41671C12.2502 6.09454 11.989 5.83337 11.6668 5.83337H6.41683Z" fill="white"/>
</mask>
<g mask="url(#mask0_9405_152801)">
<rect width="14" height="14" fill="black"/>
</g>
</svg>
