<svg width="14" height="14" viewBox="0 0 14 14" fill="none" xmlns="http://www.w3.org/2000/svg">
<path d="M5.537 2.14648L5.19531 2.18761C5.19531 2.18761 3.66231 2.35517 2.54275 3.25423H2.52963L2.51562 3.26736C2.2645 3.49836 2.15513 3.7823 1.98231 4.19748C1.7786 4.69701 1.60519 5.20835 1.463 5.72873C1.13838 6.90255 0.875 8.32442 0.875 9.62511V9.73448L0.929688 9.84386C1.33481 10.5548 2.05406 11.0076 2.72081 11.3204C3.38713 11.6332 3.96331 11.799 4.36144 11.8126L4.62131 11.8262L4.75781 11.5939L5.23644 10.746C5.74394 10.8606 6.32844 10.9376 7 10.9376C7.67156 10.9376 8.25606 10.8606 8.76356 10.746L9.24219 11.5939L9.37912 11.8262L9.63856 11.8126C10.0367 11.799 10.6129 11.6332 11.2792 11.3204C11.9459 11.0076 12.6652 10.5548 13.0703 9.84386L13.125 9.73448V9.62511C13.125 8.32442 12.8616 6.90255 12.537 5.72873C12.3948 5.20835 12.2214 4.69701 12.0177 4.19748C11.8449 3.78186 11.7355 3.49836 11.4844 3.2678L11.4708 3.2538H11.4568C10.3381 2.35517 8.80469 2.18761 8.80469 2.18761L8.463 2.14648L8.33963 2.46105C8.33963 2.46105 8.21319 2.78042 8.13487 3.14486C7.75876 3.09297 7.37967 3.06549 7 3.06261C6.76594 3.06261 6.36125 3.07792 5.86513 3.14486C5.78638 2.78042 5.65994 2.46105 5.65994 2.46105L5.537 2.14648ZM4.93544 3.14486C4.95425 3.20611 4.97306 3.25905 4.99013 3.30892C4.42444 3.44892 3.82113 3.66242 3.26769 4.00586L3.73231 4.74436C4.86719 4.03998 6.49731 3.93761 7 3.93761C7.50225 3.93761 9.13281 4.03998 10.2677 4.74436L10.7323 4.00586C10.1789 3.66242 9.57556 3.44892 9.00988 3.30848C9.02694 3.25905 9.04575 3.20611 9.06456 3.14442C9.47275 3.22667 10.2524 3.4148 10.8964 3.92405C10.8929 3.9258 11.0604 4.17867 11.2109 4.53917C11.3649 4.91017 11.5356 5.40411 11.6896 5.96105C11.9853 7.02898 12.2176 8.32967 12.2364 9.47461C11.9608 9.89505 11.4502 10.2744 10.9099 10.5277C10.5711 10.6878 10.2126 10.8025 9.84375 10.8689L9.625 10.5001C9.75494 10.452 9.88313 10.3995 9.99425 10.3496C10.6676 10.0539 11.0333 9.73448 11.0333 9.73448L10.4589 9.07823C10.4589 9.07823 10.213 9.30398 9.63856 9.55686C9.065 9.80973 8.18781 10.0626 7 10.0626C5.81219 10.0626 4.93544 9.80973 4.36144 9.55686C3.787 9.30398 3.54112 9.07823 3.54112 9.07823L2.96669 9.73448C2.96669 9.73448 3.33244 10.0539 4.00575 10.3496C4.11688 10.3995 4.24506 10.4524 4.375 10.5001L4.15625 10.8694C3.78721 10.8027 3.42857 10.6877 3.08962 10.5272C2.54975 10.2744 2.03875 9.89505 1.764 9.47461C1.78238 8.32967 2.01469 7.02898 2.31088 5.96105C2.44175 5.47797 2.60143 5.00316 2.78906 4.53917C2.93956 4.17867 3.10713 3.9258 3.10362 3.92405C3.74762 3.4148 4.52725 3.22667 4.93544 3.14486ZM5.46875 6.12511C5.13056 6.12511 4.83131 6.31805 4.64844 6.56261C4.46556 6.80717 4.375 7.10773 4.375 7.43761C4.375 7.76748 4.46556 8.06805 4.64844 8.31261C4.83131 8.55717 5.13056 8.75011 5.46875 8.75011C5.80694 8.75011 6.10619 8.55717 6.28906 8.31261C6.47194 8.06805 6.5625 7.76748 6.5625 7.43761C6.5625 7.10773 6.47194 6.80717 6.28906 6.56261C6.10619 6.31805 5.80694 6.12511 5.46875 6.12511ZM8.53125 6.12511C8.19306 6.12511 7.89381 6.31805 7.71094 6.56261C7.52806 6.80717 7.4375 7.10773 7.4375 7.43761C7.4375 7.76748 7.52806 8.06805 7.71094 8.31261C7.89381 8.55717 8.19306 8.75011 8.53125 8.75011C8.86944 8.75011 9.16869 8.55717 9.35156 8.31261C9.53444 8.06805 9.625 7.76748 9.625 7.43761C9.625 7.10773 9.53444 6.80717 9.35156 6.56261C9.16869 6.31805 8.86944 6.12511 8.53125 6.12511ZM5.46875 7.00011C5.49281 7.00011 5.52344 7.00886 5.57812 7.08236C5.63281 7.15542 5.6875 7.28361 5.6875 7.43761C5.6875 7.59161 5.63281 7.7198 5.57812 7.7933C5.52344 7.86636 5.49281 7.87511 5.46875 7.87511C5.44469 7.87511 5.41406 7.86636 5.35938 7.79286C5.28702 7.68862 5.24881 7.56449 5.25 7.43761C5.25 7.28361 5.30469 7.15542 5.35938 7.08192C5.41406 7.00886 5.44469 7.00011 5.46875 7.00011ZM8.53125 7.00011C8.55531 7.00011 8.58594 7.00886 8.64062 7.08236C8.69531 7.15542 8.75 7.28361 8.75 7.43761C8.75 7.59161 8.69531 7.7198 8.64062 7.7933C8.58594 7.86636 8.55531 7.87511 8.53125 7.87511C8.50719 7.87511 8.47656 7.86636 8.42188 7.79286C8.34952 7.68862 8.31131 7.56449 8.3125 7.43761C8.3125 7.28361 8.36719 7.15542 8.42188 7.08192C8.47656 7.00886 8.50719 7.00011 8.53125 7.00011Z" />
</svg>
