<svg width="35" height="35" viewBox="0 0 35 35" fill="none" xmlns="http://www.w3.org/2000/svg">
<rect width="34.9999" height="34.9999" rx="17.4999" fill="black"/>
<g clip-path="url(#clip0_220_4624)">
<path d="M11.25 23.1249C10.9048 23.1249 10.625 22.845 10.625 22.4999C10.625 22.1547 10.9048 21.8749 11.25 21.8749L23.7499 21.8749C24.0951 21.8749 24.3749 22.1547 24.3749 22.4999C24.3749 22.845 24.0951 23.1249 23.7499 23.1249L11.25 23.1249Z" fill="#12FE74"/>
<path d="M16.875 20C16.875 20.3452 17.1548 20.625 17.5 20.625C17.8452 20.625 18.125 20.3452 18.125 20V14.0089L18.9331 14.817C19.1771 15.0611 19.5729 15.0611 19.8169 14.817C20.061 14.5729 20.061 14.1772 19.8169 13.9331L17.942 12.0581C17.6979 11.8141 17.3022 11.8141 17.0581 12.0581L15.1831 13.9331C14.939 14.1772 14.939 14.5729 15.1831 14.817C15.4272 15.0611 15.8229 15.0611 16.067 14.817L16.875 14.0089V20Z" fill="#12FE74"/>
</g>
<defs>
<clipPath id="clip0_220_4624">
<rect width="14.9999" height="14.9999" fill="white" transform="translate(10 10)"/>
</clipPath>
</defs>
</svg>