<svg width="16" height="16" viewBox="0 0 16 16" fill="none" xmlns="http://www.w3.org/2000/svg">
<path d="M1.33317 14C0.964981 14 0.666504 13.7015 0.666504 13.3333C0.666504 12.9651 0.964981 12.6666 1.33317 12.6666L14.6665 12.6666C15.0347 12.6666 15.3332 12.9651 15.3332 13.3333C15.3332 13.7015 15.0347 14 14.6665 14L1.33317 14Z" fill="black"/>
<path d="M7.33317 10.6667C7.33317 11.0349 7.63165 11.3334 7.99984 11.3334C8.36803 11.3334 8.6665 11.0349 8.6665 10.6667V4.27618L9.52843 5.13811C9.78878 5.39846 10.2109 5.39846 10.4712 5.13811C10.7316 4.87776 10.7316 4.45565 10.4712 4.1953L8.47124 2.1953C8.21089 1.93495 7.78878 1.93495 7.52843 2.1953L5.52843 4.1953C5.26808 4.45565 5.26808 4.87776 5.52843 5.13811C5.78878 5.39846 6.21089 5.39846 6.47124 5.13811L7.33317 4.27618L7.33317 10.6667Z" fill="black"/>
</svg>
