<svg width="15" height="16" viewBox="0 0 15 16" fill="none" xmlns="http://www.w3.org/2000/svg">
<path fill-rule="evenodd" clip-rule="evenodd" d="M7.5 15.5C11.6421 15.5 15 12.1421 15 8C15 3.85786 11.6421 0.5 7.5 0.5C3.35786 0.5 0 3.85786 0 8C0 12.1421 3.35786 15.5 7.5 15.5ZM11.7803 6.28033C12.0732 5.98744 12.0732 5.51256 11.7803 5.21967C11.4874 4.92678 11.0126 4.92678 10.7197 5.21967L6.75 9.18934L5.03033 7.46967C4.73744 7.17678 4.26256 7.17678 3.96967 7.46967C3.67678 7.76256 3.67678 8.23744 3.96967 8.53033L6.21967 10.7803C6.51256 11.0732 6.98744 11.0732 7.28033 10.7803L11.7803 6.28033Z" fill="#00D856"/>
</svg>
