<svg width="37" height="36" viewBox="0 0 37 36" fill="none" xmlns="http://www.w3.org/2000/svg">
    <rect x="0.5" width="36" height="36" rx="18" fill="black" />
    <path
        d="M13.1665 18.3334C13.1665 13.3334 14.4998 12.6667 17.1665 12.6667C20.4998 12.6667 19.1665 14.6667 21.8332 14.6667C23.8332 14.6667 25.1665 14.6667 25.1665 18.6667C25.1665 23.0001 24.4998 24.0001 19.1665 24.0001C18.5879 24.0001 18.0605 23.9898 17.5806 23.9623"
        stroke="#12FE74" stroke-width="1.13333" stroke-linecap="round" stroke-linejoin="round" />
    <path
        d="M13.8335 21.3333H15.1668M15.1668 21.3333H16.5002M15.1668 21.3333V22.6667M15.1668 21.3333V20M18.5002 21.3333C18.5002 23.1743 17.0078 24.6667 15.1668 24.6667C13.3259 24.6667 11.8335 23.1743 11.8335 21.3333C11.8335 19.4924 13.3259 18 15.1668 18C17.0078 18 18.5002 19.4924 18.5002 21.3333Z"
        stroke="#12FE74" stroke-width="1.13333" stroke-linecap="round" stroke-linejoin="round" />
</svg>
