<svg width="14" height="14" viewBox="0 0 14 14" fill="none" xmlns="http://www.w3.org/2000/svg">
<path fill-rule="evenodd" clip-rule="evenodd" d="M7 3.50016C5.00693 3.50016 3.36792 3.57061 2.22359 3.64147C1.71971 3.67267 1.32256 4.0613 1.28257 4.57436C1.22012 5.37539 1.16667 6.2773 1.16667 7.00016C1.16667 7.72303 1.22012 8.62492 1.28257 9.42595C1.32256 9.93905 1.71971 10.3277 2.22359 10.3589C3.36792 10.4297 5.00693 10.5002 7 10.5002C8.99307 10.5002 10.6321 10.4297 11.7764 10.3589C12.2803 10.3277 12.6774 9.93905 12.7174 9.42595C12.7799 8.62492 12.8333 7.72303 12.8333 7.00016C12.8333 6.2773 12.7799 5.37539 12.7174 4.57436C12.6774 4.0613 12.2803 3.67267 11.7764 3.64147C10.6321 3.57061 8.99307 3.50016 7 3.50016ZM2.15148 2.47703C1.06225 2.54448 0.204244 3.39567 0.11943 4.48369C0.0563006 5.29353 0 6.23127 0 7.00016C0 7.76905 0.0563006 8.70682 0.11943 9.51666C0.204244 10.6046 1.06225 11.4558 2.15148 11.5233C3.31649 11.5954 4.97976 11.6668 7 11.6668C9.02026 11.6668 10.6835 11.5954 11.8485 11.5233C12.9377 11.4558 13.7958 10.6046 13.8806 9.51666C13.9437 8.70682 14 7.76905 14 7.00016C14 6.23127 13.9437 5.29353 13.8806 4.48369C13.7958 3.39567 12.9377 2.54448 11.8485 2.47703C10.6835 2.40489 9.02026 2.3335 7 2.3335C4.97976 2.3335 3.31649 2.40489 2.15148 2.47703Z" fill="black"/>
<path d="M6.7404 5.27131L8.6055 6.51471C8.95182 6.74559 8.95182 7.25449 8.6055 7.48543L6.7404 8.72875C6.35278 8.98722 5.8335 8.70932 5.8335 8.24341V5.75668C5.8335 5.29077 6.35278 5.01288 6.7404 5.27131Z" fill="black"/>
</svg>
