<svg width="35" height="35" viewBox="0 0 35 35" fill="none" xmlns="http://www.w3.org/2000/svg">
<rect width="34.9999" height="34.9999" rx="17.4999" fill="gray"/>
<path d="M17.402 21.8358V20.6053H13.7107L11.2498 22.246L12.8904 24.7069L14.531 23.8866H20.2731L24.3746 20.6053" stroke="white" stroke-width="1.14843" stroke-linecap="round"/>
<path d="M16.2111 14.8097L16.258 14.7595M16.2111 14.8097L16.258 14.7595M16.2111 14.8097L16.258 14.7595M16.2111 14.8097L16.258 14.7595M16.2087 14.8123L16.2072 14.8138L16.2087 14.8123ZM16.2087 14.8123L16.2087 14.8123L16.2087 14.8123ZM18.8361 14.8599C18.8361 14.86 18.8361 14.86 18.836 14.86L18.8361 14.8599ZM16.2111 14.8097L16.2111 14.8097L16.2111 14.8097Z" fill="white" stroke="white" stroke-width="0.937492"/>
<circle cx="17.4997" cy="14.6875" r="4.12496" stroke="white" stroke-width="1.12499"/>
</svg>
