<svg width="18" height="18" viewBox="0 0 18 18" fill="none" xmlns="http://www.w3.org/2000/svg">
<path fill-rule="evenodd" clip-rule="evenodd" d="M9 16.5C13.1421 16.5 16.5 13.1421 16.5 8.99999C16.5 4.85786 13.1421 1.49999 9 1.49999C4.85786 1.49999 1.5 4.85786 1.5 8.99999C1.5 13.1421 4.85786 16.5 9 16.5ZM7.28033 6.21966C6.98744 5.92677 6.51256 5.92677 6.21967 6.21966C5.92678 6.51256 5.92678 6.98743 6.21967 7.28032L7.93934 8.99999L6.21967 10.7197C5.92678 11.0126 5.92678 11.4874 6.21967 11.7803C6.51256 12.0732 6.98744 12.0732 7.28033 11.7803L9 10.0607L10.7197 11.7803C11.0126 12.0732 11.4874 12.0732 11.7803 11.7803C12.0732 11.4874 12.0732 11.0126 11.7803 10.7197L10.0607 8.99999L11.7803 7.28032C12.0732 6.98743 12.0732 6.51256 11.7803 6.21966C11.4874 5.92677 11.0126 5.92677 10.7197 6.21966L9 7.93933L7.28033 6.21966Z" fill="#777E91"/>
</svg>
