<svg width="14" height="14" viewBox="0 0 14 14" fill="none" xmlns="http://www.w3.org/2000/svg">
<path fill-rule="evenodd" clip-rule="evenodd" d="M1.75 2.91659C1.75 1.62792 2.79467 0.583252 4.08333 0.583252H8.95017C9.56901 0.583252 10.1625 0.829085 10.6001 1.26667L11.5666 2.23317C12.0042 2.67075 12.25 3.26425 12.25 3.88308V11.0833C12.25 12.3719 11.2053 13.4166 9.91667 13.4166H4.08333C2.79467 13.4166 1.75 12.3719 1.75 11.0833V2.91659ZM11.0833 4.66659V11.0833C11.0833 11.7276 10.561 12.2499 9.91667 12.2499H4.08333C3.439 12.2499 2.91667 11.7276 2.91667 11.0833V2.91659C2.91667 2.27225 3.439 1.74992 4.08333 1.74992H8.16667V2.91659C8.16667 3.88308 8.95017 4.66659 9.91667 4.66659H11.0833ZM11.0186 3.49992C10.9613 3.33518 10.8673 3.1838 10.7416 3.05813L9.77513 2.09163C9.64946 1.96596 9.49807 1.87192 9.33333 1.81463V2.91659C9.33333 3.23875 9.5945 3.49992 9.91667 3.49992H11.0186Z" fill="black"/>
<path d="M5.25008 7C4.92792 7 4.66675 7.26117 4.66675 7.58333C4.66675 7.9055 4.92792 8.16667 5.25008 8.16667H8.75008C9.07225 8.16667 9.33342 7.9055 9.33342 7.58333C9.33342 7.26117 9.07225 7 8.75008 7H5.25008Z" fill="black"/>
<path d="M5.25008 9.33333C4.92792 9.33333 4.66675 9.5945 4.66675 9.91667C4.66675 10.2388 4.92792 10.5 5.25008 10.5H7.00008C7.32225 10.5 7.58342 10.2388 7.58342 9.91667C7.58342 9.5945 7.32225 9.33333 7.00008 9.33333H5.25008Z" fill="black"/>
</svg>
