<svg width="12" height="13" viewBox="0 0 12 13" fill="none" xmlns="http://www.w3.org/2000/svg">
<path fill-rule="evenodd" clip-rule="evenodd" d="M2 7.5H2.5C2.77614 7.5 3 7.72386 3 8C3 8.27614 2.77614 8.5 2.5 8.5H2C1.17157 8.5 0.5 7.82843 0.5 7V2.5C0.5 1.67157 1.17157 1 2 1H6.5C7.32843 1 8 1.67157 8 2.5V3C8 3.27614 7.77614 3.5 7.5 3.5C7.22386 3.5 7 3.27614 7 3V2.5C7 2.22386 6.77614 2 6.5 2H2C1.72386 2 1.5 2.22386 1.5 2.5V7C1.5 7.27614 1.72386 7.5 2 7.5ZM5.5 4.5H10C10.8284 4.5 11.5 5.17157 11.5 6V10.5C11.5 11.3284 10.8284 12 10 12H5.5C4.67157 12 4 11.3284 4 10.5V6C4 5.17157 4.67157 4.5 5.5 4.5ZM5.5 5.5C5.22386 5.5 5 5.72386 5 6V10.5C5 10.7761 5.22386 11 5.5 11H10C10.2761 11 10.5 10.7761 10.5 10.5V6C10.5 5.72386 10.2761 5.5 10 5.5H5.5Z" fill="black"/>
<mask id="mask0_232_4021" style="mask-type:luminance" maskUnits="userSpaceOnUse" x="0" y="1" width="12" height="11">
<path fill-rule="evenodd" clip-rule="evenodd" d="M2 7.5H2.5C2.77614 7.5 3 7.72386 3 8C3 8.27614 2.77614 8.5 2.5 8.5H2C1.17157 8.5 0.5 7.82843 0.5 7V2.5C0.5 1.67157 1.17157 1 2 1H6.5C7.32843 1 8 1.67157 8 2.5V3C8 3.27614 7.77614 3.5 7.5 3.5C7.22386 3.5 7 3.27614 7 3V2.5C7 2.22386 6.77614 2 6.5 2H2C1.72386 2 1.5 2.22386 1.5 2.5V7C1.5 7.27614 1.72386 7.5 2 7.5ZM5.5 4.5H10C10.8284 4.5 11.5 5.17157 11.5 6V10.5C11.5 11.3284 10.8284 12 10 12H5.5C4.67157 12 4 11.3284 4 10.5V6C4 5.17157 4.67157 4.5 5.5 4.5ZM5.5 5.5C5.22386 5.5 5 5.72386 5 6V10.5C5 10.7761 5.22386 11 5.5 11H10C10.2761 11 10.5 10.7761 10.5 10.5V6C10.5 5.72386 10.2761 5.5 10 5.5H5.5Z" fill="white"/>
</mask>
<g mask="url(#mask0_232_4021)">
<rect y="0.5" width="12" height="12" fill="black"/>
</g>
</svg>
