<svg width="25" height="24" viewBox="0 0 25 24" fill="none" xmlns="http://www.w3.org/2000/svg">
<path fill-rule="evenodd" clip-rule="evenodd" d="M12.5001 2C11.3955 2 10.5001 2.89543 10.5001 4C10.5001 4.14834 10.3994 4.27718 10.257 4.3187C9.69521 4.48248 9.15895 4.70622 8.65564 4.98253C8.52525 5.05412 8.36254 5.03411 8.25736 4.92893C7.47631 4.14788 6.20998 4.14788 5.42893 4.92893C4.64788 5.70998 4.64788 6.97631 5.42893 7.75736C5.53411 7.86254 5.55412 8.02525 5.48253 8.15564C5.20623 8.65893 4.9825 9.19516 4.81872 9.75695C4.7772 9.89937 4.64835 10 4.5 10C3.39543 10 2.5 10.8954 2.5 12C2.5 13.1046 3.39543 14 4.5 14C4.64835 14 4.7772 14.1006 4.81872 14.2431C4.9825 14.8048 5.20623 15.3411 5.48253 15.8444C5.55412 15.9747 5.53411 16.1375 5.42893 16.2426C4.64788 17.0237 4.64788 18.29 5.42893 19.0711C6.20998 19.8521 7.47631 19.8521 8.25736 19.0711C8.36254 18.9659 8.52525 18.9459 8.65564 19.0175C9.15895 19.2938 9.69521 19.5175 10.257 19.6813C10.3994 19.7228 10.5001 19.8517 10.5001 20C10.5001 21.1046 11.3955 22 12.5001 22C13.6046 22 14.5001 21.1046 14.5001 20C14.5001 19.8516 14.6007 19.7228 14.7431 19.6813C15.3049 19.5175 15.8411 19.2938 16.3444 19.0175C16.4747 18.9459 16.6375 18.9659 16.7426 19.0711C17.5237 19.8521 18.79 19.8521 19.5711 19.0711C20.3521 18.29 20.3521 17.0237 19.5711 16.2426C19.4659 16.1375 19.4459 15.9747 19.5175 15.8444C19.7938 15.3411 20.0175 14.8048 20.1813 14.2431C20.2228 14.1006 20.3517 14 20.5 14C21.6046 14 22.5 13.1046 22.5 12C22.5 10.8954 21.6046 10 20.5 10C20.3517 10 20.2228 9.89937 20.1813 9.75695C20.0175 9.19516 19.7938 8.65893 19.5175 8.15564C19.4459 8.02525 19.4659 7.86254 19.5711 7.75736C20.3521 6.97631 20.3521 5.70998 19.5711 4.92893C18.79 4.14788 17.5237 4.14788 16.7426 4.92893C16.6375 5.03411 16.4748 5.05412 16.3444 4.98253C15.8411 4.70625 15.3049 4.48252 14.7431 4.31875C14.6007 4.27722 14.5001 4.14836 14.5001 4C14.5001 2.89543 13.6046 2 12.5001 2ZM12.5001 15C14.157 15 15.5001 13.6569 15.5001 12C15.5001 10.3431 14.157 9 12.5001 9C10.8433 9 9.50012 10.3431 9.50012 12C9.50012 13.6569 10.8433 15 12.5001 15Z" fill="black"/>
</svg>
