<svg width="24" height="24" viewBox="0 0 24 24" fill="none" xmlns="http://www.w3.org/2000/svg">
<rect width="24" height="24" rx="12" fill="black"/>
<path fill-rule="evenodd" clip-rule="evenodd" d="M14.8278 6.79941C13.999 6.36066 13.3699 5.58995 13.1215 4.6637C13.0449 4.94691 13.0054 5.24405 13.0054 5.55048C13.0054 5.78959 13.031 6.02173 13.0774 6.24691C13.0774 6.24691 13.0774 6.24691 13.0774 6.24923C13.0774 6.25156 13.0797 6.2562 13.0797 6.25852C13.1424 6.56031 13.2445 6.84584 13.3815 7.11049C13.089 6.89459 12.829 6.63691 12.6108 6.34673C12.3183 8.61477 13.1424 10.9757 14.649 12.531C16.6153 14.82 14.8022 18.7037 11.7379 18.6016C7.40151 18.6387 6.65865 12.2525 10.8187 11.2496L10.8163 11.238C11.926 10.8782 12.446 10.1562 12.5365 9.21835C10.9347 10.516 8.40436 8.90727 8.92901 6.89227C2.9165 9.8521 5.14972 19.4535 11.9654 19.3351C14.9346 19.3351 17.4463 17.3712 18.2704 14.6714C19.2547 11.5235 17.6622 8.16906 14.8278 6.79941Z" fill="#12FE74"/>
</svg>
