<svg width="71" height="11" viewBox="0 0 71 11" fill="none" xmlns="http://www.w3.org/2000/svg">
<path d="M69.3448 10.9201C68.4698 10.9201 67.7991 10.68 67.3323 10.1995C66.8657 9.71903 66.6324 9.03632 66.6324 8.15105V5.0283H65.371V4.14754L66.6324 3.86062V2.17248C67.4701 1.92588 68.3094 2.55375 68.3094 3.42693V8.21104C68.3094 8.66473 68.4165 9.02955 68.6303 9.30534C68.8442 9.58114 69.1237 9.71903 69.4688 9.71903C69.6291 9.71903 69.7969 9.70564 69.9719 9.67903C70.1517 9.64791 70.3681 9.59452 70.6209 9.51888L71 10.5864C70.6354 10.6977 70.3267 10.7799 70.074 10.8333C69.8261 10.8911 69.583 10.9201 69.3448 10.9201ZM70.1907 5.0283C69.9282 5.0283 69.707 4.97056 69.5271 4.85476C69.3472 4.73461 69.199 4.58558 69.0824 4.40769C68.9706 4.22979 68.883 4.04738 68.8198 3.86062H70.9125V5.0283H70.1907Z" fill="black"/>
<path d="M62.3283 10.9202C61.7158 10.9202 61.1763 10.818 60.7097 10.6133C60.2429 10.4087 59.8541 10.1329 59.543 9.78594C59.2318 9.43902 58.9985 9.04533 58.843 8.60487C58.6874 8.16006 58.6096 7.69734 58.6096 7.21704C58.6096 6.48756 58.7701 5.86033 59.0909 5.33536C59.4117 4.81055 59.8517 4.40783 60.4107 4.12768C60.9745 3.84302 61.6137 3.7006 62.3283 3.7006C62.8533 3.7006 63.3249 3.80076 63.7429 4.00091C64.1609 4.19655 64.5011 4.47024 64.7637 4.82168C65.0262 5.16859 65.1865 5.57567 65.2449 6.04274C65.3081 6.50982 65.2425 7.01027 65.048 7.54412H60.9064C61.0085 7.25946 61.1567 7.01914 61.3513 6.82351C61.5506 6.62771 61.7961 6.52998 62.0877 6.52998H63.5969C63.636 6.23193 63.6019 5.95613 63.495 5.7026C63.3929 5.44906 63.23 5.24665 63.0065 5.09537C62.7828 4.94409 62.5178 4.86845 62.2117 4.86845C61.8907 4.86845 61.5895 4.95296 61.3075 5.12198C61.0256 5.28649 60.7971 5.54019 60.6221 5.88259C60.4519 6.22515 60.3669 6.65884 60.3669 7.18365C60.3669 7.69959 60.4568 8.14667 60.6366 8.52487C60.8214 8.90292 61.0766 9.19436 61.4022 9.39902C61.728 9.60369 62.1023 9.70594 62.5252 9.70594C62.8605 9.70594 63.1863 9.6703 63.5023 9.59918C63.8231 9.52353 64.1926 9.39451 64.6106 9.21226L65.0627 10.3199C64.5619 10.5424 64.0831 10.698 63.6261 10.787C63.1741 10.8757 62.7415 10.9202 62.3283 10.9202Z" fill="black"/>
<path d="M55.9557 10.76V0.64451C56.9263 0.64451 57.713 1.43124 57.713 2.40184V10.76H55.9557Z" fill="black"/>
<path d="M52.8718 10.76V0.64451C53.8423 0.64451 54.629 1.43124 54.629 2.40168V10.76H52.8718Z" fill="black"/>
<path d="M47.7293 10.9202C47.248 10.9202 46.8325 10.8311 46.4824 10.6532C46.1324 10.4708 45.8627 10.2307 45.6731 9.93263C45.4884 9.63007 45.396 9.30315 45.396 8.95172C45.396 8.55141 45.5176 8.19337 45.7607 7.87741C46.0085 7.55711 46.4242 7.29244 47.0075 7.08342C47.5907 6.8744 48.3904 6.72747 49.4063 6.64312C49.3772 6.81215 49.3261 6.97891 49.2532 7.14358C49.1803 7.30825 49.0734 7.4505 48.9324 7.57066C48.7963 7.6863 48.6165 7.76194 48.3928 7.79758C48.0768 7.84209 47.8289 7.91548 47.6491 8.01773C47.4693 8.11998 47.3404 8.24014 47.2627 8.37803C47.1898 8.51593 47.1533 8.66044 47.1533 8.81172C47.1533 9.0609 47.248 9.27218 47.4377 9.44556C47.6322 9.6191 47.8776 9.70587 48.1741 9.70587C48.4755 9.70587 48.7768 9.62362 49.0782 9.45895C49.3845 9.28992 49.6688 9.05639 49.9314 8.75834V6.55635C49.9314 6.06702 49.7904 5.67559 49.5084 5.38206C49.2313 5.08401 48.8084 4.93498 48.2397 4.93498C47.9918 4.93498 47.7317 4.9595 47.4596 5.00837C47.1922 5.05288 46.8835 5.13288 46.5335 5.24852C46.2835 4.64355 46.6559 3.96229 47.3001 3.84568C47.3364 3.83907 47.3723 3.83294 47.4085 3.8273C47.8314 3.75617 48.2105 3.72053 48.546 3.72053C49.5424 3.72053 50.3104 3.96971 50.8501 4.46791C51.3946 4.9616 51.6666 5.67124 51.6666 6.59635V8.84495C51.6666 9.2009 51.6862 9.53894 51.725 9.85909C51.7639 10.1749 51.8223 10.4752 51.9 10.7598H50.5949C50.4636 10.6887 50.3567 10.5931 50.274 10.4729C50.1914 10.3528 50.1209 10.2237 50.0625 10.0859L50.0335 9.83232L49.8583 10.0659C49.4501 10.4173 49.0831 10.6486 48.7574 10.7598C48.4366 10.8668 48.0939 10.9202 47.7293 10.9202Z" fill="black"/>
<path d="M34.0376 10.76L31.0918 1.05825H31.5002C32.3142 1.05825 33.0278 1.60193 33.2439 2.38673L34.9197 8.47142L35.0363 9.17865L35.1967 8.47142L37.231 1.19179H37.559C38.5367 1.19179 39.3936 1.84531 39.6525 2.788L41.2124 8.47142L41.3582 9.17865L41.4748 8.49804L43.5165 1.05825C44.3843 1.05825 45.0061 1.89563 44.7551 2.72639L42.328 10.76H40.4321L38.325 3.46039L38.201 2.90655L38.0843 3.44039L35.977 10.76H34.0376Z" fill="black"/>
<path d="M24.3552 10.6785L18.0116 0.976744H19.0366C19.6659 0.976744 20.2478 1.3114 20.5642 1.85557L21.9854 4.29964L22.124 4.67994L22.2406 4.29964L24.1802 0.976744H26.1852L23.0426 5.72086L26.353 10.6785H24.3552ZM17.8439 10.6785L20.7386 6.3147C20.86 6.46146 20.9816 6.655 21.1031 6.89515C21.2247 7.13095 21.3024 7.38222 21.3364 7.64915C21.3705 7.91607 21.3145 8.1696 21.1687 8.40975L19.7907 10.6783H17.8439V10.6785Z" fill="black"/>
<path d="M12.6662 10.9466C11.6259 10.9466 10.7218 10.7331 9.95376 10.306C9.18574 9.87891 8.59029 9.28733 8.1674 8.53108C7.74452 7.77047 7.53308 6.89406 7.53308 5.90218C7.53308 5.14593 7.66195 4.4587 7.91951 3.84035C8.17708 3.22199 8.5369 2.6904 8.99865 2.24559C9.4604 1.80077 10.0025 1.45821 10.6247 1.21806C11.2518 0.977911 11.9324 0.857756 12.6664 0.857756C13.556 0.857756 14.324 1.00017 14.9704 1.28483C15.617 1.56949 16.1493 1.95431 16.5673 2.43913C16.9853 2.91959 17.294 3.46004 17.4934 4.0605C17.6976 4.6566 17.7997 5.27043 17.7997 5.90202C17.7997 6.60037 17.6781 7.25437 17.435 7.86369C17.1919 8.47318 16.8444 9.00912 16.3923 9.47167C15.9402 9.93423 15.4007 10.2968 14.7737 10.5592C14.1465 10.8176 13.4439 10.9466 12.6662 10.9466ZM12.6662 9.73231C13.2592 9.73231 13.7989 9.57441 14.285 9.25862C14.7711 8.94283 15.1575 8.49801 15.4443 7.92417C15.7311 7.34597 15.8744 6.67198 15.8744 5.9025C15.8744 5.15076 15.7383 4.48789 15.4661 3.91405C15.1987 3.33586 14.8245 2.88652 14.3432 2.56622C13.862 2.24156 13.3029 2.07915 12.6662 2.07915C12.0148 2.07915 11.4485 2.24591 10.9673 2.5796C10.486 2.9133 10.1142 3.36924 9.85167 3.94744C9.59411 4.5258 9.46524 5.17737 9.46524 5.9025C9.46524 6.41844 9.53814 6.90777 9.68394 7.37049C9.82974 7.82869 10.0412 8.23561 10.3183 8.59156C10.5953 8.94751 10.9308 9.22765 11.3245 9.43232C11.7232 9.63215 12.1704 9.73231 12.6662 9.73231Z" fill="black"/>
<path d="M0.568115 10.76V3.94359C0.568115 2.35012 1.85998 1.05825 3.45345 1.05825H6.80231C6.80231 1.99611 6.04203 2.75655 5.10401 2.75655H4.08181C3.14395 2.75655 2.38351 3.51684 2.38351 4.45485V10.7602H0.568115V10.76ZM2.93783 6.26283C3.00106 6.08042 3.08847 5.89801 3.20024 5.71576C3.31685 5.52899 3.46523 5.37545 3.64506 5.2553C3.82972 5.13514 4.05342 5.07514 4.31583 5.07514H6.30653V6.26283H2.93783Z" fill="black"/>
</svg>
