<svg width="14" height="14" viewBox="0 0 14 14" fill="none" xmlns="http://www.w3.org/2000/svg">
<path fill-rule="evenodd" clip-rule="evenodd" d="M10.8182 3.18173H3.18182C2.57933 3.18173 2.09091 3.67015 2.09091 4.27264V9.72718C2.09091 10.3297 2.57933 10.8181 3.18182 10.8181H10.8182C11.4207 10.8181 11.9091 10.3297 11.9091 9.72718V4.27264C11.9091 3.67015 11.4207 3.18173 10.8182 3.18173ZM3.18182 2.09082C1.97683 2.09082 1 3.06765 1 4.27264V9.72718C1 10.9322 1.97683 11.909 3.18182 11.909H10.8182C12.0232 11.909 13 10.9322 13 9.72718V4.27264C13 3.06765 12.0232 2.09082 10.8182 2.09082H3.18182Z" />
<path fill-rule="evenodd" clip-rule="evenodd" d="M7.54541 6.99998C7.54541 5.49375 8.76645 4.27271 10.2727 4.27271H12.4545C12.7557 4.27271 13 4.51691 13 4.81816C13 5.11941 12.7557 5.36361 12.4545 5.36361H10.2727C9.36894 5.36361 8.63632 6.09624 8.63632 6.99998C8.63632 7.90372 9.36894 8.63634 10.2727 8.63634H12.4545C12.7557 8.63634 13 8.88055 13 9.1818C13 9.48304 12.7557 9.72725 12.4545 9.72725H10.2727C8.76645 9.72725 7.54541 8.50621 7.54541 6.99998Z" />
<path d="M10.8182 7.00004C10.8182 7.30129 10.574 7.5455 10.2727 7.5455C9.9715 7.5455 9.72729 7.30129 9.72729 7.00004C9.72729 6.6988 9.9715 6.45459 10.2727 6.45459C10.574 6.45459 10.8182 6.6988 10.8182 7.00004Z"/>
</svg>
