<svg width="37" height="36" viewBox="0 0 37 36" fill="none" xmlns="http://www.w3.org/2000/svg">
<rect x="0.5" width="36" height="36" rx="18" fill="black"/>
<g clip-path="url(#clip0_220_4150)">
<path d="M11.1665 12.4934C11.1665 12.2185 11.3894 11.9956 11.6643 11.9956H20.9976C21.2725 11.9956 21.4954 12.2185 21.4954 12.4934C21.4954 12.7683 21.2725 12.9912 20.9976 12.9912H11.6643C11.3894 12.9912 11.1665 12.7683 11.1665 12.4934Z" fill="#12FE74"/>
<path d="M14.9622 17.2844H15.9577V21.8889H14.9622V17.2844Z" fill="#12FE74"/>
<path d="M19.8155 22.6356V24.0045H12.8466V22.6356H19.8155ZM20.8111 21.64H11.8511V25H20.8111V21.64Z" fill="#12FE74"/>
<path d="M22.6092 18.0352H18.4507V19.0308H22.6092C22.6714 19.0308 22.7212 19.0805 22.7212 19.1428V19.5887L22.7233 20.7668H23.7168V19.1407C23.7168 18.5309 23.2211 18.0352 22.6092 18.0352ZM25.4611 17.9128H26.4545V20.7688H25.4611V17.9128Z" fill="#12FE74"/>
<path d="M22.7419 19.7733H26.1828V20.7689H22.7419V19.7733ZM23.4575 15.2933H18.4507V19.0308H22.4454V18.0353H19.4462V16.2889H23.4575C24.451 16.2889 25.2765 17.0086 25.4465 17.9523L25.459 18.0332L26.4608 18.0353C26.3239 16.4984 25.0317 15.2933 23.4575 15.2933Z" fill="#12FE74"/>
<path d="M18.4469 20.9681H19.4424V14.2979H13.2202L13.2119 22.0176H14.1681V15.2934H18.451L18.4469 20.9681Z" fill="#12FE74"/>
<path d="M17.1399 11.9956V14.2978H15.5222V11.9956H17.1399ZM18.1355 11H14.5266V15.2933H18.1355V11Z" fill="#12FE74"/>
</g>
<defs>
<clipPath id="clip0_220_4150">
<rect width="16" height="16" fill="white" transform="translate(10.5 10)"/>
</clipPath>
</defs>
</svg>
