<svg width="72" height="69" viewBox="0 0 72 69" fill="none" xmlns="http://www.w3.org/2000/svg">
<path d="M69.406 63.1183C69.406 63.1183 34.4168 68.5315 25.6858 68.6188C25.3584 68.6188 25.0528 68.6188 24.7909 68.597C17.9371 68.2477 16.9331 64.1442 16.9331 64.1442C16.9331 64.1442 13.4407 32.3636 13.2661 29.9626C13.0915 27.5398 14.161 25.2261 14.161 25.2261C14.161 25.2261 15.6453 28.4347 20.36 29.8317C20.9057 29.9845 21.495 30.1373 22.128 30.2246C28.2615 31.1413 68.8821 25.0297 68.8821 25.0297L71.0212 60.4336C70.9557 62.6381 69.406 63.1183 69.406 63.1183Z" fill="#12FE64" stroke="black" stroke-width="0.275214" stroke-miterlimit="10" stroke-linecap="round" stroke-linejoin="round"/>
<path fill-rule="evenodd" clip-rule="evenodd" d="M50.7355 36.3123C49.2057 35.59 48.0084 34.2529 47.4844 32.6041C47.3697 33.1208 47.3231 33.6596 47.3483 34.2118C47.368 34.6427 47.4332 35.059 47.5354 35.461C47.5354 35.461 47.5354 35.461 47.5356 35.4651C47.5358 35.4693 47.5404 35.4775 47.5406 35.4817C47.6784 36.0204 47.8861 36.5266 48.1547 36.9922C47.6098 36.6272 47.12 36.1843 46.7028 35.6793C46.3626 39.7908 48.0425 43.9776 50.8859 46.6564C54.6182 50.6194 51.671 57.7681 46.1402 57.8366C38.3282 58.2611 36.4629 46.8132 43.8773 44.6629L43.8721 44.6422C45.8422 43.9022 46.7198 42.5582 46.8057 40.8606C44.026 43.3313 39.3332 40.6407 40.1125 36.9661C29.521 42.7959 34.3373 59.9152 46.6107 59.1399C51.9615 58.8951 56.3263 55.1486 57.5888 50.2151C59.1031 44.461 55.9566 38.547 50.7355 36.3123Z" fill="#00D856" stroke="black" stroke-width="0.273896" stroke-linejoin="round"/>
<path fill-rule="evenodd" clip-rule="evenodd" d="M52.1769 36.3123C50.6471 35.59 49.4498 34.2529 48.9258 32.6041C48.8111 33.1208 48.7645 33.6596 48.7897 34.2118C48.8095 34.6427 48.8746 35.059 48.9769 35.461C48.9769 35.461 48.9769 35.461 48.977 35.4651C48.9772 35.4693 48.9818 35.4775 48.982 35.4817C49.1198 36.0204 49.3275 36.5266 49.5961 36.9922C49.0512 36.6272 48.5614 36.1843 48.1442 35.6793C47.804 39.7908 49.4839 43.9776 52.3273 46.6564C56.0596 50.6194 53.1124 57.7681 47.5816 57.8366C39.7696 58.2611 37.9043 46.8132 45.3187 44.6629L45.3135 44.6422C47.2836 43.9022 48.1612 42.5582 48.2471 40.8606C45.4674 43.3313 40.7746 40.6407 41.5539 36.9661C30.9624 42.7959 35.7787 59.9152 48.0521 59.1399C53.4029 58.8951 57.7677 55.1486 59.0302 50.2151C60.5445 44.461 57.398 38.547 52.1769 36.3123Z" fill="black"/>
<path d="M60.5654 41.6408L61.2421 48.6037C61.3075 49.1712 61.8096 49.5859 62.3771 49.5204L70.3222 48.56C70.3222 48.56 71.2171 48.56 71.5009 47.7742C71.7847 47.0103 70.6715 36.0748 70.6715 36.0748C70.6715 36.0748 70.4968 35.1362 69.4928 35.1362L69.6456 37.6682C69.6456 37.6682 69.6456 37.69 69.6456 37.7337C69.6674 38.8469 68.8161 39.7854 67.7029 39.8946L61.4385 40.5276C60.9147 40.5931 60.4999 41.0951 60.5654 41.6408Z" fill="white" stroke="black" stroke-width="0.275214" stroke-miterlimit="10"/>
<path d="M25.6858 68.6217C25.3366 68.6217 25.0528 68.6217 24.7909 68.5999C17.9371 68.2506 16.9331 64.1471 16.9331 64.1471C16.9331 64.1471 13.4407 32.3665 13.2661 29.9655C13.0915 27.5427 14.161 25.229 14.161 25.229C14.161 25.229 15.6453 28.4376 20.36 29.8346L21.2549 30.795L25.6858 68.6217Z" fill="white" stroke="black" stroke-width="0.275214" stroke-miterlimit="10" stroke-linecap="round" stroke-linejoin="round"/>
<path d="M67.0052 23.6111C66.1976 23.6984 65.0189 23.8512 63.5565 24.0258C62.8362 24.1131 62.0504 24.2004 61.1991 24.3095C60.959 24.3314 60.7189 24.375 60.457 24.3969C60.2169 24.4187 59.9986 24.4623 59.7585 24.4842C58.056 24.6806 56.157 24.8989 54.1707 25.139C53.254 25.2481 52.3372 25.3573 51.3768 25.4664C51.0276 25.51 50.7002 25.5537 50.3509 25.5755C50.0017 25.6192 49.6743 25.6628 49.3251 25.6847C48.1246 25.8156 46.9241 25.9684 45.7017 26.0994C44.8941 26.1867 44.0865 26.274 43.3007 26.3831C42.253 26.4923 41.2053 26.6232 40.1794 26.7324C35.05 27.2999 30.2262 27.8237 26.7338 28.173C23.9181 28.4567 21.9754 28.6095 21.4516 28.5877C18.6359 28.4567 17.1298 27.0161 17.9156 25.2481C18.6795 23.5456 20.8622 22.1705 26.5155 21.7557C26.5373 21.7557 26.5373 21.7557 26.5373 21.7557C26.7993 21.7339 27.0612 21.7121 27.3231 21.7121C29.0693 21.6248 35.1591 21.4938 42.0566 21.3847C42.9951 21.3629 43.9555 21.3629 44.9159 21.341C45.9637 21.3192 47.0332 21.2974 48.0809 21.2974C51.2022 21.2537 54.258 21.2101 57.0083 21.1882C57.5321 21.1882 58.0342 21.1882 58.5144 21.1664C58.6235 21.1664 58.7108 21.1664 58.7981 21.1664C59.9331 21.1446 61.0027 21.1446 61.9631 21.1228C62.0067 21.1228 62.0286 21.1228 62.0722 21.1228C63.2291 21.1009 64.2331 21.1009 65.0407 21.0791C65.1062 21.0791 65.1717 21.0791 65.2153 21.0791C65.4118 21.0791 65.5864 21.0791 65.7392 21.0791C65.8265 21.0791 65.9138 21.0791 66.0011 21.0791C66.1539 21.0791 66.2849 21.0791 66.394 21.0791C66.4377 21.0791 66.4813 21.0791 66.5032 21.0791C66.5468 21.0791 66.5686 21.0791 66.6123 21.0791C66.6778 21.0791 66.7214 21.0791 66.7869 21.0791C66.8087 21.0791 66.8306 21.0791 66.8524 21.0791C66.896 21.0791 66.9179 21.0791 66.9397 21.0791C66.9397 21.0791 66.9397 21.0791 66.9615 21.0791C67.0052 21.0791 67.0052 21.0791 67.0052 21.0791V23.6111Z" fill="#777E90" stroke="black" stroke-width="0.275214" stroke-miterlimit="10" stroke-linecap="round" stroke-linejoin="round"/>
<path d="M26.7338 28.1511C23.9181 28.4349 21.9754 28.5877 21.4516 28.5658C18.6359 28.4349 17.1298 26.9943 17.9156 25.2263C18.6795 23.5237 20.8622 22.1486 26.5155 21.7339C26.5373 21.7339 26.5373 21.7339 26.5373 21.7339L26.7338 28.1511Z" fill="#E6E8EC" stroke="black" stroke-width="0.275214" stroke-miterlimit="10" stroke-linecap="round" stroke-linejoin="round"/>
<path d="M54.1919 25.1204C56.2 24.8803 58.099 24.662 59.8015 24.4656C60.0416 24.4437 60.2817 24.4001 60.5218 24.3783C60.7837 24.3564 61.0238 24.3128 61.2639 24.291C62.1152 24.1818 62.901 24.0945 63.6213 24.0072C65.0619 23.8326 66.2187 23.7016 67.0045 23.6143C67.7903 23.527 68.205 23.4615 68.205 23.4615L68.8817 25.0331C68.8817 25.0331 24.9651 31.7559 19.2463 30.6864C13.5276 29.6168 13.3966 26.0808 14.6408 24.2691C15.492 23.025 16.6925 22.392 17.522 21.9991C18.9189 21.3443 21.9093 20.7549 25.0524 20.4712C26.5585 20.3402 34.6564 20.2092 43.2346 20.1001C44.1295 20.1001 45.0462 20.0783 45.9412 20.0565C46.7924 20.0565 47.6437 20.0346 48.4949 20.0346C48.9533 20.0346 49.4117 20.0346 49.8482 20.0128C51.6381 19.991 53.3624 19.9691 54.9777 19.9691C55.7416 19.9691 56.4619 19.9473 57.1604 19.9473C57.2695 19.9473 57.3787 19.9473 57.4878 19.9473C58.8193 19.9255 60.0198 19.9255 61.0675 19.9037C63.7522 19.8818 65.4329 19.8818 65.4329 19.8818C66.1096 19.9255 67.07 21.0387 67.07 21.0387C67.07 21.0387 67.0482 21.0387 67.0263 21.0387C67.0263 21.0387 67.0263 21.0387 67.0045 21.0387C66.9827 21.0387 66.939 21.0387 66.9172 21.0387C66.8954 21.0387 66.8735 21.0387 66.8517 21.0387C66.8081 21.0387 66.7426 21.0387 66.6771 21.0387C66.6334 21.0387 66.6116 21.0387 66.568 21.0387C66.5243 21.0387 66.5025 21.0387 66.4588 21.0387C66.3497 21.0387 66.1969 21.0387 66.0659 21.0387C65.9786 21.0387 65.8913 21.0387 65.804 21.0387C65.6512 21.0387 65.4766 21.0387 65.2802 21.0387C65.2147 21.0387 65.1492 21.0387 65.1055 21.0387C64.3198 21.0387 63.3157 21.0605 62.137 21.0605C62.1152 21.0605 62.1152 21.0605 62.0934 21.0605C61.133 21.0823 60.0853 21.0823 58.9284 21.1042C58.8411 21.1042 58.732 21.1042 58.6446 21.1042C58.1426 21.1042 57.6406 21.126 57.1167 21.126C54.3883 21.1696 51.3325 21.1915 48.233 21.2351C47.1853 21.257 46.1158 21.257 45.0681 21.2788C44.1077 21.3006 43.1473 21.3006 42.2087 21.3224C35.2676 21.4316 29.1341 21.5407 27.3879 21.6498C21.1235 21.9991 18.7661 23.4397 17.9585 25.2077C17.1728 26.9757 18.6788 28.4163 21.4946 28.5473C22.6732 28.6128 30.9894 27.7397 40.2879 26.692C41.3138 26.5828 42.3615 26.4519 43.4092 26.3427C44.2168 26.2554 45.0244 26.1681 45.8102 26.0808C47.0325 25.9498 48.233 25.797 49.4335 25.6661C49.7609 25.6224 50.0883 25.5788 50.4157 25.5569L54.1919 25.1204Z" fill="white" stroke="black" stroke-width="0.275214" stroke-miterlimit="10" stroke-linecap="round" stroke-linejoin="round"/>
<path d="M45.0679 11.215C45.1334 12.481 45.0243 13.7033 44.7187 14.8602C43.7583 18.6363 41.008 21.6484 37.4284 22.6743H37.4065C36.9263 22.8053 34.9619 23.351 34.4599 23.4383C34.1761 23.4819 33.936 23.5256 33.7177 23.5474C32.8446 23.6784 32.4299 23.7002 32.4299 23.7002L32.2771 22.7398C27.9335 21.6266 24.5284 17.6322 24.1137 12.5901C23.7426 8.13734 25.8381 4.09928 29.1558 1.98204L29.0685 1.3927L31.4477 0.977979C32.168 0.737878 33.1939 0.672396 33.9797 0.606914C39.7421 0.126713 44.5441 4.71045 45.0461 10.9312C45.0679 11.0185 45.0679 11.1277 45.0679 11.215Z" fill="#FFF34B" stroke="black" stroke-width="0.275214" stroke-miterlimit="10"/>
<path d="M44.7183 14.8612C43.7578 18.6373 41.0076 21.6495 37.4279 22.6754H37.4061C36.9259 22.8063 34.9614 23.352 34.4594 23.4393C34.1757 23.483 33.9356 23.5267 33.7173 23.5485C34.5686 22.9155 39.6325 19.1394 41.5969 15.6688L44.7183 14.8612Z" fill="#C19700" stroke="black" stroke-width="0.275214" stroke-miterlimit="10"/>
<path d="M32.4518 23.7207C31.0549 23.8298 29.6798 23.6552 28.4138 23.1968C26.6021 22.5638 25.0087 21.4288 23.7646 19.9227C20.1849 15.3608 21.0361 10.4497 21.6473 8.57251C22.2803 6.6517 23.3717 4.971 24.8341 3.68319C26.4275 2.28624 28.4138 1.36949 30.6402 1.19487C31.8188 1.10757 32.9539 1.2167 34.0234 1.52228C38.2797 2.67913 41.5975 6.6517 41.9904 11.6065C42.1868 13.942 41.6848 16.1902 40.7026 18.0674C39.0655 21.2105 36.0533 23.4369 32.4518 23.7207Z" fill="white" stroke="black" stroke-width="0.275214" stroke-miterlimit="10"/>
<path d="M40.702 18.0921L38.3447 17.3936C39.3269 15.8002 39.8289 13.8794 39.6543 11.8277C39.3487 7.98605 36.7949 4.9084 33.499 3.99166L34.0011 1.547C38.2574 2.70384 41.5751 6.67642 41.968 11.6312C42.1645 13.9667 41.6843 16.1931 40.702 18.0921Z" fill="white" stroke="black" stroke-width="0.275214" stroke-miterlimit="10"/>
<path d="M32.8879 21.126C32.6697 21.1696 32.4514 21.1915 32.2331 21.2133C27.7585 21.5844 23.8078 17.961 23.4149 13.1154C23.022 8.26969 26.3397 4.05702 30.8362 3.70778C31.0108 3.68595 31.1636 3.68595 31.3382 3.68595C35.6164 3.62047 39.2833 7.1565 39.6762 11.8057C40.0255 16.3895 37.057 20.4275 32.8879 21.126Z" fill="black" stroke="black" stroke-width="0.275214" stroke-miterlimit="10"/>
<path d="M38.3449 17.3699C37.1444 19.3343 35.2018 20.7313 32.8881 21.1242C28.7191 21.0368 25.1612 17.5445 24.7902 12.9826C24.4191 8.46431 27.2785 4.49174 31.3165 3.6623C32.0587 3.64047 32.8008 3.74961 33.4993 3.94606C36.7734 4.8628 39.3272 7.94045 39.6546 11.7821C39.8292 13.8557 39.3272 15.7983 38.3449 17.3699Z" fill="white" stroke="black" stroke-width="0.275214" stroke-miterlimit="10"/>
<path d="M31.4038 8.22466C31.5784 8.35562 31.7749 8.48659 31.9495 8.63938C32.0805 8.74852 32.146 8.72669 32.2114 8.59573C32.4079 8.26832 32.648 7.96273 32.8444 7.63532C32.9317 7.50436 32.9972 7.48253 33.15 7.56984C33.783 8.02821 33.7175 7.8536 33.3465 8.42111C33.1937 8.66121 33.0409 8.87948 32.8881 9.11958C32.8008 9.22872 32.8444 9.2942 32.9536 9.38151C33.4774 9.79623 33.4774 9.79623 33.8048 9.2942C33.9576 9.07593 34.1104 8.83583 34.2632 8.61755C34.3505 8.48659 34.416 8.48659 34.547 8.5739C35.1145 8.94496 35.1145 8.94496 34.7652 9.44699C34.6124 9.66526 34.4815 9.90536 34.3069 10.1018C34.1977 10.2546 34.2195 10.3201 34.3723 10.451C35.5074 11.4114 35.5947 12.9612 34.5251 13.7251C34.3723 13.8343 34.2195 13.8998 34.0449 13.9434C33.914 13.9652 33.914 14.0307 33.9576 14.1399C34.285 15.0784 33.9358 15.8642 33.1937 16.3008C32.5607 16.6718 31.7749 16.519 31.0764 15.886C30.618 15.4932 30.618 15.4932 30.3125 15.9079C30.1597 16.1261 30.0069 16.3444 29.8759 16.5627C29.8104 16.6718 29.7449 16.6718 29.6358 16.5627C29.1338 16.1261 29.1338 16.1261 29.4612 15.6678C29.614 15.4495 29.7668 15.2094 29.9196 14.9911C29.985 14.9038 29.985 14.8383 29.8759 14.751C29.4175 14.2708 29.4175 14.2708 29.0901 14.751C28.9592 14.9475 28.8064 15.1439 28.6972 15.3622C28.6099 15.4932 28.5444 15.4932 28.4353 15.384C27.9115 14.8602 27.9551 15.0348 28.2825 14.5109C28.4135 14.3145 28.5226 14.118 28.6754 13.9434C28.8064 13.7906 28.7627 13.7033 28.6099 13.5724C28.2825 13.2886 27.9988 13.0048 27.6932 12.7211C27.5622 12.612 27.5622 12.5246 27.6714 12.4155C27.7368 12.35 27.8241 12.3064 27.8678 12.2409C27.9769 12.1099 28.0642 12.1099 28.217 12.1972C28.5226 12.35 28.8282 12.2845 29.0028 12.0008C29.5485 11.1932 30.0942 10.3637 30.6399 9.51247C30.88 9.16324 30.7927 8.74852 30.4434 8.42111C30.3125 8.29014 30.3125 8.22466 30.3998 8.07187C30.749 7.56984 30.618 7.6135 31.0982 7.96273C31.1855 8.07187 31.2947 8.13735 31.4038 8.22466ZM30.7053 14.0307C30.9236 14.2053 31.1201 14.4018 31.3383 14.5764C31.7094 14.882 32.1678 14.8165 32.4079 14.4673C32.648 14.118 32.5607 13.616 32.2114 13.3104C31.8185 12.9394 31.4038 12.612 31.0109 12.2845C30.9236 12.1972 30.8581 12.1754 30.7927 12.2845C30.5744 12.6338 30.3343 12.9612 30.116 13.2886C30.0505 13.3759 30.0724 13.4414 30.1597 13.5069C30.3125 13.6815 30.5089 13.8561 30.7053 14.0307ZM32.7353 10.713C32.5825 10.582 32.4297 10.4729 32.2769 10.3419C32.1678 10.2546 32.1023 10.2546 32.0368 10.3637C31.8185 10.6911 31.6003 11.0186 31.382 11.346C31.3165 11.4551 31.3165 11.5206 31.4256 11.6079C31.7094 11.8262 31.9932 12.0663 32.2769 12.3064C32.6698 12.612 33.1718 12.5683 33.4119 12.2191C33.652 11.848 33.5211 11.3241 33.1282 11.0186C32.9972 10.9094 32.8663 10.8221 32.7353 10.713Z" fill="#FFF34B" stroke="black" stroke-width="0.275214" stroke-miterlimit="10"/>
<path d="M7.68359 46.5124L17.4186 45.9231L22.7008 51.6419L7.68359 46.5124Z" fill="white" stroke="black" stroke-width="0.275214" stroke-miterlimit="10" stroke-linecap="round" stroke-linejoin="round"/>
<path d="M17.4189 45.9234L22.7012 51.6421L19.8418 37.2579L17.4189 45.9234Z" fill="white" stroke="black" stroke-width="0.275214" stroke-miterlimit="10" stroke-linecap="round" stroke-linejoin="round"/>
<path d="M19.8414 37.2579L10.4557 37.5853L7.68359 46.5127L17.4186 45.9234L19.8414 37.2579Z" fill="black" stroke="black" stroke-width="0.275214" stroke-miterlimit="10" stroke-linecap="round" stroke-linejoin="round"/>
<path d="M0.960938 25.9087L5.78478 44.2218L15.1705 43.3705L0.960938 25.9087Z" fill="white" stroke="black" stroke-width="0.275214" stroke-miterlimit="10" stroke-linecap="round" stroke-linejoin="round"/>
<path d="M0.960938 25.9087L17.8116 34.2686L15.1705 43.3705L0.960938 25.9087Z" fill="white" stroke="black" stroke-width="0.275214" stroke-miterlimit="10" stroke-linecap="round" stroke-linejoin="round"/>
<path d="M60.5434 24.397C60.3033 24.4188 60.0851 24.4624 59.845 24.4843C58.1424 24.6807 56.2435 24.899 54.2572 25.1391C53.3404 25.2482 52.4237 25.3574 51.4633 25.4665C51.4633 25.4665 51.4633 25.4447 51.4851 25.4447C51.1359 25.4883 50.7866 25.532 50.4156 25.5756L50.4374 25.5975C50.0882 25.6411 49.7607 25.6848 49.4115 25.7066C48.211 25.8376 47.0105 25.9904 45.7882 26.1213C44.9806 26.2086 44.173 26.2959 43.3872 26.4051C42.3395 26.5142 41.2918 26.6452 40.2659 26.7543V26.7325C40.4405 24.7462 41.0953 22.9127 42.1867 21.3848C42.1867 21.3848 42.1867 21.3848 42.1867 21.363C42.4923 20.9264 42.8633 20.5117 43.2344 20.1188C44.3039 19.0274 45.6572 18.198 47.2288 17.7178C47.9709 17.4777 48.9531 17.1721 49.7171 17.1285L51.3105 16.8447L52.0526 16.7137L52.1836 17.3031C54.148 17.6741 55.9815 18.6127 57.5094 20.0097C57.6841 20.1625 57.8587 20.3371 58.0115 20.5117C58.2298 20.73 58.4262 20.9482 58.6226 21.1883C58.6226 21.1883 58.6226 21.1883 58.6445 21.2102C59.4084 22.0833 60.0632 23.1528 60.5434 24.397C60.5216 24.3751 60.5216 24.3751 60.5434 24.397Z" fill="#FFF34B"/>
<path d="M60.5434 24.397C60.3033 24.4188 60.0851 24.4624 59.845 24.4843C58.1424 24.6807 56.2435 24.899 54.2572 25.1391C53.3404 25.2482 52.4237 25.3574 51.4633 25.4665C51.4633 25.4665 51.4633 25.4447 51.4851 25.4447C51.1359 25.4883 50.7866 25.532 50.4156 25.5756L50.4374 25.5975C50.0882 25.6411 49.7607 25.6848 49.4115 25.7066C48.211 25.8376 47.0105 25.9904 45.7882 26.1213C44.9806 26.2086 44.173 26.2959 43.3872 26.4051C42.3395 26.5142 41.2918 26.6452 40.2659 26.7543V26.7325C40.4405 24.7462 41.0953 22.9127 42.1867 21.3848C42.1867 21.3848 42.1867 21.3848 42.1867 21.363C42.4923 20.9264 42.8633 20.5117 43.2344 20.1188C44.3039 19.0274 45.6572 18.198 47.2288 17.7178C47.9709 17.4777 48.9531 17.1721 49.7171 17.1285L51.3105 16.8447L52.0526 16.7137L52.1836 17.3031C54.148 17.6741 55.9815 18.6127 57.5094 20.0097C57.6841 20.1625 57.8587 20.3371 58.0115 20.5117C58.2298 20.73 58.4262 20.9482 58.6226 21.1883C58.6226 21.1883 58.6226 21.1883 58.6445 21.2102C59.4084 22.0833 60.0632 23.1528 60.5434 24.397ZM60.5434 24.397C60.5216 24.3751 60.5216 24.3751 60.5434 24.397Z" stroke="black" stroke-width="0.275214" stroke-miterlimit="10"/>
<path d="M63.6425 24.0288C62.9222 24.1161 62.1364 24.2034 61.2851 24.3126C61.045 24.3344 60.8049 24.3781 60.543 24.3999C60.3029 24.4217 60.0846 24.4654 59.8445 24.4872C58.142 24.6836 56.243 24.9019 54.2567 25.142C53.34 25.2512 52.4232 25.3603 51.4628 25.4694C51.4628 25.4694 51.4628 25.4476 51.4846 25.4476C51.1354 25.4913 50.7862 25.5349 50.4151 25.5786L50.4369 25.6004C50.0877 25.644 49.7603 25.6877 49.4111 25.7095C48.2105 25.8405 47.0101 25.9933 45.7877 26.1243C44.9801 26.2116 44.1725 26.2989 43.3867 26.408V26.3862C43.5395 24.5527 44.107 22.8283 45.0456 21.3441C45.0456 21.3441 45.0456 21.3222 45.0674 21.3222C45.3293 20.8857 45.6349 20.471 45.9623 20.0781C46.4425 19.5324 46.9664 19.0304 47.5557 18.572C48.4507 17.8954 49.4547 17.3497 50.5897 17.0004C50.8298 16.935 51.0918 16.8695 51.3319 16.804C51.572 16.7385 51.8339 16.6949 52.074 16.673C53.1654 16.5202 54.2349 16.5421 55.3044 16.7385C55.8501 16.8476 56.374 16.9786 56.8978 17.1751C58.4694 17.7426 59.91 18.6811 61.1323 19.9253C61.3288 20.1217 61.5034 20.3182 61.678 20.5365C61.809 20.6892 61.9618 20.8857 62.1146 21.104C62.1146 21.104 62.1146 21.104 62.1146 21.1258C62.5729 21.7806 63.1623 22.7847 63.6425 24.0288C63.6425 24.0288 63.6206 24.0288 63.6425 24.0288Z" fill="white"/>
<path d="M63.6425 24.0288C62.9222 24.1161 62.1364 24.2034 61.2851 24.3126C61.045 24.3344 60.8049 24.3781 60.543 24.3999C60.3029 24.4217 60.0846 24.4654 59.8445 24.4872C58.142 24.6836 56.243 24.9019 54.2567 25.142C53.34 25.2512 52.4232 25.3603 51.4628 25.4694C51.4628 25.4694 51.4628 25.4476 51.4846 25.4476C51.1354 25.4913 50.7862 25.5349 50.4151 25.5786L50.4369 25.6004C50.0877 25.644 49.7603 25.6877 49.4111 25.7095C48.2105 25.8405 47.0101 25.9933 45.7877 26.1242C44.9801 26.2116 44.1725 26.2989 43.3867 26.408V26.3862C43.5395 24.5527 44.107 22.8283 45.0456 21.3441C45.0456 21.3441 45.0456 21.3222 45.0674 21.3222C45.3293 20.8857 45.6349 20.471 45.9623 20.0781C46.4425 19.5324 46.9664 19.0304 47.5557 18.572C48.4507 17.8954 49.4547 17.3497 50.5897 17.0004C50.8298 16.935 51.0918 16.8695 51.3319 16.804C51.572 16.7385 51.8339 16.6949 52.074 16.673C53.1654 16.5202 54.2349 16.5421 55.3044 16.7385C55.8501 16.8476 56.374 16.9786 56.8978 17.1751C58.4694 17.7426 59.91 18.6811 61.1323 19.9253C61.3288 20.1217 61.5034 20.3182 61.678 20.5365C61.809 20.6892 61.9618 20.8857 62.1146 21.104C62.1146 21.104 62.1146 21.104 62.1146 21.1258C62.5729 21.7806 63.1623 22.7847 63.6425 24.0288ZM63.6425 24.0288C63.6206 24.0288 63.6425 24.0288 63.6425 24.0288Z" stroke="black" stroke-width="0.275214" stroke-miterlimit="10"/>
<path d="M48.8879 20.6661C48.8006 20.7316 48.7133 20.8189 48.626 20.8844C48.5605 20.9499 48.495 20.9936 48.4296 21.059L48.3204 21.1682C48.2768 21.2118 48.2549 21.2337 48.2113 21.2773C48.1676 21.321 48.124 21.3646 48.0803 21.4083C47.993 21.4956 47.9057 21.5829 47.8184 21.692C47.7529 21.7793 47.6656 21.8667 47.6001 21.954L47.3164 22.325C47.2509 22.4123 47.1854 22.4996 47.1199 22.6088C47.0544 22.6961 47.0108 22.7834 46.9453 22.8707L46.7707 23.1763C46.7489 23.2199 46.727 23.2636 46.7052 23.3291L46.5742 23.6128C46.5088 23.722 46.4651 23.8311 46.4214 23.9621C46.3341 24.1803 46.2468 24.3986 46.1595 24.6387L46.0067 25.1407C45.9849 25.2281 45.9631 25.3372 45.9412 25.4463C45.9194 25.5773 45.8758 25.6864 45.8539 25.8174C45.8321 25.9265 45.8103 26.0357 45.7885 26.1448C44.9808 26.2321 44.1732 26.3194 43.3875 26.4286C43.5402 24.5951 44.1077 22.8489 45.0463 21.3646C45.7011 20.2951 46.5524 19.3565 47.5346 18.6144L48.8879 20.6661C48.8879 20.6661 48.8879 20.6443 48.8879 20.6661Z" fill="white"/>
<path d="M48.8879 20.6661C48.8006 20.7316 48.7133 20.8189 48.626 20.8844C48.5605 20.9499 48.495 20.9936 48.4296 21.059L48.3204 21.1682C48.2768 21.2118 48.2549 21.2337 48.2113 21.2773C48.1676 21.321 48.124 21.3646 48.0803 21.4083C47.993 21.4956 47.9057 21.5829 47.8184 21.692C47.7529 21.7793 47.6656 21.8667 47.6001 21.954L47.3164 22.325C47.2509 22.4123 47.1854 22.4996 47.1199 22.6088C47.0544 22.6961 47.0108 22.7834 46.9453 22.8707L46.7707 23.1763C46.7489 23.2199 46.727 23.2636 46.7052 23.3291L46.5742 23.6128C46.5088 23.722 46.4651 23.8311 46.4214 23.9621C46.3341 24.1803 46.2468 24.3986 46.1595 24.6387L46.0067 25.1407C45.9849 25.2281 45.9631 25.3372 45.9412 25.4463C45.9194 25.5773 45.8758 25.6864 45.8539 25.8174C45.8321 25.9265 45.8103 26.0357 45.7885 26.1448C44.9808 26.2321 44.1732 26.3194 43.3875 26.4286C43.5402 24.5951 44.1077 22.8489 45.0463 21.3646C45.7011 20.2951 46.5524 19.3565 47.5346 18.6144L48.8879 20.6661ZM48.8879 20.6661C48.8879 20.6443 48.8879 20.6661 48.8879 20.6661Z" stroke="black" stroke-width="0.275214" stroke-miterlimit="10"/>
<path d="M61.286 24.3131C61.0459 24.3349 60.8058 24.3786 60.5438 24.4004C60.3037 24.4222 60.0855 24.4659 59.8454 24.4877C58.1428 24.6842 56.2439 24.9024 54.2576 25.1425C53.3408 25.2517 52.4241 25.3608 51.4637 25.47C51.4637 25.47 51.4637 25.4481 51.4855 25.4481C51.1363 25.4918 50.787 25.5354 50.416 25.5791L50.4378 25.6009C50.0886 25.6446 49.7611 25.6882 49.4119 25.7101C48.2114 25.841 47.0109 25.9938 45.7886 26.1248V26.1029C45.8104 25.9938 45.8104 25.9065 45.8322 25.7974C45.8541 25.6664 45.8759 25.5354 45.9195 25.4263C45.9414 25.3172 45.9632 25.2299 45.985 25.1207L46.1378 24.6187C46.2033 24.3786 46.2906 24.1603 46.3997 23.942C46.4434 23.8329 46.5089 23.7019 46.5525 23.5928L46.6835 23.309C46.7053 23.2654 46.7271 23.1999 46.749 23.1563L46.9236 22.8507C46.9891 22.7634 47.0327 22.6761 47.0982 22.5887C47.1637 22.5014 47.2292 22.3923 47.2947 22.305L47.5784 21.9339C47.6439 21.8466 47.7312 21.7593 47.7967 21.672C47.884 21.5847 47.9713 21.4756 48.0586 21.3882C48.0804 21.3664 48.1023 21.3446 48.1241 21.3228C48.1459 21.3009 48.1678 21.2791 48.1896 21.2573C48.1896 21.2573 48.1896 21.2573 48.2114 21.2355C48.2332 21.2136 48.2769 21.17 48.2987 21.1481L48.4079 21.039C48.4733 20.9735 48.5388 20.908 48.6043 20.8644C48.6916 20.7771 48.7789 20.7116 48.8662 20.6461L48.888 20.6243C49.1281 20.4278 49.3901 20.2532 49.6738 20.1004C49.7393 20.0568 49.783 20.0349 49.8484 20.0131C49.9139 19.9695 50.0012 19.9258 50.0886 19.8822C50.3287 19.773 50.5688 19.6639 50.8089 19.5547C50.9616 19.4893 51.1144 19.4456 51.2891 19.3801C53.2972 18.769 55.3708 19.0091 57.1606 19.9258C57.4444 20.0786 57.7281 20.2314 58.0119 20.4278C58.3175 20.6243 58.623 20.8644 58.9068 21.1045C58.9068 21.1045 58.9286 21.1045 58.9286 21.1263C59.889 21.9776 60.6966 23.0471 61.286 24.3131C61.286 24.2913 61.2641 24.2913 61.286 24.3131Z" fill="black"/>
<path d="M61.286 24.3131C61.0459 24.3349 60.8058 24.3786 60.5438 24.4004C60.3037 24.4222 60.0855 24.4659 59.8454 24.4877C58.1428 24.6842 56.2439 24.9024 54.2576 25.1425C53.3408 25.2517 52.4241 25.3608 51.4637 25.47C51.4637 25.47 51.4637 25.4481 51.4855 25.4481C51.1363 25.4918 50.787 25.5354 50.416 25.5791L50.4378 25.6009C50.0886 25.6446 49.7611 25.6882 49.4119 25.7101C48.2114 25.841 47.0109 25.9938 45.7886 26.1248V26.1029C45.8104 25.9938 45.8104 25.9065 45.8322 25.7974C45.8541 25.6664 45.8759 25.5354 45.9195 25.4263C45.9414 25.3172 45.9632 25.2299 45.985 25.1207L46.1378 24.6187C46.2033 24.3786 46.2906 24.1603 46.3997 23.942C46.4434 23.8329 46.5089 23.7019 46.5525 23.5928L46.6835 23.309C46.7053 23.2654 46.7271 23.1999 46.749 23.1563L46.9236 22.8507C46.9891 22.7634 47.0327 22.6761 47.0982 22.5887C47.1637 22.5014 47.2292 22.3923 47.2947 22.305L47.5784 21.9339C47.6439 21.8466 47.7312 21.7593 47.7967 21.672C47.884 21.5847 47.9713 21.4756 48.0586 21.3882C48.0804 21.3664 48.1023 21.3446 48.1241 21.3228C48.1459 21.3009 48.1678 21.2791 48.1896 21.2573C48.1896 21.2573 48.1896 21.2573 48.2114 21.2355C48.2332 21.2136 48.2769 21.17 48.2987 21.1481L48.4079 21.039C48.4733 20.9735 48.5388 20.908 48.6043 20.8644C48.6916 20.7771 48.7789 20.7116 48.8662 20.6461L48.888 20.6243C49.1281 20.4278 49.3901 20.2532 49.6738 20.1004C49.7393 20.0568 49.783 20.0349 49.8484 20.0131C49.9139 19.9695 50.0012 19.9258 50.0886 19.8822C50.3287 19.773 50.5688 19.6639 50.8089 19.5547C50.9616 19.4893 51.1144 19.4456 51.2891 19.3801C53.2972 18.769 55.3708 19.0091 57.1606 19.9258C57.4444 20.0786 57.7281 20.2314 58.0119 20.4278C58.3175 20.6243 58.623 20.8644 58.9068 21.1045C58.9068 21.1045 58.9286 21.1045 58.9286 21.1263C59.889 21.9776 60.6966 23.0471 61.286 24.3131ZM61.286 24.3131C61.2641 24.2913 61.286 24.2913 61.286 24.3131Z" stroke="black" stroke-width="0.275214" stroke-miterlimit="10"/>
<path d="M59.8239 24.4879C58.1214 24.6843 56.2224 24.9026 54.2361 25.1427C53.3193 25.2519 52.4026 25.361 51.4422 25.4701C51.4422 25.4701 51.4422 25.4483 51.464 25.4483C51.1148 25.492 50.7655 25.5356 50.3945 25.5793L50.4163 25.6011C50.0671 25.6447 49.7397 25.6884 49.3904 25.7102C48.1899 25.8412 46.9894 25.994 45.7671 26.1249V26.1031C45.7889 25.994 45.7889 25.9067 45.8107 25.7975C45.8326 25.6666 45.8544 25.5356 45.8981 25.4265C45.9199 25.3173 45.9417 25.23 45.9635 25.1209L46.1163 24.6189C46.1818 24.3788 46.2691 24.1605 46.3783 23.9422C46.4219 23.8331 46.4874 23.7021 46.531 23.593L46.662 23.3092C46.6838 23.2656 46.7057 23.2001 46.7275 23.1564L46.9021 22.8508C46.9676 22.7635 47.0112 22.6762 47.0767 22.5889C47.1422 22.5016 47.2077 22.3925 47.2732 22.3052L47.5569 21.9341C47.6224 21.8468 47.7097 21.7595 47.7752 21.6722C47.8625 21.5849 47.9498 21.4757 48.0371 21.3884C48.059 21.3666 48.0808 21.3448 48.1026 21.3229C48.1244 21.3011 48.1463 21.2793 48.1681 21.2575C48.1681 21.2575 48.1681 21.2575 48.1899 21.2356C48.2118 21.2138 48.2554 21.1701 48.2772 21.1483L48.3864 21.0392C48.4519 20.9737 48.5173 20.9082 48.5828 20.8646C48.6701 20.7773 48.7574 20.7118 48.8447 20.6463L48.8666 20.6245C49.1067 20.428 49.3686 20.2534 49.6523 20.1006C49.7178 20.057 49.7615 20.0351 49.827 20.0133C49.8925 19.9696 49.9798 19.926 50.0671 19.8823C50.3072 19.7732 50.5473 19.6641 50.7874 19.5549C52.2061 19.293 53.6468 19.4458 54.9564 19.9478C55.6985 20.2316 56.4188 20.6245 57.0736 21.1265C57.0736 21.1265 57.0955 21.1265 57.0955 21.1483C58.2087 21.9778 59.1472 23.1128 59.7802 24.4442C59.8239 24.4661 59.8239 24.4661 59.8239 24.4879Z" fill="white" stroke="black" stroke-width="0.275214" stroke-miterlimit="10"/>
<path d="M50.3942 25.5565C50.2414 25.4473 50.0886 25.3382 49.9358 25.2291C49.8267 25.1417 49.7394 25.1636 49.6521 25.2945C49.5429 25.4473 49.4556 25.5783 49.412 25.6656C49.412 25.6656 49.412 25.6874 49.3901 25.6874C49.7394 25.6438 50.0886 25.6001 50.416 25.5783C50.416 25.5565 50.416 25.5565 50.3942 25.5565ZM51.4419 25.4473C52.3805 25.3382 53.319 25.2291 54.2358 25.1199L54.214 25.0981C54.0393 24.9671 53.8647 24.858 53.6683 24.727C53.319 24.4869 53.2317 24.0722 53.4282 23.6357C53.5155 23.461 53.4718 23.3956 53.3409 23.3083C52.8388 22.9808 52.9698 22.959 52.6424 23.461C52.5769 23.5702 52.5114 23.6793 52.446 23.7885C52.3368 23.9849 52.2059 24.1813 52.0967 24.3778C52.0312 24.5088 51.9658 24.5306 51.8348 24.4433C51.5292 24.225 51.2018 24.0067 50.8962 23.7885C50.7653 23.7011 50.6998 23.7011 50.5906 23.8539C50.1759 24.5306 50.1759 24.3341 50.7216 24.727C50.9399 24.8798 51.18 25.0544 51.4201 25.1854C51.5292 25.2509 51.5292 25.3164 51.4856 25.4255C51.4637 25.4255 51.4419 25.4473 51.4419 25.4473Z" fill="#FFF34B" stroke="black" stroke-width="0.275214" stroke-miterlimit="10"/>
<path d="M64.8435 46.6833C65.9405 46.6833 66.8298 45.794 66.8298 44.697C66.8298 43.6 65.9405 42.7107 64.8435 42.7107C63.7465 42.7107 62.8572 43.6 62.8572 44.697C62.8572 45.794 63.7465 46.6833 64.8435 46.6833Z" fill="#DDFD57" stroke="black" stroke-width="0.275214" stroke-miterlimit="10"/>
</svg>
