<svg width="14" height="14" viewBox="0 0 14 14" fill="none" xmlns="http://www.w3.org/2000/svg">
<path d="M12.4719 2.10583C12.2603 1.88667 11.9714 1.75896 11.6669 1.75C11.5105 1.7503 11.3558 1.78204 11.2119 1.84333L1.52855 6.0375C1.41434 6.08402 1.31782 6.16554 1.25284 6.27035C1.18786 6.37515 1.15777 6.49786 1.16688 6.62083V7C1.16062 7.12794 1.19664 7.25437 1.26938 7.3598C1.34213 7.46523 1.44755 7.54378 1.56938 7.58333L4.08355 8.42333L4.84188 10.9842C4.89286 11.1637 4.99127 11.3261 5.12677 11.4545C5.26227 11.5828 5.42985 11.6722 5.61188 11.7133C5.68161 11.7219 5.75214 11.7219 5.82188 11.7133C6.08061 11.7124 6.32911 11.6122 6.51605 11.4333L7.44355 10.5583L9.24021 11.9758C9.41269 12.1105 9.61957 12.1939 9.83721 12.2166C10.0549 12.2393 10.2745 12.2004 10.471 12.1042L10.6635 12.005C10.8282 11.9204 10.9711 11.799 11.0814 11.6503C11.1916 11.5016 11.2662 11.3296 11.2994 11.1475L12.8335 3.21417C12.8696 3.01393 12.8554 2.80788 12.7923 2.61446C12.7291 2.42105 12.6191 2.24629 12.4719 2.10583ZM10.4419 11.0075C10.4324 11.0579 10.4117 11.1055 10.3814 11.1469C10.3512 11.1883 10.312 11.2224 10.2669 11.2467L10.0744 11.3458C10.0364 11.3651 9.99445 11.3751 9.95188 11.375C9.88976 11.3738 9.82997 11.3512 9.78271 11.3108L7.58938 9.56083C7.5371 9.5145 7.46966 9.48891 7.3998 9.48891C7.32994 9.48891 7.26249 9.5145 7.21021 9.56083L5.91521 10.78C5.89141 10.7975 5.86303 10.8076 5.83355 10.8092V8.75C5.83362 8.70957 5.84194 8.66958 5.85798 8.63247C5.87403 8.59536 5.89747 8.56191 5.92688 8.53417C7.78771 6.78417 8.90188 5.80417 9.56688 5.24417C9.58804 5.22481 9.60513 5.20142 9.61715 5.17538C9.62917 5.14934 9.63587 5.12116 9.63688 5.0925C9.63922 5.06446 9.63518 5.03625 9.62508 5.00999C9.61498 4.98372 9.59907 4.96008 9.57855 4.94083C9.55011 4.90512 9.51052 4.87996 9.46611 4.86939C9.4217 4.85882 9.37503 4.86343 9.33355 4.8825L4.92355 7.665C4.88437 7.68366 4.84152 7.69334 4.79813 7.69334C4.75474 7.69334 4.71189 7.68366 4.67271 7.665L2.04188 6.76667L11.5327 2.64833C11.5672 2.64015 11.6032 2.64015 11.6377 2.64833C11.6799 2.64944 11.7215 2.65935 11.7596 2.67743C11.7978 2.69551 11.8318 2.72136 11.8594 2.75333C11.8992 2.79563 11.9284 2.84676 11.9446 2.90253C11.9608 2.9583 11.9636 3.01712 11.9527 3.07417L10.4419 11.0075Z" />
</svg>
