<svg width="88" height="88" viewBox="0 0 88 88" fill="none" xmlns="http://www.w3.org/2000/svg">
<g clip-path="url(#clip0_124_4335)">
<path d="M73.6047 11.1289L74.1496 13.3409C74.1796 13.4626 74.2423 13.5737 74.3309 13.6623C74.4195 13.751 74.5307 13.8137 74.6523 13.8437L76.8643 14.3894C76.9015 14.3987 76.9345 14.4202 76.9581 14.4504C76.9816 14.4806 76.9944 14.5178 76.9944 14.5561C76.9944 14.5944 76.9816 14.6316 76.9581 14.6618C76.9345 14.692 76.9015 14.7135 76.8643 14.7228L74.6523 15.2685C74.5307 15.2986 74.4195 15.3613 74.3309 15.4499C74.2423 15.5385 74.1796 15.6496 74.1496 15.7713L73.6047 17.9833C73.5957 18.0209 73.5744 18.0543 73.544 18.0782C73.5137 18.1021 73.4762 18.1151 73.4376 18.1151C73.399 18.1151 73.3615 18.1021 73.3311 18.0782C73.3008 18.0543 73.2794 18.0209 73.2704 17.9833L72.7256 15.7713C72.6955 15.6495 72.6327 15.5383 72.5439 15.4497C72.4551 15.3611 72.3438 15.2984 72.222 15.2685L70.01 14.7228C69.9728 14.7135 69.9398 14.692 69.9163 14.6618C69.8927 14.6316 69.8799 14.5944 69.8799 14.5561C69.8799 14.5178 69.8927 14.4806 69.9163 14.4504C69.9398 14.4202 69.9728 14.3987 70.01 14.3894L72.222 13.8437C72.3438 13.8138 72.4551 13.7511 72.5439 13.6625C72.6327 13.5739 72.6955 13.4627 72.7256 13.3409L73.2704 11.1289C73.2794 11.0914 73.3008 11.0579 73.3311 11.034C73.3615 11.0101 73.399 10.9971 73.4376 10.9971C73.4762 10.9971 73.5137 11.0101 73.544 11.034C73.5744 11.0579 73.5957 11.0914 73.6047 11.1289Z" fill="#DDFD57"/>
<path d="M43.7096 9.79171L43.542 11.6205C43.533 11.7211 43.5515 11.8223 43.5958 11.9132C43.64 12.004 43.7082 12.0811 43.793 12.1361L45.3338 13.1347C45.3594 13.1515 45.3786 13.1764 45.3885 13.2053C45.3984 13.2342 45.3985 13.2656 45.3887 13.2946C45.3789 13.3236 45.3597 13.3485 45.3342 13.3654C45.3088 13.3823 45.2784 13.3904 45.2479 13.3882L43.4191 13.2215C43.3186 13.2123 43.2174 13.2308 43.1266 13.2748C43.0357 13.3189 42.9586 13.3869 42.9035 13.4716L41.9058 15.0124C41.89 15.0405 41.865 15.0622 41.835 15.0738C41.805 15.0854 41.7719 15.0861 41.7414 15.076C41.7108 15.0658 41.6848 15.0453 41.6678 15.018C41.6507 14.9907 41.6437 14.9584 41.648 14.9265L41.8198 13.0977C41.8293 12.9971 41.811 12.8959 41.7669 12.805C41.7228 12.7141 41.6546 12.637 41.5698 12.5821L40.0289 11.5835C40.0008 11.5678 39.9792 11.5427 39.9676 11.5127C39.956 11.4827 39.9552 11.4496 39.9654 11.4191C39.9755 11.3886 39.996 11.3626 40.0233 11.3455C40.0506 11.3285 40.0829 11.3215 40.1148 11.3257L41.9427 11.4976C42.0434 11.5065 42.1445 11.4879 42.2354 11.4437C42.3262 11.3995 42.4033 11.3314 42.4584 11.2466L43.4569 9.70578C43.474 9.68067 43.4987 9.66185 43.5275 9.65221C43.5562 9.64256 43.5873 9.64263 43.616 9.65239C43.6448 9.66215 43.6695 9.68108 43.6864 9.70625C43.7033 9.73142 43.7114 9.76145 43.7096 9.79171Z" fill="#DDFD57"/>
<path d="M12.2341 55.0594L13.6202 56.6458C13.6965 56.733 13.7953 56.7977 13.9057 56.8328C14.0161 56.868 14.1341 56.8723 14.2467 56.8452L16.2955 56.3553C16.33 56.3474 16.3661 56.3511 16.3982 56.366C16.4303 56.3809 16.4565 56.4061 16.4726 56.4375C16.4888 56.469 16.494 56.505 16.4875 56.5397C16.4809 56.5745 16.4629 56.6061 16.4364 56.6295L14.8509 58.0156C14.7635 58.0918 14.6986 58.1905 14.6633 58.3009C14.628 58.4114 14.6236 58.5294 14.6506 58.6421L15.1413 60.69C15.1496 60.7246 15.146 60.7609 15.1313 60.7931C15.1165 60.8254 15.0913 60.8519 15.0598 60.8682C15.0282 60.8845 14.9921 60.8898 14.9572 60.8832C14.9223 60.8766 14.8906 60.8585 14.8672 60.8318L13.481 59.2463C13.4048 59.1589 13.3061 59.0942 13.1957 59.0589C13.0853 59.0236 12.9673 59.0191 12.8545 59.046L10.8058 59.5359C10.7713 59.5441 10.7349 59.5406 10.7027 59.5258C10.6704 59.511 10.644 59.4858 10.6276 59.4543C10.6113 59.4227 10.606 59.3866 10.6126 59.3517C10.6192 59.3168 10.6373 59.2852 10.664 59.2617L12.2504 57.8756C12.3376 57.7992 12.4024 57.7006 12.4377 57.5902C12.4729 57.4798 12.4774 57.3618 12.4506 57.2491L11.9599 55.2012C11.9517 55.1666 11.9552 55.1303 11.97 55.098C11.9848 55.0657 12.01 55.0393 12.0415 55.023C12.0731 55.0067 12.1092 55.0014 12.1441 55.008C12.179 55.0146 12.2107 55.0327 12.2341 55.0594Z" fill="#DDFD57"/>
<path d="M73.5625 42.625C74.7016 42.625 75.625 41.7016 75.625 40.5625C75.625 39.4234 74.7016 38.5 73.5625 38.5C72.4234 38.5 71.5 39.4234 71.5 40.5625C71.5 41.7016 72.4234 42.625 73.5625 42.625Z" fill="#DDFD57"/>
<path d="M63.25 77.3438H21.6562V27.5C21.6562 26.6795 21.9822 25.8926 22.5624 25.3124C23.1426 24.7322 23.9295 24.4062 24.75 24.4062H63.25C64.0705 24.4062 64.8574 24.7322 65.4376 25.3124C66.0178 25.8926 66.3438 26.6795 66.3438 27.5V74.25C66.3438 75.0705 66.0178 75.8574 65.4376 76.4376C64.8574 77.0178 64.0705 77.3438 63.25 77.3438ZM22.3438 76.6562H63.25C63.8882 76.6562 64.5002 76.4027 64.9515 75.9515C65.4027 75.5002 65.6562 74.8882 65.6562 74.25V27.5C65.6562 26.8618 65.4027 26.2498 64.9515 25.7985C64.5002 25.3473 63.8882 25.0938 63.25 25.0938H24.75C24.1118 25.0938 23.4998 25.3473 23.0485 25.7985C22.5973 26.2498 22.3438 26.8618 22.3438 27.5V76.6562Z" fill="black"/>
<path d="M57.75 71.5V68.75C57.75 68.0207 57.4603 67.3212 56.9445 66.8055C56.4288 66.2897 55.7293 66 55 66H19.25C18.5207 66 17.8212 66.2897 17.3055 66.8055C16.7897 67.3212 16.5 68.0207 16.5 68.75V71.5C16.5 72.9587 17.0795 74.3576 18.1109 75.3891C19.1424 76.4205 20.5413 77 22 77H63.25C61.7913 77 60.3924 76.4205 59.3609 75.3891C58.3295 74.3576 57.75 72.9587 57.75 71.5Z" fill="#12FE74"/>
<path d="M63.25 77.3438H22C20.4506 77.3422 18.9652 76.726 17.8696 75.6304C16.774 74.5348 16.1578 73.0494 16.1563 71.5V68.75C16.1563 67.9295 16.4822 67.1426 17.0624 66.5624C17.6426 65.9822 18.4295 65.6563 19.25 65.6562H55C55.8205 65.6562 56.6074 65.9822 57.1876 66.5624C57.7678 67.1426 58.0938 67.9295 58.0938 68.75V71.5C58.0953 72.867 58.6391 74.1776 59.6057 75.1443C60.5724 76.1109 61.883 76.6547 63.25 76.6562V77.3438ZM19.25 66.3438C18.6118 66.3438 17.9998 66.5973 17.5485 67.0485C17.0973 67.4998 16.8438 68.1118 16.8438 68.75V71.5C16.8453 72.867 17.3891 74.1776 18.3557 75.1443C19.3224 76.1109 20.633 76.6547 22 76.6562H60.5C59.5658 76.1574 58.7846 75.4143 58.2398 74.5061C57.6949 73.598 57.4068 72.559 57.4062 71.5V68.75C57.4062 68.1118 57.1527 67.4998 56.7015 67.0485C56.2502 66.5973 55.6382 66.3438 55 66.3438H19.25Z" fill="black"/>
<path d="M21.1604 20.3345C22.9462 20.3345 24.3985 18.8556 24.3985 17.038C24.3998 16.3849 24.2082 15.746 23.8477 15.2015C23.3168 14.8362 22.6874 14.6408 22.043 14.6412C21.9699 14.6412 21.8926 14.6412 21.8006 14.6515C21.7407 14.6558 21.6809 14.6416 21.6293 14.6109C21.5777 14.5802 21.5367 14.5343 21.5119 14.4796C21.3883 14.2133 21.2271 13.9661 21.0332 13.7457L20.9172 13.7526C20.8572 13.7571 20.7973 13.7431 20.7457 13.7123C20.694 13.6816 20.653 13.6356 20.6285 13.5807C20.5628 13.4381 20.4858 13.301 20.3981 13.1708C19.5929 12.5899 18.5032 12.2444 17.3328 12.2444C14.8981 12.2444 12.9173 13.7234 12.9173 15.5409C12.9176 15.5799 12.9103 15.6185 12.8957 15.6546C12.8811 15.6907 12.8596 15.7236 12.8323 15.7514C12.805 15.7791 12.7725 15.8012 12.7366 15.8165C12.7008 15.8317 12.6623 15.8397 12.6234 15.84C10.8376 15.84 9.38525 17.05 9.38525 18.5376C9.38704 18.9674 9.5078 19.3883 9.73416 19.7536C10.3319 20.1386 11.029 20.3408 11.7399 20.3354L21.1604 20.3345Z" fill="#12FE74"/>
<path d="M21.1604 20.9782H19.983C19.8919 20.9782 19.8044 20.942 19.74 20.8775C19.6755 20.8131 19.6393 20.7256 19.6393 20.6345C19.6393 20.5433 19.6755 20.4559 19.74 20.3914C19.8044 20.3269 19.8919 20.2907 19.983 20.2907H21.1604C22.9187 20.2907 24.3487 18.8298 24.3487 17.038C24.3487 15.2462 22.9187 13.7861 21.1604 13.7861C21.0891 13.7861 21.0134 13.7861 20.9223 13.7955C20.8523 13.8009 20.7823 13.7847 20.7217 13.749C20.6612 13.7134 20.613 13.66 20.5837 13.5962C19.9822 12.2753 18.3176 11.3884 16.451 11.3884C14.0448 11.3884 12.0845 12.8494 12.0845 14.6412C12.0845 14.7323 12.0483 14.8198 11.9838 14.8842C11.9194 14.9487 11.8319 14.9849 11.7408 14.9849C9.98249 14.9849 8.55249 16.1743 8.55249 17.6378C8.55249 19.1013 9.98249 20.2907 11.7408 20.2907H17.6284C17.7195 20.2907 17.807 20.3269 17.8714 20.3914C17.9359 20.4559 17.9721 20.5433 17.9721 20.6345C17.9721 20.7256 17.9359 20.8131 17.8714 20.8775C17.807 20.942 17.7195 20.9782 17.6284 20.9782H11.7408C9.60351 20.9782 7.86499 19.4795 7.86499 17.6378C7.86499 15.8898 9.42991 14.4521 11.4151 14.3086C11.6316 12.2908 13.8076 10.6992 16.451 10.6992C18.4843 10.6992 20.3182 11.654 21.1028 13.0969H21.1604C23.2976 13.0969 25.0362 14.8638 25.0362 17.0363C25.0362 19.2088 23.2976 20.9782 21.1604 20.9782Z" fill="black"/>
<path d="M76.2705 76.3907C78.058 76.3907 79.5112 74.6951 79.5112 72.6094C79.5154 71.8712 79.3254 71.1448 78.9603 70.5031C78.4488 70.0907 77.8127 69.8638 77.1556 69.8594C77.0826 69.8594 77.0052 69.8637 76.9124 69.8715C76.8493 69.8745 76.787 69.8569 76.7348 69.8212C76.6827 69.7855 76.6437 69.7337 76.6237 69.6738C76.5013 69.374 76.3388 69.0921 76.1407 68.8359L76.0255 68.8437C75.9624 68.8467 75.9001 68.8291 75.8479 68.7934C75.7958 68.7577 75.7568 68.7059 75.7368 68.646C75.671 68.484 75.5938 68.3269 75.5056 68.1759C74.6363 67.4782 73.5523 67.1026 72.4377 67.1129C70.0005 67.1129 68.0179 68.8093 68.0179 70.8941C68.0238 70.9787 67.9962 71.0622 67.9411 71.1265C67.8859 71.1908 67.8076 71.2309 67.7231 71.2379C65.9365 71.2379 64.4824 72.6258 64.4824 74.3316C64.4825 74.8181 64.6023 75.2971 64.8313 75.7264C65.4101 76.1619 66.1154 76.3964 66.8397 76.3941L76.2705 76.3907Z" fill="#12FE74"/>
<path d="M76.2702 77.0791H75.0911C75 77.0791 74.9125 77.0429 74.8481 76.9784C74.7836 76.914 74.7474 76.8265 74.7474 76.7354C74.7474 76.6442 74.7836 76.5567 74.8481 76.4923C74.9125 76.4278 75 76.3916 75.0911 76.3916H76.2702C78.0302 76.3916 79.4619 74.6952 79.4619 72.6104C79.4619 70.5255 78.0302 68.8291 76.2702 68.8291C76.1997 68.8291 76.125 68.8291 76.0356 68.8403C75.9621 68.8467 75.8885 68.8292 75.8256 68.7905C75.7628 68.7518 75.7141 68.6939 75.6867 68.6254C75.0774 67.1018 73.4179 66.0791 71.5557 66.0791C69.1494 66.0791 67.1849 67.7746 67.1849 69.8604C67.1849 69.9515 67.1487 70.039 67.0842 70.1034C67.0197 70.1679 66.9323 70.2041 66.8411 70.2041C65.0811 70.2041 63.6494 71.5911 63.6494 73.2979C63.6494 75.0046 65.0811 76.3916 66.8411 76.3916H72.7347C72.8259 76.3916 72.9133 76.4278 72.9778 76.4923C73.0423 76.5567 73.0785 76.6442 73.0785 76.7354C73.0785 76.8265 73.0423 76.914 72.9778 76.9784C72.9133 77.0429 72.8259 77.0791 72.7347 77.0791H66.8411C64.7021 77.0791 62.9619 75.3827 62.9619 73.2979C62.9619 71.3213 64.526 69.6936 66.5111 69.5295C66.7036 67.2195 68.8925 65.3916 71.5557 65.3916C73.6036 65.3916 75.4461 66.4864 76.2255 68.1416H76.2702C78.4092 68.1416 80.1494 70.1457 80.1494 72.6104C80.1494 75.075 78.4092 77.0791 76.2702 77.0791Z" fill="black"/>
<path d="M35.6941 38.5H19.1941C17.6753 38.5 16.4441 39.7312 16.4441 41.25V46.75C16.4441 48.2688 17.6753 49.5 19.1941 49.5H35.6941C37.2129 49.5 38.4441 48.2688 38.4441 46.75V41.25C38.4441 39.7312 37.2129 38.5 35.6941 38.5Z" fill="#FFF34B"/>
<path d="M42.625 52.25H28.875C28.1156 52.25 27.5 52.8656 27.5 53.625C27.5 54.3844 28.1156 55 28.875 55H42.625C43.3844 55 44 54.3844 44 53.625C44 52.8656 43.3844 52.25 42.625 52.25Z" fill="#FFF34B"/>
<path d="M30.25 35.75C31.7688 35.75 33 34.5188 33 33C33 31.4812 31.7688 30.25 30.25 30.25C28.7312 30.25 27.5 31.4812 27.5 33C27.5 34.5188 28.7312 35.75 30.25 35.75Z" fill="#DDFD57"/>
<path d="M30.25 36.0938C29.6381 36.0938 29.04 35.9123 28.5312 35.5724C28.0224 35.2324 27.6259 34.7492 27.3917 34.1839C27.1576 33.6186 27.0963 32.9966 27.2157 32.3964C27.3351 31.7963 27.6297 31.2451 28.0624 30.8124C28.4951 30.3797 29.0463 30.0851 29.6464 29.9657C30.2466 29.8463 30.8686 29.9076 31.4339 30.1417C31.9992 30.3759 32.4824 30.7724 32.8224 31.2812C33.1623 31.79 33.3438 32.3881 33.3438 33C33.3438 33.8205 33.0178 34.6074 32.4376 35.1876C31.8574 35.7678 31.0705 36.0938 30.25 36.0938ZM30.25 30.5938C29.7741 30.5938 29.3089 30.7349 28.9132 30.9993C28.5175 31.2637 28.209 31.6395 28.0269 32.0792C27.8448 32.5189 27.7971 33.0027 27.89 33.4694C27.9828 33.9362 28.212 34.365 28.5485 34.7015C28.885 35.038 29.3138 35.2672 29.7806 35.36C30.2473 35.4529 30.7311 35.4052 31.1708 35.2231C31.6105 35.041 31.9863 34.7325 32.2507 34.3368C32.5151 33.9411 32.6563 33.4759 32.6563 33C32.6563 32.3618 32.4027 31.7498 31.9515 31.2985C31.5002 30.8473 30.8882 30.5938 30.25 30.5938Z" fill="black"/>
<path d="M41.25 35.75C42.7688 35.75 44 34.5188 44 33C44 31.4812 42.7688 30.25 41.25 30.25C39.7312 30.25 38.5 31.4812 38.5 33C38.5 34.5188 39.7312 35.75 41.25 35.75Z" fill="#FFF34B"/>
<path d="M41.25 36.0938C40.6381 36.0938 40.04 35.9123 39.5312 35.5724C39.0224 35.2324 38.6259 34.7492 38.3917 34.1839C38.1576 33.6186 38.0963 32.9966 38.2157 32.3964C38.3351 31.7963 38.6297 31.2451 39.0624 30.8124C39.4951 30.3797 40.0463 30.0851 40.6464 29.9657C41.2466 29.8463 41.8686 29.9076 42.4339 30.1417C42.9992 30.3759 43.4824 30.7724 43.8224 31.2812C44.1623 31.79 44.3438 32.3881 44.3438 33C44.3438 33.8205 44.0178 34.6074 43.4376 35.1876C42.8574 35.7678 42.0705 36.0938 41.25 36.0938ZM41.25 30.5938C40.7741 30.5938 40.3089 30.7349 39.9132 30.9993C39.5175 31.2637 39.209 31.6395 39.0269 32.0792C38.8448 32.5189 38.7971 33.0027 38.89 33.4694C38.9828 33.9362 39.212 34.365 39.5485 34.7015C39.885 35.038 40.3138 35.2672 40.7806 35.36C41.2473 35.4529 41.7311 35.4052 42.1708 35.2231C42.6105 35.041 42.9863 34.7325 43.2507 34.3368C43.5151 33.9411 43.6563 33.4759 43.6563 33C43.6563 32.3618 43.4027 31.7498 42.9515 31.2985C42.5002 30.8473 41.8882 30.5938 41.25 30.5938Z" fill="black"/>
<path d="M60.5 38.8438C60.4088 38.8438 60.3214 38.8075 60.2569 38.7431C60.1925 38.6786 60.1562 38.5912 60.1562 38.5V35.75C60.1562 35.6588 60.1925 35.5714 60.2569 35.5069C60.3214 35.4425 60.4088 35.4062 60.5 35.4062C60.5912 35.4062 60.6786 35.4425 60.7431 35.5069C60.8075 35.5714 60.8438 35.6588 60.8438 35.75V38.5C60.8438 38.5912 60.8075 38.6786 60.7431 38.7431C60.6786 38.8075 60.5912 38.8438 60.5 38.8438Z" fill="black"/>
<path d="M60.5 52.5938C60.4088 52.5938 60.3214 52.5575 60.2569 52.4931C60.1925 52.4286 60.1562 52.3412 60.1562 52.25V41.25C60.1562 41.1588 60.1925 41.0714 60.2569 41.0069C60.3214 40.9425 60.4088 40.9062 60.5 40.9062C60.5912 40.9062 60.6786 40.9425 60.7431 41.0069C60.8075 41.0714 60.8438 41.1588 60.8438 41.25V52.25C60.8438 52.3412 60.8075 52.4286 60.7431 52.4931C60.6786 52.5575 60.5912 52.5938 60.5 52.5938Z" fill="black"/>
</g>
<defs>
<clipPath id="clip0_124_4335">
<rect width="88" height="88" fill="white"/>
</clipPath>
</defs>
</svg>
