<svg width="14" height="14" viewBox="0 0 14 14" fill="none" xmlns="http://www.w3.org/2000/svg">
<path fill-rule="evenodd" clip-rule="evenodd" d="M11.6373 4.13616C11.6433 3.68052 11.4725 3.22296 11.1249 2.87529C10.7772 2.52762 10.3196 2.35682 9.86401 2.36289C9.86384 2.36289 9.86418 2.36288 9.86401 2.36289C9.61217 2.36631 9.36042 2.42377 9.12865 2.53526C9.0456 2.57521 8.96504 2.6221 8.88786 2.67593C8.85813 2.69666 8.81987 2.7014 8.7864 2.68751C8.75295 2.67364 8.72921 2.64324 8.72286 2.60759C8.70635 2.51495 8.68254 2.42482 8.65206 2.33784C8.56701 2.09513 8.42999 1.87685 8.25433 1.69636C8.25421 1.69623 8.25445 1.69648 8.25433 1.69636C7.93643 1.36988 7.49176 1.16675 7.00008 1.16675C6.50841 1.16675 6.06409 1.36951 5.74619 1.69599C5.74607 1.69611 5.74631 1.69586 5.74619 1.69599C5.57054 1.87648 5.43315 2.09513 5.3481 2.33784C5.31762 2.42482 5.29382 2.51494 5.2773 2.60759C5.27095 2.64324 5.24722 2.67364 5.21377 2.68751C5.18029 2.70139 5.14203 2.69666 5.11231 2.67593C5.03512 2.6221 4.95457 2.57521 4.87151 2.53526C4.63975 2.42377 4.38851 2.36632 4.13667 2.36289C4.1365 2.36289 4.13684 2.36289 4.13667 2.36289C3.68103 2.35683 3.22296 2.52762 2.87529 2.87529C2.52762 3.22296 2.35682 3.68052 2.36289 4.13616C2.36288 4.13598 2.36289 4.13633 2.36289 4.13616C2.36631 4.38799 2.42377 4.63974 2.53525 4.8715C2.57521 4.95456 2.6221 5.03512 2.67593 5.11231C2.69666 5.14203 2.70139 5.18029 2.68751 5.21377C2.67364 5.24722 2.64324 5.27095 2.60759 5.27731C2.51494 5.29382 2.42482 5.31763 2.33783 5.34811C2.09512 5.43316 1.87685 5.57018 1.69636 5.74583C1.69623 5.74595 1.69648 5.74571 1.69636 5.74583C1.36988 6.06373 1.16675 6.50841 1.16675 7.00008C1.16675 7.49176 1.36951 7.93607 1.69599 8.25397C1.69586 8.25385 1.69611 8.25409 1.69599 8.25397C1.87648 8.42962 2.09512 8.56701 2.33783 8.65206C2.42482 8.68254 2.51494 8.70634 2.60759 8.72286C2.64324 8.72921 2.67364 8.75295 2.68751 8.7864C2.70139 8.81987 2.69666 8.85813 2.67593 8.88786C2.6221 8.96504 2.57521 9.0456 2.53525 9.12866C2.42377 9.36042 2.36632 9.61166 2.36289 9.86349C2.36289 9.86366 2.3629 9.86332 2.36289 9.86349C2.35683 10.3191 2.52762 10.7772 2.87529 11.1249C3.22296 11.4725 3.68052 11.6433 4.13616 11.6373C4.13599 11.6373 4.13633 11.6373 4.13616 11.6373C4.38799 11.6339 4.63974 11.5764 4.8715 11.4649C4.95456 11.425 5.03512 11.3781 5.1123 11.3242C5.14203 11.3035 5.18029 11.2988 5.21377 11.3127C5.24722 11.3265 5.27095 11.3569 5.27731 11.3926C5.29382 11.4852 5.31763 11.5754 5.34811 11.6623C5.43316 11.905 5.57018 12.1233 5.74583 12.3038C5.74571 12.3037 5.74595 12.3039 5.74583 12.3038C6.06373 12.6303 6.50841 12.8334 7.00008 12.8334C7.49176 12.8334 7.93607 12.6306 8.25397 12.3042C8.25385 12.3043 8.25409 12.3041 8.25397 12.3042C8.42962 12.1237 8.56701 11.905 8.65206 11.6623C8.68254 11.5754 8.70634 11.4852 8.72286 11.3926C8.72921 11.3569 8.75295 11.3265 8.7864 11.3127C8.81988 11.2988 8.85813 11.3035 8.88786 11.3242C8.96505 11.3781 9.04561 11.425 9.12867 11.4649C9.36043 11.5764 9.61166 11.6338 9.86349 11.6373C9.86332 11.6373 9.86366 11.6373 9.86349 11.6373C10.3191 11.6433 10.7772 11.4725 11.1249 11.1249C11.4725 10.7772 11.6433 10.3196 11.6373 9.86401C11.6373 9.86384 11.6373 9.86418 11.6373 9.86401C11.6339 9.61217 11.5764 9.36042 11.4649 9.12867C11.425 9.0456 11.3781 8.96505 11.3242 8.88786C11.3035 8.85813 11.2988 8.81987 11.3127 8.7864C11.3265 8.75295 11.3569 8.72921 11.3926 8.72286C11.4852 8.70634 11.5753 8.68254 11.6623 8.65206C11.905 8.56701 12.1233 8.42998 12.3038 8.25433C12.3037 8.25445 12.3039 8.25421 12.3038 8.25433C12.6303 7.93643 12.8334 7.49176 12.8334 7.00008C12.8334 6.50841 12.6306 6.06409 12.3042 5.74619C12.3041 5.74607 12.3043 5.74631 12.3042 5.74619C12.1237 5.57054 11.905 5.43316 11.6623 5.34811C11.5753 5.31763 11.4852 5.29382 11.3926 5.27731C11.3569 5.27095 11.3265 5.24722 11.3127 5.21377C11.2988 5.18029 11.3035 5.14203 11.3242 5.11231C11.3781 5.03512 11.425 4.95456 11.4649 4.8715C11.5764 4.63974 11.6339 4.38799 11.6373 4.13616C11.6373 4.13599 11.6373 4.13633 11.6373 4.13616ZM10.2999 3.70025C10.0978 3.49817 9.78206 3.47467 9.55525 3.63286C9.21113 3.87286 8.75412 3.93713 8.33951 3.7652C7.92597 3.59371 7.64801 3.22583 7.5743 2.81232C7.52577 2.54009 7.28586 2.33341 7.00008 2.33341C6.7143 2.33341 6.47439 2.54009 6.42587 2.81232C6.35216 3.22582 6.0742 3.59371 5.66066 3.7652C5.24604 3.93713 4.78904 3.87285 4.44492 3.63286C4.21811 3.47467 3.90233 3.49817 3.70025 3.70025C3.49817 3.90233 3.47467 4.21811 3.63286 4.44492C3.87286 4.78904 3.93712 5.24604 3.7652 5.66066C3.59371 6.0742 3.22582 6.35216 2.81232 6.42587C2.54009 6.47439 2.33341 6.7143 2.33341 7.00008C2.33341 7.28586 2.54009 7.52577 2.81232 7.5743C3.22582 7.648 3.59371 7.92597 3.7652 8.33951C3.93713 8.75412 3.87286 9.21113 3.63286 9.55525C3.47467 9.78206 3.49817 10.0978 3.70025 10.2999C3.90233 10.502 4.2181 10.5255 4.44492 10.3673C4.78903 10.1273 5.24604 10.063 5.66065 10.235C6.07419 10.4065 6.35216 10.7743 6.42587 11.1878C6.4744 11.4601 6.7143 11.6667 7.00008 11.6667C7.28586 11.6667 7.52577 11.4601 7.5743 11.1878C7.648 10.7743 7.92597 10.4065 8.3395 10.235C8.75412 10.063 9.21113 10.1273 9.55525 10.3673C9.78206 10.5255 10.0978 10.502 10.2999 10.2999C10.502 10.0978 10.5255 9.78206 10.3673 9.55525C10.1273 9.21113 10.063 8.75412 10.235 8.33951C10.4065 7.92597 10.7743 7.648 11.1878 7.5743C11.4601 7.52577 11.6667 7.28586 11.6667 7.00008C11.6667 6.7143 11.4601 6.47439 11.1878 6.42587C10.7743 6.35216 10.4065 6.0742 10.235 5.66066C10.063 5.24604 10.1273 4.78903 10.3673 4.44492C10.5255 4.21811 10.502 3.90233 10.2999 3.70025Z" />
<path fill-rule="evenodd" clip-rule="evenodd" d="M7.00008 8.16675C7.64441 8.16675 8.16675 7.64441 8.16675 7.00008C8.16675 6.35575 7.64441 5.83341 7.00008 5.83341C6.35575 5.83341 5.83341 6.35575 5.83341 7.00008C5.83341 7.64441 6.35575 8.16675 7.00008 8.16675ZM7.00008 9.33342C8.28875 9.33342 9.33342 8.28875 9.33342 7.00008C9.33342 5.71142 8.28875 4.66675 7.00008 4.66675C5.71142 4.66675 4.66675 5.71142 4.66675 7.00008C4.66675 8.28875 5.71142 9.33342 7.00008 9.33342Z" />
</svg>
