<svg width="24" height="24" viewBox="0 0 24 24" fill="none" xmlns="http://www.w3.org/2000/svg">
<rect width="24" height="24" rx="12" fill="#636363"/>
<path fill-rule="evenodd" clip-rule="evenodd" d="M15.3933 5.75933C14.3988 5.23283 13.6439 4.30797 13.3458 3.19647C13.2539 3.53633 13.2065 3.8929 13.2065 4.26062C13.2065 4.54755 13.2372 4.82612 13.2929 5.09633C13.2929 5.09633 13.2929 5.09633 13.2929 5.09912C13.2929 5.1019 13.2957 5.10747 13.2957 5.11026C13.3709 5.4724 13.4935 5.81505 13.6578 6.13262C13.3068 5.87355 12.9948 5.56433 12.733 5.21612C12.382 7.93776 13.3709 10.7708 15.1788 12.6373C17.5383 15.384 15.3627 20.0445 11.6855 19.9219C6.48181 19.9665 5.59038 12.303 10.5824 11.0996L10.5796 11.0856C11.9112 10.6538 12.5352 9.78748 12.6438 8.66205C10.7217 10.2193 7.68524 8.28876 8.31481 5.87076C1.0998 9.42255 3.77966 20.9443 11.9585 20.8022C15.5215 20.8022 18.5356 18.4455 19.5245 15.2057C20.7057 11.4283 18.7947 7.40291 15.3933 5.75933Z" fill="white"/>
</svg>
