<svg width="14" height="14" viewBox="0 0 14 14" fill="none" xmlns="http://www.w3.org/2000/svg">
<g clip-path="url(#clip0_883_2974)">
<path d="M12.25 10.5136C12.25 10.7983 12.0192 11.0291 11.7345 11.0291H2.2655C1.9808 11.0291 1.75 10.7983 1.75 10.5136C1.75 10.2289 1.9808 9.99806 2.2655 9.99806H2.275V6.40552C2.275 3.83418 4.39075 1.75 7 1.75C9.60925 1.75 11.725 3.83418 11.725 6.40552V9.99806H11.7345C12.0192 9.99806 12.25 10.2289 12.25 10.5136ZM3.325 9.99806H10.675V6.40552C10.675 4.40381 9.02965 2.78101 7 2.78101C4.97035 2.78101 3.325 4.40381 3.325 6.40552V9.99806ZM6.07192 12.4559C5.67171 12.0629 6.14219 11.5446 6.70307 11.5446H7.29693C7.85781 11.5446 8.32829 12.0629 7.92808 12.4559C7.68194 12.6976 7.3481 12.8333 7 12.8333C6.6519 12.8333 6.31806 12.6976 6.07192 12.4559Z" />
</g>
<defs>
<clipPath id="clip0_883_2974">
<rect width="14" height="14" fill="white"/>
</clipPath>
</defs>
</svg>
