<svg width="35" height="36" viewBox="0 0 35 36" fill="none" xmlns="http://www.w3.org/2000/svg">
<rect y="0.5" width="35" height="35" rx="17.5" fill="black"/>
<path d="M12.7811 22.9312L14.7123 21.6812C14.7986 21.6258 14.87 21.5502 14.9201 21.4608C14.9702 21.3714 14.9976 21.2711 14.9998 21.1687V14.8312C14.9997 14.7266 14.9733 14.6237 14.923 14.532C14.8728 14.4403 14.8004 14.3626 14.7123 14.3062L12.7811 13.0562C12.685 13.0077 12.578 12.9849 12.4705 12.9899C12.363 12.995 12.2587 13.0277 12.1675 13.0849C12.0764 13.1421 12.0015 13.2218 11.9503 13.3165C11.899 13.4111 11.873 13.5173 11.8748 13.6249V22.3749C11.8752 22.4815 11.9027 22.5861 11.9549 22.679C12.0071 22.7719 12.0821 22.85 12.1729 22.9057C12.2637 22.9614 12.3672 22.993 12.4737 22.9975C12.5801 23.0019 12.686 22.9791 12.7811 22.9312V22.9312Z" stroke="#12FE74" stroke-width="1.0625" stroke-linecap="round" stroke-linejoin="round"/>
<path d="M22.2187 22.9312L20.2875 21.6812C20.1995 21.6247 20.127 21.547 20.0768 21.4553C20.0266 21.3636 20.0002 21.2607 20 21.1562V14.8312C20.0002 14.7266 20.0266 14.6237 20.0768 14.532C20.127 14.4403 20.1995 14.3626 20.2875 14.3062L22.2187 13.0562C22.3148 13.0077 22.4218 12.9849 22.5293 12.9899C22.6368 12.995 22.7412 13.0277 22.8323 13.0849C22.9235 13.1421 22.9983 13.2218 23.0496 13.3165C23.1009 13.4111 23.1268 13.5173 23.125 13.6249V22.3749C23.1247 22.4815 23.0971 22.5861 23.045 22.679C22.9928 22.7719 22.9177 22.85 22.8269 22.9057C22.7361 22.9614 22.6326 22.993 22.5262 22.9975C22.4197 23.0019 22.3139 22.9791 22.2187 22.9312V22.9312Z" stroke="#12FE74" stroke-width="1.0625" stroke-linecap="round" stroke-linejoin="round"/>
<path d="M17.5 12.375V14.25" stroke="#12FE74" stroke-width="1.0625" stroke-linecap="round" stroke-linejoin="round"/>
<path d="M17.5 16.75V19.25" stroke="#12FE74" stroke-width="1.0625" stroke-linecap="round" stroke-linejoin="round"/>
<path d="M17.5 21.75V23.625" stroke="#12FE74" stroke-width="1.0625" stroke-linecap="round" stroke-linejoin="round"/>
</svg>
