<svg width="25" height="24" viewBox="0 0 25 24" fill="none" xmlns="http://www.w3.org/2000/svg">
<path fill-rule="evenodd" clip-rule="evenodd" d="M19.318 14.1248C18.7016 13.4101 17.6428 13.4469 16.8149 13.9001C15.5338 14.6013 14.0635 15 12.5 15C10.9365 15 9.46618 14.6013 8.18505 13.9001C7.35717 13.4469 6.29841 13.4101 5.682 14.1248C4.32222 15.7014 3.5 17.7547 3.5 20V21C3.5 22.1045 4.39543 23 5.5 23H19.5C20.6046 23 21.5 22.1045 21.5 21V20C21.5 17.7547 20.6778 15.7014 19.318 14.1248Z" />
<path d="M17.5 6C17.5 8.76142 15.2614 11 12.5 11C9.73858 11 7.5 8.76142 7.5 6C7.5 3.23858 9.73858 1 12.5 1C15.2614 1 17.5 3.23858 17.5 6Z" />
</svg>
