<svg width="18" height="18" viewBox="0 0 18 18" fill="none" xmlns="http://www.w3.org/2000/svg">
<path fill-rule="evenodd" clip-rule="evenodd" d="M9 15C12.3137 15 15 12.3137 15 9C15 5.68629 12.3137 3 9 3C5.68629 3 3 5.68629 3 9C3 12.3137 5.68629 15 9 15ZM9 16.5C13.1421 16.5 16.5 13.1421 16.5 9C16.5 4.85786 13.1421 1.5 9 1.5C4.85786 1.5 1.5 4.85786 1.5 9C1.5 13.1421 4.85786 16.5 9 16.5Z" fill="#00D856"/>
<path fill-rule="evenodd" clip-rule="evenodd" d="M8.35001 7.12554C8.1426 7.48409 7.68381 7.60661 7.32526 7.3992C6.96672 7.1918 6.8442 6.733 7.0516 6.37446C7.43951 5.70389 8.16637 5.25 9.00013 5.25C10.2428 5.25 11.2501 6.25736 11.2501 7.5C11.2501 8.3233 10.7451 8.99549 10.1251 9.375C9.62715 9.67985 9.93763 10.5 8.99817 10.5C8.58396 10.5 8.24817 10.1642 8.24817 9.75C8.24817 9.72367 8.24953 9.69765 8.25217 9.67202C8.27297 9.27537 8.44984 8.95263 8.64242 8.71795C8.84579 8.47011 9.11318 8.26778 9.31765 8.14623C10.4552 7.47 9.06776 6.08655 8.35001 7.12554ZM8.99817 11.25C8.58396 11.25 8.24817 11.5858 8.24817 12C8.24817 12.4142 8.58396 12.75 8.99817 12.75C9.41238 12.75 9.74817 12.4142 9.74817 12C9.74817 11.5858 9.41238 11.25 8.99817 11.25Z" fill="#00D856"/>
</svg>
