<svg width="16" height="16" viewBox="0 0 16 16" fill="none" xmlns="http://www.w3.org/2000/svg">
<path d="M1.33317 14C0.964981 14 0.666504 13.7015 0.666504 13.3333C0.666504 12.9651 0.964981 12.6666 1.33317 12.6666L14.6665 12.6666C15.0347 12.6666 15.3332 12.9651 15.3332 13.3333C15.3332 13.7015 15.0347 14 14.6665 14L1.33317 14Z" fill="black"/>
<path d="M8.66683 2.66667C8.66683 2.29848 8.36835 2 8.00016 2C7.63197 2 7.3335 2.29848 7.3335 2.66667V9.05719L6.47157 8.19526C6.21122 7.93491 5.78911 7.93491 5.52876 8.19526C5.26841 8.45561 5.26841 8.87772 5.52876 9.13807L7.52876 11.1381C7.78911 11.3984 8.21122 11.3984 8.47157 11.1381L10.4716 9.13807C10.7319 8.87772 10.7319 8.45561 10.4716 8.19526C10.2112 7.93491 9.78911 7.93491 9.52876 8.19526L8.66683 9.05719V2.66667Z" fill="black"/>
</svg>
