<svg width="153" height="201" viewBox="0 0 153 201" fill="none" xmlns="http://www.w3.org/2000/svg">
<path d="M146.555 198.597C144.734 198.597 143.338 198.097 142.367 197.097C141.395 196.097 140.91 194.676 140.91 192.834V186.334H138.284V184.501L140.91 183.904V180.391C142.653 179.877 144.4 181.184 144.4 183.001V192.958C144.4 193.903 144.623 194.662 145.068 195.236C145.513 195.81 146.095 196.097 146.813 196.097C147.147 196.097 147.496 196.069 147.86 196.014C148.234 195.949 148.685 195.838 149.211 195.68L150 197.902C149.241 198.134 148.599 198.305 148.073 198.416C147.557 198.536 147.051 198.597 146.555 198.597ZM148.316 186.334C147.769 186.334 147.309 186.214 146.934 185.973C146.56 185.723 146.252 185.413 146.009 185.043C145.776 184.672 145.594 184.293 145.462 183.904H149.818V186.334H148.316Z" fill="black"/>
<path d="M131.952 198.597C130.677 198.597 129.554 198.384 128.583 197.958C127.612 197.532 126.802 196.958 126.155 196.236C125.507 195.514 125.021 194.695 124.698 193.778C124.374 192.852 124.212 191.889 124.212 190.89C124.212 189.371 124.546 188.066 125.214 186.973C125.881 185.881 126.797 185.043 127.961 184.46C129.134 183.867 130.464 183.571 131.952 183.571C133.044 183.571 134.026 183.779 134.896 184.196C135.766 184.603 136.474 185.173 137.02 185.904C137.567 186.626 137.901 187.474 138.022 188.446C138.154 189.418 138.017 190.459 137.612 191.57H128.992C129.205 190.978 129.513 190.478 129.918 190.071C130.333 189.663 130.844 189.46 131.451 189.46H134.592C134.673 188.839 134.603 188.265 134.38 187.738C134.168 187.21 133.828 186.789 133.363 186.474C132.898 186.159 132.346 186.002 131.709 186.002C131.041 186.002 130.414 186.177 129.827 186.529C129.241 186.872 128.765 187.4 128.401 188.112C128.047 188.825 127.87 189.728 127.87 190.82C127.87 191.894 128.057 192.824 128.431 193.612C128.816 194.398 129.347 195.005 130.024 195.431C130.702 195.857 131.481 196.07 132.362 196.07C133.059 196.07 133.738 195.996 134.395 195.848C135.063 195.69 135.832 195.422 136.702 195.042L137.643 197.348C136.6 197.811 135.604 198.134 134.653 198.32C133.712 198.504 132.812 198.597 131.952 198.597Z" fill="black"/>
<path d="M118.689 198.263V177.21C120.709 177.21 122.346 178.848 122.346 180.868V198.263H118.689Z" fill="black"/>
<path d="M112.27 198.263V177.21C114.29 177.21 115.927 178.848 115.927 180.868V198.263H112.27Z" fill="black"/>
<path d="M101.567 198.597C100.566 198.597 99.7009 198.412 98.9721 198.041C98.2437 197.662 97.6825 197.162 97.2877 196.541C96.9034 195.912 96.7111 195.231 96.7111 194.5C96.7111 193.667 96.9642 192.922 97.47 192.264C97.9859 191.597 98.851 191.047 100.065 190.612C101.279 190.176 102.943 189.871 105.058 189.695C104.997 190.047 104.891 190.394 104.739 190.737C104.587 191.079 104.365 191.376 104.071 191.626C103.788 191.866 103.414 192.024 102.948 192.098C102.291 192.191 101.775 192.343 101.4 192.556C101.026 192.769 100.758 193.019 100.596 193.306C100.444 193.593 100.369 193.894 100.369 194.209C100.369 194.727 100.566 195.167 100.96 195.528C101.365 195.889 101.876 196.07 102.493 196.07C103.12 196.07 103.747 195.898 104.375 195.556C105.012 195.204 105.604 194.718 106.15 194.097V189.515C106.15 188.496 105.857 187.681 105.27 187.071C104.693 186.45 103.813 186.14 102.63 186.14C102.114 186.14 101.572 186.191 101.006 186.293C100.449 186.385 99.807 186.552 99.0786 186.793C98.5583 185.533 99.3333 184.116 100.674 183.873C100.75 183.859 100.824 183.846 100.9 183.835C101.78 183.687 102.569 183.612 103.267 183.612C105.341 183.612 106.939 184.131 108.062 185.168C109.196 186.195 109.762 187.672 109.762 189.598V194.278C109.762 195.019 109.803 195.722 109.883 196.388C109.964 197.046 110.086 197.671 110.248 198.263H107.531C107.258 198.115 107.036 197.916 106.863 197.666C106.692 197.416 106.545 197.147 106.423 196.86L106.363 196.333L105.998 196.819C105.149 197.55 104.385 198.032 103.707 198.263C103.039 198.486 102.326 198.597 101.567 198.597Z" fill="black"/>
<path d="M73.0712 198.263L66.9402 178.071H67.7901C69.4842 178.071 70.9696 179.203 71.4194 180.836L74.907 193.5L75.1497 194.972L75.4837 193.5L79.7175 178.349H80.4003C82.4351 178.349 84.2186 179.71 84.7573 181.672L88.0039 193.5L88.3074 194.972L88.5501 193.556L92.7993 178.071C94.6056 178.071 95.8996 179.814 95.3773 181.543L90.3258 198.263H86.3799L81.9944 183.071L81.7363 181.918L81.4936 183.029L77.1077 198.263H73.0712Z" fill="black"/>
<path d="M53.2229 198.263L40.0202 178.071H42.1534C43.4632 178.071 44.6743 178.768 45.3329 179.901L48.2909 184.987L48.5792 185.779L48.8219 184.987L52.8587 178.071H57.0318L50.4912 187.945L57.3809 198.263H53.2229ZM39.6711 198.263L45.6958 189.181C45.9485 189.487 46.2016 189.889 46.4544 190.389C46.7075 190.88 46.8693 191.403 46.9401 191.959C47.0109 192.514 46.8945 193.042 46.591 193.542L43.723 198.263H39.6711V198.263Z" fill="black"/>
<path fill-rule="evenodd" clip-rule="evenodd" d="M33.0528 179.076C31.787 178.406 30.8262 177.229 30.4468 175.815C30.3298 176.247 30.2695 176.701 30.2695 177.169C30.2695 177.534 30.3085 177.889 30.3794 178.233C30.3794 178.233 30.3794 178.233 30.3794 178.236C30.3794 178.24 30.383 178.247 30.383 178.25C30.4787 178.711 30.6347 179.147 30.8439 179.552C30.3972 179.222 30 178.828 29.6668 178.385C29.22 181.849 30.4787 185.455 32.7798 187.831C35.7829 191.327 33.0138 197.258 28.3336 197.102C21.7104 197.159 20.5758 187.405 26.9295 185.873L26.926 185.856C28.6208 185.306 29.415 184.203 29.5533 182.771C27.1068 184.753 23.2421 182.296 24.0434 179.218C14.8603 183.739 18.2712 198.404 28.6811 198.223C33.2159 198.223 37.0523 195.223 38.311 191.1C39.8143 186.292 37.382 181.168 33.0528 179.076Z" fill="black"/>
<path d="M3.41211 198.263V184.077C3.41211 180.76 6.10084 178.071 9.41728 178.071H16.3872C16.3872 180.023 14.8048 181.606 12.8525 181.606H10.7251C8.77312 181.606 7.19043 183.188 7.19043 185.141V198.264H3.41211V198.263ZM8.34414 188.904C8.47572 188.524 8.65765 188.144 8.89027 187.765C9.13296 187.376 9.44178 187.057 9.81606 186.807C10.2004 186.557 10.666 186.432 11.2121 186.432H15.3553V188.904H8.34414Z" fill="black"/>
<path d="M132.7 118.9L68.6 155.9L8 120.8L93.5 71.4L105.9 103.4L132.7 118.9Z" fill="#12FE74" fill-opacity="0.2"/>
<path d="M132.7 94.9L68.6 131.9L8 96.8L93.5 47.4L135.6 71.7L114.1 84.1L132.7 94.9Z" fill="#12FE74" fill-opacity="0.5" stroke="black" stroke-width="0.57" stroke-miterlimit="10" stroke-linecap="round"/>
<path d="M132.7 85.5L68.6 122.5L8 87.4L93.5 38L135.6 62.3L114.1 74.7L132.7 85.5Z" fill="white" stroke="black" stroke-width="0.57" stroke-miterlimit="10" stroke-linecap="round" stroke-linejoin="round"/>
<path fill-rule="evenodd" clip-rule="evenodd" d="M53.0091 83.0825C52.4213 82.0801 52.6087 80.9679 53.5832 80.0296C53.0601 80.1968 52.5716 80.4043 52.128 80.6502C51.7818 80.8421 51.4834 81.0485 51.2259 81.2656C51.2259 81.2656 51.2259 81.2656 51.2225 81.2675C51.2191 81.2693 51.2159 81.2749 51.2125 81.2768C50.8681 81.5681 50.6054 81.8774 50.4244 82.1973C50.3053 81.7945 50.2946 81.3837 50.3927 80.9796C46.6774 82.5702 44.4755 85.1116 44.4471 87.5421C44.0349 90.9219 35.7363 92.6161 31.3619 90.1296C24.9084 86.7566 33.0581 81.0485 40.6494 83.508L40.6628 83.4969C42.8214 84.0788 44.6341 83.9075 46.1255 83.2259C41.8828 83.0104 40.4777 79.7337 44.1693 78.5283C31.0107 76.1856 20.4054 85.6435 30.6355 90.8968C35.0174 93.2267 41.5677 93.6216 46.6928 92.1015C52.7029 90.3476 55.2093 86.4059 53.0091 83.0825Z" fill="black"/>
<path d="M67.9 63.5L92.7 77.8" stroke="black" stroke-width="0.57" stroke-miterlimit="10" stroke-linecap="round" stroke-linejoin="round"/>
<path d="M73.5 75.9L98.9 90.5" stroke="black" stroke-width="0.57" stroke-miterlimit="10" stroke-linecap="round" stroke-linejoin="round"/>
<path d="M60 68.1L67.2 72.2" stroke="black" stroke-width="0.57" stroke-miterlimit="10" stroke-linecap="round" stroke-linejoin="round"/>
<path d="M52 72.6L73.2 84.8" stroke="black" stroke-width="0.57" stroke-miterlimit="10" stroke-linecap="round" stroke-linejoin="round"/>
<path d="M71.2 114.1L44 98.5L58.7 90L85.8999 105.6L71.2 114.1Z" fill="#12FE74" stroke="black" stroke-width="0.57" stroke-miterlimit="10" stroke-linecap="round"/>
<path d="M145.4 2L92.7999 43.1L84.2 62.9L79.2 38.9L145.4 2.10001V2Z" fill="#00D856" stroke="black" stroke-width="0.57" stroke-miterlimit="10" stroke-linecap="round" stroke-linejoin="round"/>
<path d="M145.4 2.09998L79.2 39L58 31.7C58.3 31.6 144.1 2.19998 145.4 2.09998Z" stroke="black" stroke-width="0.57" stroke-miterlimit="10" stroke-linecap="round" stroke-linejoin="round"/>
<path d="M145.4 2C145.3 2.3 119.8 52.2 119.8 52.2L101.3 45.9L92.7999 43L145.4 2Z" fill="#12FE74" stroke="black" stroke-width="0.57" stroke-miterlimit="10" stroke-linecap="round" stroke-linejoin="round"/>
<path d="M101.3 46L84.2 62.9L92.7999 43.1L101.3 46Z" fill="#00D856" stroke="black" stroke-width="0.57" stroke-miterlimit="10" stroke-linecap="round" stroke-linejoin="round"/>
</svg>
