<svg width="14" height="14" viewBox="0 0 14 14" fill="none" xmlns="http://www.w3.org/2000/svg">
<path fill-rule="evenodd" clip-rule="evenodd" d="M4.08306 2.91674H2.91639H1.74984C1.42767 2.91674 1.1665 3.1779 1.1665 3.50007C1.1665 3.82224 1.42767 4.0834 1.74984 4.0834H2.33306V11.6667C2.33306 12.6332 3.11656 13.4167 4.08306 13.4167H9.91639C10.8829 13.4167 11.6664 12.6332 11.6664 11.6667V4.0834H12.2498C12.572 4.0834 12.8332 3.82224 12.8332 3.50007C12.8332 3.1779 12.572 2.91674 12.2498 2.91674H11.0831H9.91639V2.33337C9.91639 1.36688 9.13289 0.583374 8.16639 0.583374H5.83306C4.86656 0.583374 4.08306 1.36688 4.08306 2.33337V2.91674ZM5.24972 2.91674H8.74972V2.33337C8.74972 2.01121 8.48856 1.75004 8.16639 1.75004H5.83306C5.51089 1.75004 5.24972 2.01121 5.24972 2.33337V2.91674ZM3.49972 11.6667V4.0834H10.4997V11.6667C10.4997 11.9889 10.2386 12.2501 9.91639 12.2501H4.08306C3.76089 12.2501 3.49972 11.9889 3.49972 11.6667ZM5.24995 6.41671V9.91671C5.24995 10.2389 5.51112 10.5 5.83328 10.5C6.15545 10.5 6.41662 10.2389 6.41662 9.91671V6.41671C6.41662 6.09454 6.15545 5.83337 5.83328 5.83337C5.51112 5.83337 5.24995 6.09454 5.24995 6.41671ZM7.58306 9.91671V6.41671C7.58306 6.09454 7.84422 5.83337 8.16639 5.83337C8.48856 5.83337 8.74972 6.09454 8.74972 6.41671V9.91671C8.74972 10.2389 8.48856 10.5 8.16639 10.5C7.84422 10.5 7.58306 10.2389 7.58306 9.91671Z" fill="#EF466F"/>
<mask id="mask0_233_11177" style="mask-type:luminance" maskUnits="userSpaceOnUse" x="1" y="0" width="12" height="14">
<path fill-rule="evenodd" clip-rule="evenodd" d="M4.08306 2.91674H2.91639H1.74984C1.42767 2.91674 1.1665 3.1779 1.1665 3.50007C1.1665 3.82224 1.42767 4.0834 1.74984 4.0834H2.33306V11.6667C2.33306 12.6332 3.11656 13.4167 4.08306 13.4167H9.91639C10.8829 13.4167 11.6664 12.6332 11.6664 11.6667V4.0834H12.2498C12.572 4.0834 12.8332 3.82224 12.8332 3.50007C12.8332 3.1779 12.572 2.91674 12.2498 2.91674H11.0831H9.91639V2.33337C9.91639 1.36688 9.13289 0.583374 8.16639 0.583374H5.83306C4.86656 0.583374 4.08306 1.36688 4.08306 2.33337V2.91674ZM5.24972 2.91674H8.74972V2.33337C8.74972 2.01121 8.48856 1.75004 8.16639 1.75004H5.83306C5.51089 1.75004 5.24972 2.01121 5.24972 2.33337V2.91674ZM3.49972 11.6667V4.0834H10.4997V11.6667C10.4997 11.9889 10.2386 12.2501 9.91639 12.2501H4.08306C3.76089 12.2501 3.49972 11.9889 3.49972 11.6667ZM5.24995 6.41671V9.91671C5.24995 10.2389 5.51112 10.5 5.83328 10.5C6.15545 10.5 6.41662 10.2389 6.41662 9.91671V6.41671C6.41662 6.09454 6.15545 5.83337 5.83328 5.83337C5.51112 5.83337 5.24995 6.09454 5.24995 6.41671ZM7.58306 9.91671V6.41671C7.58306 6.09454 7.84422 5.83337 8.16639 5.83337C8.48856 5.83337 8.74972 6.09454 8.74972 6.41671V9.91671C8.74972 10.2389 8.48856 10.5 8.16639 10.5C7.84422 10.5 7.58306 10.2389 7.58306 9.91671Z" fill="white"/>
</mask>
<g mask="url(#mask0_233_11177)">
<rect width="14" height="14" fill="#EF466F"/>
</g>
</svg>
