<svg width="14" height="14" viewBox="0 0 14 14" fill="none" xmlns="http://www.w3.org/2000/svg">
<path fill-rule="evenodd" clip-rule="evenodd" d="M8.57898 0.754228L10.9123 3.08756C11.1401 3.31537 11.1401 3.68471 10.9123 3.91252L4.49565 10.3292C4.38625 10.4386 4.23788 10.5 4.08317 10.5H1.74984C1.42767 10.5 1.1665 10.2389 1.1665 9.91671V7.58337C1.1665 7.42866 1.22796 7.28029 1.33736 7.1709L7.75403 0.754228C7.98183 0.526423 8.35118 0.526423 8.57898 0.754228ZM8.16667 1.99161L2.33333 7.82494V9.33332H3.84171L9.67504 3.49998L8.16667 1.99161ZM12.25 13.4167H1.75C1.42783 13.4167 1.16667 13.1555 1.16667 12.8333C1.16667 12.5112 1.42783 12.25 1.75 12.25H12.25C12.5722 12.25 12.8333 12.5112 12.8333 12.8333C12.8333 13.1555 12.5722 13.4167 12.25 13.4167Z" fill="black"/>
<mask id="mask0_9405_152849" style="mask-type:luminance" maskUnits="userSpaceOnUse" x="1" y="0" width="12" height="14">
<path fill-rule="evenodd" clip-rule="evenodd" d="M8.57898 0.754228L10.9123 3.08756C11.1401 3.31537 11.1401 3.68471 10.9123 3.91252L4.49565 10.3292C4.38625 10.4386 4.23788 10.5 4.08317 10.5H1.74984C1.42767 10.5 1.1665 10.2389 1.1665 9.91671V7.58337C1.1665 7.42866 1.22796 7.28029 1.33736 7.1709L7.75403 0.754228C7.98183 0.526423 8.35118 0.526423 8.57898 0.754228ZM8.16667 1.99161L2.33333 7.82494V9.33332H3.84171L9.67504 3.49998L8.16667 1.99161ZM12.25 13.4167H1.75C1.42783 13.4167 1.16667 13.1555 1.16667 12.8333C1.16667 12.5112 1.42783 12.25 1.75 12.25H12.25C12.5722 12.25 12.8333 12.5112 12.8333 12.8333C12.8333 13.1555 12.5722 13.4167 12.25 13.4167Z" fill="white"/>
</mask>
<g mask="url(#mask0_9405_152849)">
<rect width="14" height="14" fill="black"/>
</g>
</svg>
