<svg width="24" height="24" viewBox="0 0 24 24" fill="none" xmlns="http://www.w3.org/2000/svg">
<rect width="24" height="24" rx="12" fill="#BEC5CF"/>
<g clip-path="url(#clip0_8341_53857)">
<path d="M12.0248 3L11.9041 3.4102V15.3121L12.0248 15.4326L17.5494 12.1669L12.0248 3Z" fill="white"/>
<path d="M12.0247 3L6.5 12.1669L12.0247 15.4326V9.65571V3Z" fill="#F7F7F7"/>
<path d="M12.0248 16.4786L11.9568 16.5615V20.8012L12.0248 20.9999L17.5528 13.2146L12.0248 16.4786Z" fill="white"/>
<path d="M12.0247 20.9999V16.4786L6.5 13.2146L12.0247 20.9999Z" fill="white"/>
<path d="M12.0247 15.4325L17.5493 12.1669L12.0247 9.6557V15.4325Z" fill="white"/>
<path d="M6.5 12.1669L12.0247 15.4325V9.6557L6.5 12.1669Z" fill="#F7F7F7"/>
</g>
<defs>
<clipPath id="clip0_8341_53857">
<rect width="11.0527" height="18" fill="white" transform="translate(6.5 3)"/>
</clipPath>
</defs>
</svg>
