<svg width="25" height="24" viewBox="0 0 25 24" fill="none" xmlns="http://www.w3.org/2000/svg">
<path d="M1.5 6C1.5 4.34315 2.84315 3 4.5 3H20.5C22.1569 3 23.5 4.34315 23.5 6C23.5 6.55228 23.0523 7 22.5 7H18.5C15.7386 7 13.5 9.23858 13.5 12C13.5 14.7614 15.7386 17 18.5 17H22.5C23.0523 17 23.5 17.4477 23.5 18C23.5 19.6569 22.1569 21 20.5 21H4.5C2.84315 21 1.5 19.6569 1.5 18V6Z" />
<path fill-rule="evenodd" clip-rule="evenodd" d="M18.5 9H22.5C23.0523 9 23.5 9.44772 23.5 10V14C23.5 14.5523 23.0523 15 22.5 15H18.5C16.8431 15 15.5 13.6569 15.5 12C15.5 10.3431 16.8431 9 18.5 9ZM18.5 13C19.0523 13 19.5 12.5523 19.5 12C19.5 11.4477 19.0523 11 18.5 11C17.9477 11 17.5 11.4477 17.5 12C17.5 12.5523 17.9477 13 18.5 13Z" />
</svg>
