<svg width="14" height="14" viewBox="0 0 14 14" fill="none" xmlns="http://www.w3.org/2000/svg">
<path d="M4.08333 1.75C2.79467 1.75 1.75 2.79467 1.75 4.08333V11.0833C1.75 12.372 2.79467 13.4167 4.08333 13.4167H9.91667C11.2053 13.4167 12.25 12.372 12.25 11.0833V4.08333C12.25 2.79467 11.2053 1.75 9.91667 1.75V2.91667C10.561 2.91667 11.0833 3.439 11.0833 4.08333V11.0833C11.0833 11.7277 10.561 12.25 9.91667 12.25H4.08333C3.439 12.25 2.91667 11.7277 2.91667 11.0833V4.08333C2.91667 3.439 3.439 2.91667 4.08333 2.91667V1.75Z" fill="black"/>
<path d="M4.66683 6.41667C4.989 6.41667 5.25016 6.1555 5.25016 5.83333C5.25016 5.51117 4.989 5.25 4.66683 5.25C4.34466 5.25 4.0835 5.51117 4.0835 5.83333C4.0835 6.1555 4.34466 6.41667 4.66683 6.41667Z" fill="black"/>
<path d="M7.00016 5.25C6.678 5.25 6.41683 5.51117 6.41683 5.83333C6.41683 6.1555 6.678 6.41667 7.00016 6.41667H9.3335C9.65566 6.41667 9.91683 6.1555 9.91683 5.83333C9.91683 5.51117 9.65566 5.25 9.3335 5.25H7.00016Z" fill="black"/>
<path d="M7.00016 7.58333C6.678 7.58333 6.41683 7.8445 6.41683 8.16667C6.41683 8.48883 6.678 8.75 7.00016 8.75H9.3335C9.65566 8.75 9.91683 8.48883 9.91683 8.16667C9.91683 7.8445 9.65566 7.58333 9.3335 7.58333H7.00016Z" fill="black"/>
<path d="M6.41683 10.5C6.41683 10.1778 6.678 9.91667 7.00016 9.91667H8.16683C8.489 9.91667 8.75016 10.1778 8.75016 10.5C8.75016 10.8222 8.489 11.0833 8.16683 11.0833H7.00016C6.678 11.0833 6.41683 10.8222 6.41683 10.5Z" fill="black"/>
<path d="M5.25016 8.16667C5.25016 8.48883 4.989 8.75 4.66683 8.75C4.34466 8.75 4.0835 8.48883 4.0835 8.16667C4.0835 7.8445 4.34466 7.58333 4.66683 7.58333C4.989 7.58333 5.25016 7.8445 5.25016 8.16667Z" fill="black"/>
<path d="M4.66683 11.0833C4.989 11.0833 5.25016 10.8222 5.25016 10.5C5.25016 10.1778 4.989 9.91667 4.66683 9.91667C4.34466 9.91667 4.0835 10.1778 4.0835 10.5C4.0835 10.8222 4.34466 11.0833 4.66683 11.0833Z" fill="black"/>
<path fill-rule="evenodd" clip-rule="evenodd" d="M8.75 1.75004H5.25C4.92783 1.75004 4.66667 2.01121 4.66667 2.33337C4.66667 2.65554 4.92783 2.91671 5.25 2.91671H8.75C9.07217 2.91671 9.33333 2.65554 9.33333 2.33337C9.33333 2.01121 9.07217 1.75004 8.75 1.75004ZM5.25 0.583374C4.2835 0.583374 3.5 1.36688 3.5 2.33337C3.5 3.29987 4.2835 4.08337 5.25 4.08337H8.75C9.7165 4.08337 10.5 3.29987 10.5 2.33337C10.5 1.36688 9.7165 0.583374 8.75 0.583374H5.25Z" fill="black"/>
</svg>
