<svg width="18" height="18" viewBox="0 0 18 18" fill="none" xmlns="http://www.w3.org/2000/svg">
<path d="M4.5 16.5H13.5C14.3284 16.5 15 15.8284 15 15V6L10.5 1.5H4.5C3.67157 1.5 3 2.17157 3 3V15C3 15.8284 3.67157 16.5 4.5 16.5Z" stroke="black" stroke-linejoin="round"/>
<path d="M10.5 4.5V1.5L15 6H12C11.1716 6 10.5 5.32843 10.5 4.5Z" stroke="black" stroke-linejoin="round"/>
<circle cx="9" cy="7.875" r="1.125" stroke="black" stroke-linejoin="round"/>
<path d="M9 9.375C7.75736 9.375 6.75 10.3824 6.75 11.625H11.25C11.25 10.3824 10.2426 9.375 9 9.375Z" stroke="black" stroke-linejoin="round"/>
<path d="M6.75 13.5H11.25" stroke="black" stroke-linejoin="round"/>
</svg>
