<svg width="19" height="18" viewBox="0 0 19 18" fill="none" xmlns="http://www.w3.org/2000/svg">
<path fill-rule="evenodd" clip-rule="evenodd" d="M9.5 16.5C13.6421 16.5 17 13.1421 17 9C17 4.85786 13.6421 1.5 9.5 1.5C5.35786 1.5 2 4.85786 2 9C2 13.1421 5.35786 16.5 9.5 16.5ZM13.7803 7.28033C14.0732 6.98744 14.0732 6.51256 13.7803 6.21967C13.4874 5.92678 13.0126 5.92678 12.7197 6.21967L8.75 10.1893L7.03033 8.46967C6.73744 8.17678 6.26256 8.17678 5.96967 8.46967C5.67678 8.76256 5.67678 9.23744 5.96967 9.53033L8.21967 11.7803C8.51256 12.0732 8.98744 12.0732 9.28033 11.7803L13.7803 7.28033Z" fill="#00D856"/>
</svg>
