<svg width="13" height="12" viewBox="0 0 13 12" fill="none" xmlns="http://www.w3.org/2000/svg">
<path fill-rule="evenodd" clip-rule="evenodd" d="M2.39209 7H2.89209C3.16823 7 3.39209 7.22386 3.39209 7.5C3.39209 7.77614 3.16823 8 2.89209 8H2.39209C1.56366 8 0.89209 7.32843 0.89209 6.5V2C0.89209 1.17157 1.56366 0.5 2.39209 0.5H6.89209C7.72052 0.5 8.39209 1.17157 8.39209 2V2.5C8.39209 2.77614 8.16823 3 7.89209 3C7.61595 3 7.39209 2.77614 7.39209 2.5V2C7.39209 1.72386 7.16823 1.5 6.89209 1.5H2.39209C2.11595 1.5 1.89209 1.72386 1.89209 2V6.5C1.89209 6.77614 2.11595 7 2.39209 7ZM5.89209 4H10.3921C11.2205 4 11.8921 4.67157 11.8921 5.5V10C11.8921 10.8284 11.2205 11.5 10.3921 11.5H5.89209C5.06366 11.5 4.39209 10.8284 4.39209 10V5.5C4.39209 4.67157 5.06366 4 5.89209 4ZM5.89209 5C5.61595 5 5.39209 5.22386 5.39209 5.5V10C5.39209 10.2761 5.61595 10.5 5.89209 10.5H10.3921C10.6682 10.5 10.8921 10.2761 10.8921 10V5.5C10.8921 5.22386 10.6682 5 10.3921 5H5.89209Z" fill="#777E90"/>
<mask id="mask0_220_4486" style="mask-type:luminance" maskUnits="userSpaceOnUse" x="0" y="0" width="12" height="12">
<path fill-rule="evenodd" clip-rule="evenodd" d="M2.39209 7H2.89209C3.16823 7 3.39209 7.22386 3.39209 7.5C3.39209 7.77614 3.16823 8 2.89209 8H2.39209C1.56366 8 0.89209 7.32843 0.89209 6.5V2C0.89209 1.17157 1.56366 0.5 2.39209 0.5H6.89209C7.72052 0.5 8.39209 1.17157 8.39209 2V2.5C8.39209 2.77614 8.16823 3 7.89209 3C7.61595 3 7.39209 2.77614 7.39209 2.5V2C7.39209 1.72386 7.16823 1.5 6.89209 1.5H2.39209C2.11595 1.5 1.89209 1.72386 1.89209 2V6.5C1.89209 6.77614 2.11595 7 2.39209 7ZM5.89209 4H10.3921C11.2205 4 11.8921 4.67157 11.8921 5.5V10C11.8921 10.8284 11.2205 11.5 10.3921 11.5H5.89209C5.06366 11.5 4.39209 10.8284 4.39209 10V5.5C4.39209 4.67157 5.06366 4 5.89209 4ZM5.89209 5C5.61595 5 5.39209 5.22386 5.39209 5.5V10C5.39209 10.2761 5.61595 10.5 5.89209 10.5H10.3921C10.6682 10.5 10.8921 10.2761 10.8921 10V5.5C10.8921 5.22386 10.6682 5 10.3921 5H5.89209Z" fill="white"/>
</mask>
<g mask="url(#mask0_220_4486)">
<rect x="0.39209" width="12" height="12" fill="#777E90"/>
</g>
</svg>
