<svg width="14" height="14" viewBox="0 0 14 14" fill="none" xmlns="http://www.w3.org/2000/svg">
<path fill-rule="evenodd" clip-rule="evenodd" d="M4.08342 9.27586V11.0806L7.03637 9.33563L7.34502 9.33057C8.57229 9.31048 9.67677 9.18691 10.5026 9.06125C11.0238 8.98195 11.386 8.6182 11.4647 8.16146C11.5738 7.52793 11.6667 6.72529 11.6667 5.83342C11.6667 4.94154 11.5738 4.1389 11.4647 3.50537C11.386 3.04863 11.0238 2.68488 10.5026 2.60558C9.59937 2.46814 8.36411 2.33341 7.00008 2.33341C5.63605 2.33341 4.4008 2.46814 3.49753 2.60558C2.97633 2.68488 2.61417 3.04863 2.5355 3.50537C2.42637 4.1389 2.33341 4.94155 2.33341 5.83342C2.33341 6.72529 2.42637 7.52793 2.5355 8.16146C2.60382 8.55808 2.8809 8.87599 3.28488 9.01032L4.08342 9.27586ZM1.38577 3.30733C1.55504 2.32459 2.33617 1.60219 3.32203 1.45219C4.26664 1.30846 5.56251 1.16675 7.00008 1.16675C8.43766 1.16675 9.73352 1.30846 10.6781 1.45219C11.664 1.60219 12.4451 2.32459 12.6144 3.30733C12.7324 3.99225 12.8334 4.86231 12.8334 5.83342C12.8334 6.80452 12.7324 7.67458 12.6144 8.3595C12.4451 9.34224 11.664 10.0646 10.6781 10.2146C9.81396 10.3461 8.65581 10.4759 7.36413 10.4971L3.79684 12.605C3.40798 12.8348 2.91675 12.5545 2.91675 12.1028V10.1174C2.12724 9.85486 1.53107 9.2031 1.38577 8.3595C1.26779 7.67458 1.16675 6.80452 1.16675 5.83342C1.16675 4.86231 1.26779 3.99225 1.38577 3.30733Z" fill="black"/>
<path fill-rule="evenodd" clip-rule="evenodd" d="M4.08333 4.08325C3.76117 4.08325 3.5 4.34442 3.5 4.66659C3.5 4.98875 3.76117 5.24992 4.08333 5.24992H9.91667C10.2388 5.24992 10.5 4.98875 10.5 4.66659C10.5 4.34442 10.2388 4.08325 9.91667 4.08325H4.08333ZM4.08333 6.41659C3.76117 6.41659 3.5 6.67775 3.5 6.99992C3.5 7.32208 3.76117 7.58325 4.08333 7.58325H6.41667C6.73883 7.58325 7 7.32208 7 6.99992C7 6.67775 6.73883 6.41659 6.41667 6.41659H4.08333Z" fill="black"/>
</svg>
