<svg width="14" height="14" viewBox="0 0 14 14" fill="none" xmlns="http://www.w3.org/2000/svg">
<path d="M11.4119 3.82539L12.25 3.02012V2.84375H9.34746L7.27891 8.01719L4.92598 2.84375H1.88262V3.02012L2.86152 4.2041C2.95723 4.2916 3.00645 4.42012 2.99414 4.54863V9.20117C3.02422 9.36934 2.9709 9.54023 2.85332 9.66191L1.75 11.0059V11.1795H4.87539V11.0031L3.77344 9.66328C3.65449 9.5416 3.59707 9.37207 3.62168 9.20254V5.17754L6.36562 11.1822H6.68418L9.04395 5.17754V9.96133C9.04395 10.0871 9.04395 10.1131 8.96191 10.1965L8.11289 11.0209V11.1973H12.2309V11.0209L11.4119 10.2156C11.3408 10.1609 11.3039 10.0693 11.3189 9.98047V4.06055C11.3039 3.97168 11.3408 3.88008 11.4119 3.82539Z" fill="black"/>
</svg>
