<svg width="35" height="35" viewBox="0 0 35 35" fill="none" xmlns="http://www.w3.org/2000/svg">
<rect width="34.9999" height="34.9999" rx="17.4999" fill="black" />
<g clip-path="url(#clip0_220_4618)">
<path d="M11.25 23.1249C10.9048 23.1249 10.625 22.845 10.625 22.4999C10.625 22.1547 10.9048 21.8749 11.25 21.8749L23.7499 21.8749C24.0951 21.8749 24.3749 22.1547 24.3749 22.4999C24.3749 22.845 24.0951 23.1249 23.7499 23.1249L11.25 23.1249Z" fill="#12FE74"/>
<path d="M18.125 12.5C18.125 12.1548 17.8452 11.875 17.5 11.875C17.1548 11.875 16.875 12.1548 16.875 12.5V18.4911L16.0669 17.683C15.8229 17.4389 15.4271 17.4389 15.1831 17.683C14.939 17.9271 14.939 18.3228 15.1831 18.5669L17.058 20.4419C17.3021 20.6859 17.6978 20.6859 17.9419 20.4419L19.8169 18.5669C20.061 18.3228 20.061 17.9271 19.8169 17.683C19.5728 17.4389 19.1771 17.4389 18.933 17.683L18.125 18.4911V12.5Z" fill="#12FE74"/>
</g>
<defs>
<clipPath id="clip0_220_4618">
<rect width="14.9999" height="14.9999" fill="white" transform="translate(10 10)"/>
</clipPath>
</defs>
</svg>
