<svg width="18" height="18" viewBox="0 0 18 18" fill="none" xmlns="http://www.w3.org/2000/svg">
<path fill-rule="evenodd" clip-rule="evenodd" d="M14.25 3.75H3.75C2.92157 3.75 2.25 4.42157 2.25 5.25V12.75C2.25 13.5784 2.92157 14.25 3.75 14.25H14.25C15.0784 14.25 15.75 13.5784 15.75 12.75V5.25C15.75 4.42157 15.0784 3.75 14.25 3.75ZM3.75 2.25C2.09315 2.25 0.75 3.59315 0.75 5.25V12.75C0.75 14.4069 2.09315 15.75 3.75 15.75H14.25C15.9069 15.75 17.25 14.4069 17.25 12.75V5.25C17.25 3.59315 15.9069 2.25 14.25 2.25H3.75Z" />
<path fill-rule="evenodd" clip-rule="evenodd" d="M9.75 9C9.75 6.92893 11.4289 5.25 13.5 5.25H16.5C16.9142 5.25 17.25 5.58579 17.25 6C17.25 6.41421 16.9142 6.75 16.5 6.75H13.5C12.2574 6.75 11.25 7.75736 11.25 9C11.25 10.2426 12.2574 11.25 13.5 11.25H16.5C16.9142 11.25 17.25 11.5858 17.25 12C17.25 12.4142 16.9142 12.75 16.5 12.75H13.5C11.4289 12.75 9.75 11.0711 9.75 9Z" />
<path d="M14.25 9C14.25 9.41421 13.9142 9.75 13.5 9.75C13.0858 9.75 12.75 9.41421 12.75 9C12.75 8.58579 13.0858 8.25 13.5 8.25C13.9142 8.25 14.25 8.58579 14.25 9Z" />
</svg>
