<svg width="14" height="14" viewBox="0 0 14 14" fill="none" xmlns="http://www.w3.org/2000/svg">
<path fill-rule="evenodd" clip-rule="evenodd" d="M7.00008 11.6667C9.57741 11.6667 11.6667 9.57741 11.6667 7.00008C11.6667 4.42275 9.57741 2.33341 7.00008 2.33341C4.42275 2.33341 2.33341 4.42275 2.33341 7.00008C2.33341 9.57741 4.42275 11.6667 7.00008 11.6667ZM7.00008 12.8334C10.2217 12.8334 12.8334 10.2217 12.8334 7.00008C12.8334 3.77842 10.2217 1.16675 7.00008 1.16675C3.77842 1.16675 1.16675 3.77842 1.16675 7.00008C1.16675 10.2217 3.77842 12.8334 7.00008 12.8334Z" />
<path fill-rule="evenodd" clip-rule="evenodd" d="M8.01882 10.6031C8.44973 9.7413 8.74992 8.46907 8.74992 7.00008C8.74992 5.5311 8.44973 4.25886 8.01882 3.39704C7.55301 2.46544 7.12537 2.33341 6.99992 2.33341C6.87447 2.33341 6.44682 2.46544 5.98102 3.39704C5.55011 4.25886 5.24992 5.5311 5.24992 7.00008C5.24992 8.46907 5.55011 9.7413 5.98102 10.6031C6.44682 11.5347 6.87447 11.6667 6.99992 11.6667C7.12537 11.6667 7.55301 11.5347 8.01882 10.6031ZM6.99992 12.8334C8.61075 12.8334 9.91659 10.2217 9.91659 7.00008C9.91659 3.77842 8.61075 1.16675 6.99992 1.16675C5.38909 1.16675 4.08325 3.77842 4.08325 7.00008C4.08325 10.2217 5.38909 12.8334 6.99992 12.8334Z" />
<path fill-rule="evenodd" clip-rule="evenodd" d="M12.8046 7.58341C12.8237 7.39155 12.8334 7.19696 12.8334 7.00008C12.8334 6.80321 12.8237 6.60861 12.8046 6.41675H1.19555C1.1765 6.60861 1.16675 6.80321 1.16675 7.00008C1.16675 7.19696 1.1765 7.39155 1.19555 7.58341H12.8046Z" />
</svg>
