<svg width="16" height="16" viewBox="0 0 16 16" fill="none" xmlns="http://www.w3.org/2000/svg">
<path fill-rule="evenodd" clip-rule="evenodd" d="M8 15.5C12.1421 15.5 15.5 12.1421 15.5 8C15.5 3.85786 12.1421 0.5 8 0.5C3.85786 0.5 0.5 3.85786 0.5 8C0.5 12.1421 3.85786 15.5 8 15.5ZM12.4571 6.45711C12.8476 6.06658 12.8476 5.43342 12.4571 5.04289C12.0666 4.65237 11.4334 4.65237 11.0429 5.04289L7.25 8.83579L5.70711 7.29289C5.31658 6.90237 4.68342 6.90237 4.29289 7.29289C3.90237 7.68342 3.90237 8.31658 4.29289 8.70711L6.54289 10.9571C6.93342 11.3476 7.56658 11.3476 7.95711 10.9571L12.4571 6.45711Z" fill="#EC7D43"/>
</svg>
