<svg width="12" height="13" viewBox="0 0 12 13" fill="none" xmlns="http://www.w3.org/2000/svg">
<path fill-rule="evenodd" clip-rule="evenodd" d="M5.99984 12.3334C9.2215 12.3334 11.8332 9.72174 11.8332 6.50008C11.8332 3.27842 9.2215 0.666748 5.99984 0.666748C2.77818 0.666748 0.166504 3.27842 0.166504 6.50008C0.166504 9.72174 2.77818 12.3334 5.99984 12.3334ZM9.32915 5.16248C9.55695 4.93467 9.55695 4.56533 9.32915 4.33752C9.10134 4.10972 8.73199 4.10972 8.50419 4.33752L5.41667 7.42504L4.07915 6.08752C3.85134 5.85972 3.48199 5.85972 3.25419 6.08752C3.02638 6.31533 3.02638 6.68467 3.25419 6.91248L5.00419 8.66248C5.23199 8.89029 5.60134 8.89029 5.82915 8.66248L9.32915 5.16248Z" fill="black"/>
</svg>
