<svg width="25" height="24" viewBox="0 0 25 24" fill="none" xmlns="http://www.w3.org/2000/svg">
<path fill-rule="evenodd" clip-rule="evenodd" d="M12.5 13C8.63401 13 5.5 16.134 5.5 20V22C5.5 22.5523 5.05228 23 4.5 23C3.94772 23 3.5 22.5523 3.5 22V20C3.5 15.0294 7.52944 11 12.5 11C17.4706 11 21.5 15.0294 21.5 20V22C21.5 22.5523 21.0523 23 20.5 23C19.9477 23 19.5 22.5523 19.5 22V20C19.5 16.134 16.366 13 12.5 13Z" fill="black"/>
<path fill-rule="evenodd" clip-rule="evenodd" d="M12.5 11C14.7091 11 16.5 9.20914 16.5 7C16.5 4.79086 14.7091 3 12.5 3C10.2909 3 8.5 4.79086 8.5 7C8.5 9.20914 10.2909 11 12.5 11ZM12.5 13C15.8137 13 18.5 10.3137 18.5 7C18.5 3.68629 15.8137 1 12.5 1C9.18629 1 6.5 3.68629 6.5 7C6.5 10.3137 9.18629 13 12.5 13Z" fill="black"/>
</svg>
