<svg width="14" height="14" viewBox="0 0 14 14" fill="none" xmlns="http://www.w3.org/2000/svg">
<path d="M2.74581 7.17085C2.51801 6.94305 2.14866 6.94305 1.92085 7.17085C1.69305 7.39866 1.69305 7.76801 1.92085 7.99581L4.83752 10.9125C5.06533 11.1403 5.43467 11.1403 5.66248 10.9125L12.0791 4.49581C12.307 4.26801 12.307 3.89866 12.0791 3.67085C11.8513 3.44305 11.482 3.44305 11.2542 3.67085L5.25 9.67504L2.74581 7.17085Z" fill="black"/>
<mask id="mask0_232_4117" style="mask-type:luminance" maskUnits="userSpaceOnUse" x="1" y="3" width="12" height="9">
<path d="M2.74581 7.17085C2.51801 6.94305 2.14866 6.94305 1.92085 7.17085C1.69305 7.39866 1.69305 7.76801 1.92085 7.99581L4.83752 10.9125C5.06533 11.1403 5.43467 11.1403 5.66248 10.9125L12.0791 4.49581C12.307 4.26801 12.307 3.89866 12.0791 3.67085C11.8513 3.44305 11.482 3.44305 11.2542 3.67085L5.25 9.67504L2.74581 7.17085Z" fill="white"/>
</mask>
<g mask="url(#mask0_232_4117)">
<rect width="14" height="14" fill="black"/>
</g>
</svg>
