<svg width="35" height="35" viewBox="0 0 35 35" fill="none" xmlns="http://www.w3.org/2000/svg">
<rect width="34.9999" height="34.9999" rx="17.4999" fill="gray"/>
<g clip-path="url(#clip0_220_4639)">
<mask id="mask0_220_4639" style="mask-type:luminance" maskUnits="userSpaceOnUse" x="10" y="12" width="15" height="11">
<path d="M24.9997 12.3438H10.0022V22.6562H24.9997V12.3438Z" fill="white"/>
</mask>
<g mask="url(#mask0_220_4639)">
<path d="M24.991 21.4201L22.8348 20.203V20.9172H21.3357C20.4098 20.9172 19.522 20.5568 18.8672 19.9156C18.2125 19.2741 17.8447 18.4041 17.8447 17.4972C17.8391 15.055 15.8196 13.0766 13.3268 13.0711H12.146V12.3567L10 13.5738L12.1562 14.791V14.0768H13.3268C14.2527 14.0768 15.1407 14.4371 15.7953 15.0786C16.4501 15.7201 16.8179 16.5901 16.8179 17.497C16.8235 19.9391 18.843 21.9176 21.3357 21.9231H22.8452V22.6375L24.991 21.4201Z" fill="white"/>
</g>
<mask id="mask1_220_4639" style="mask-type:luminance" maskUnits="userSpaceOnUse" x="10" y="12" width="15" height="11">
<path d="M24.9997 12.3438H10.0022V22.6562H24.9997V12.3438Z" fill="white"/>
</mask>
<g mask="url(#mask1_220_4639)">
<path d="M16.6843 20.4342C16.4816 20.1169 16.3129 19.7798 16.1812 19.4283C15.537 20.3537 14.4701 20.9103 13.3266 20.917H12.1458V20.2028L10 21.4201L12.1562 22.6373V21.9229H13.3268C14.6119 21.9207 15.8344 21.3787 16.6843 20.4342ZM24.8884 13.5738L22.7321 12.3567V13.0709H21.3357C20.0454 13.0728 18.8183 13.6188 17.968 14.5697C18.171 14.887 18.3396 15.224 18.4712 15.5757C19.1151 14.6436 20.187 14.0827 21.3359 14.0768H22.7323V14.791L24.8884 13.5738Z" fill="white"/>
</g>
</g>
<defs>
<clipPath id="clip0_220_4639">
<rect width="14.9999" height="14.9999" fill="white" transform="translate(10 10)"/>
</clipPath>
</defs>
</svg>
