<svg width="24" height="24" viewBox="0 0 24 24" fill="none" xmlns="http://www.w3.org/2000/svg">
<path fill-rule="evenodd" clip-rule="evenodd" d="M3.58579 5L0.292893 1.70711C-0.0976311 1.31658 -0.0976311 0.683417 0.292893 0.292893C0.683417 -0.0976311 1.31658 -0.0976311 1.70711 0.292893L10.413 8.99875C10.422 9.00746 10.4309 9.01635 10.4397 9.02544L15.9746 14.5604C15.9837 14.5691 15.9925 14.578 16.0012 14.587L23.7071 22.2929C24.0976 22.6834 24.0976 23.3166 23.7071 23.7071C23.3166 24.0976 22.6834 24.0976 22.2929 23.7071L20.5858 22H3C1.34315 22 0 20.6569 0 19V8C0 6.34315 1.34315 5 3 5H3.58579ZM13.9061 15.3204L9.67964 11.0939C9.10241 11.7825 8.8544 12.7084 9.03866 13.6172C9.27816 14.7986 10.2014 15.7218 11.3828 15.9613C12.2916 16.1456 13.2175 15.8976 13.9061 15.3204ZM8.26209 9.6763C7.21818 10.8362 6.75944 12.4407 7.07854 14.0146C7.47771 15.9835 9.01649 17.5223 10.9854 17.9215C12.5593 18.2406 14.1638 17.7818 15.3237 16.7379L18.5858 20H3C2.44772 20 2 19.5523 2 19V8C2 7.44772 2.44772 7 3 7H5.58579L8.26209 9.6763ZM16.1679 6.5547C16.3534 6.8329 16.6656 7 17 7H21C21.5523 7 22 7.44772 22 8V17.34C22 17.8923 22.4477 18.34 23 18.34C23.5523 18.34 24 17.8923 24 17.34V8C24 6.34315 22.6569 5 21 5H17.5352L15.8321 2.4453C15.6466 2.1671 15.3344 2 15 2H9C8.44771 2 8 2.44772 8 3C8 3.55228 8.44771 4 9 4H14.4648L16.1679 6.5547Z" fill="black"/>
<mask id="mask0_213_6894" style="mask-type:luminance" maskUnits="userSpaceOnUse" x="0" y="0" width="24" height="24">
<path fill-rule="evenodd" clip-rule="evenodd" d="M3.58579 5L0.292893 1.70711C-0.0976311 1.31658 -0.0976311 0.683417 0.292893 0.292893C0.683417 -0.0976311 1.31658 -0.0976311 1.70711 0.292893L10.413 8.99875C10.422 9.00746 10.4309 9.01635 10.4397 9.02544L15.9746 14.5604C15.9837 14.5691 15.9925 14.578 16.0012 14.587L23.7071 22.2929C24.0976 22.6834 24.0976 23.3166 23.7071 23.7071C23.3166 24.0976 22.6834 24.0976 22.2929 23.7071L20.5858 22H3C1.34315 22 0 20.6569 0 19V8C0 6.34315 1.34315 5 3 5H3.58579ZM13.9061 15.3204L9.67964 11.0939C9.10241 11.7825 8.8544 12.7084 9.03866 13.6172C9.27816 14.7986 10.2014 15.7218 11.3828 15.9613C12.2916 16.1456 13.2175 15.8976 13.9061 15.3204ZM8.26209 9.6763C7.21818 10.8362 6.75944 12.4407 7.07854 14.0146C7.47771 15.9835 9.01649 17.5223 10.9854 17.9215C12.5593 18.2406 14.1638 17.7818 15.3237 16.7379L18.5858 20H3C2.44772 20 2 19.5523 2 19V8C2 7.44772 2.44772 7 3 7H5.58579L8.26209 9.6763ZM16.1679 6.5547C16.3534 6.8329 16.6656 7 17 7H21C21.5523 7 22 7.44772 22 8V17.34C22 17.8923 22.4477 18.34 23 18.34C23.5523 18.34 24 17.8923 24 17.34V8C24 6.34315 22.6569 5 21 5H17.5352L15.8321 2.4453C15.6466 2.1671 15.3344 2 15 2H9C8.44771 2 8 2.44772 8 3C8 3.55228 8.44771 4 9 4H14.4648L16.1679 6.5547Z" fill="white"/>
</mask>
<g mask="url(#mask0_213_6894)">
<rect width="24" height="24" fill="black"/>
</g>
</svg>
