<svg width="25" height="24" viewBox="0 0 25 24" fill="none" xmlns="http://www.w3.org/2000/svg">
<path fill-rule="evenodd" clip-rule="evenodd" d="M20.4495 7.09041C20.4599 6.30932 20.1671 5.52493 19.5711 4.92893C18.9751 4.33293 18.1907 4.04013 17.4096 4.05052C17.4093 4.05053 17.4099 4.05052 17.4096 4.05052C16.9779 4.05639 16.5463 4.1549 16.149 4.34601C16.0066 4.41451 15.8685 4.49489 15.7362 4.58717C15.6852 4.62271 15.6196 4.63082 15.5623 4.60703C15.5049 4.58325 15.4642 4.53113 15.4533 4.47002C15.425 4.3112 15.3842 4.1567 15.332 4.00759C15.1862 3.59151 14.9513 3.21732 14.6501 2.9079C14.6499 2.90769 14.6503 2.90811 14.6501 2.9079C14.1052 2.34823 13.3429 2 12.5 2C11.6571 2 10.8954 2.3476 10.3505 2.90727C10.3503 2.90748 10.3507 2.90706 10.3505 2.90727C10.0494 3.21669 9.81383 3.59151 9.66804 4.00759C9.61578 4.1567 9.57498 4.31119 9.54667 4.47001C9.53577 4.53113 9.49509 4.58325 9.43775 4.60702C9.38036 4.63082 9.31477 4.62271 9.26382 4.58717C9.1315 4.49489 8.9934 4.4145 8.85102 4.34601C8.45371 4.15489 8.02302 4.0564 7.59129 4.05053C7.591 4.05053 7.59159 4.05054 7.59129 4.05053C6.8102 4.04014 6.02493 4.33293 5.42893 4.92893C4.83293 5.52493 4.54013 6.30931 4.55052 7.09041C4.55052 7.09012 4.55053 7.09071 4.55052 7.09041C4.55639 7.52213 4.65489 7.95371 4.84601 8.35101C4.9145 8.4934 4.99489 8.63149 5.08717 8.76381C5.12271 8.81477 5.13082 8.88036 5.10702 8.93775C5.08325 8.99509 5.03113 9.03578 4.97001 9.04667C4.81119 9.07498 4.65669 9.11579 4.50757 9.16804C4.0915 9.31384 3.71732 9.54874 3.4079 9.84986C3.40769 9.85006 3.40811 9.84965 3.4079 9.84986C2.84823 10.3948 2.5 11.1571 2.5 12C2.5 12.8429 2.8476 13.6046 3.40727 14.1495C3.40706 14.1493 3.40748 14.1497 3.40727 14.1495C3.71669 14.4506 4.0915 14.6862 4.50757 14.832C4.65669 14.8842 4.81119 14.925 4.97001 14.9533C5.03113 14.9642 5.08325 15.0049 5.10702 15.0623C5.13082 15.1196 5.12271 15.1852 5.08717 15.2362C4.99489 15.3685 4.9145 15.5066 4.84601 15.649C4.65489 16.0463 4.5564 16.477 4.55053 16.9087C4.55053 16.909 4.55054 16.9084 4.55053 16.9087C4.54014 17.6898 4.83293 18.4751 5.42893 19.0711C6.02493 19.6671 6.80932 19.9599 7.59041 19.9495C7.59012 19.9495 7.59071 19.9495 7.59041 19.9495C8.02213 19.9436 8.4537 19.8451 8.851 19.654C8.99339 19.5855 9.13149 19.5051 9.26381 19.4128C9.31477 19.3773 9.38036 19.3692 9.43775 19.393C9.49509 19.4168 9.53578 19.4689 9.54667 19.53C9.57498 19.6888 9.61579 19.8433 9.66805 19.9924C9.81385 20.4085 10.0487 20.7827 10.3499 21.0921C10.3497 21.0919 10.3501 21.0923 10.3499 21.0921C10.8948 21.6518 11.6571 22 12.5 22C13.3429 22 14.1046 21.6524 14.6495 21.0927C14.6493 21.0929 14.6497 21.0925 14.6495 21.0927C14.9506 20.7833 15.1862 20.4085 15.332 19.9924C15.3842 19.8433 15.425 19.6888 15.4533 19.53C15.4642 19.4689 15.5049 19.4168 15.5623 19.393C15.6196 19.3692 15.6852 19.3773 15.7362 19.4128C15.8685 19.5051 16.0066 19.5855 16.149 19.654C16.5463 19.8451 16.977 19.9436 17.4087 19.9495C17.4084 19.9495 17.409 19.9495 17.4087 19.9495C18.1898 19.9599 18.9751 19.6671 19.5711 19.0711C20.1671 18.4751 20.4599 17.6907 20.4495 16.9096C20.4495 16.9093 20.4495 16.9099 20.4495 16.9096C20.4436 16.4779 20.3451 16.0463 20.154 15.649C20.0855 15.5066 20.0051 15.3685 19.9128 15.2362C19.8773 15.1852 19.8692 15.1196 19.893 15.0623C19.9168 15.0049 19.9689 14.9642 20.03 14.9533C20.1888 14.925 20.3433 14.8842 20.4924 14.832C20.9085 14.6862 21.2827 14.4513 21.5921 14.1501C21.5919 14.1503 21.5923 14.1499 21.5921 14.1501C22.1518 13.6052 22.5 12.8429 22.5 12C22.5 11.1571 22.1524 10.3954 21.5927 9.85047C21.5925 9.85027 21.5929 9.85068 21.5927 9.85047C21.2833 9.54936 20.9085 9.31384 20.4924 9.16804C20.3433 9.11579 20.1888 9.07498 20.03 9.04667C19.9689 9.03578 19.9168 8.99509 19.893 8.93775C19.8692 8.88036 19.8773 8.81477 19.9128 8.76381C20.0051 8.63149 20.0855 8.49339 20.154 8.351C20.3451 7.9537 20.4436 7.52213 20.4495 7.09041C20.4495 7.09012 20.4495 7.09071 20.4495 7.09041ZM18.1569 6.34315C17.8104 5.99673 17.2691 5.95644 16.8803 6.22762C16.2904 6.63904 15.5069 6.74922 14.7962 6.45448C14.0872 6.16051 13.6107 5.52985 13.4844 4.82099C13.4012 4.3543 12.9899 4 12.5 4C12.0101 4 11.5988 4.35429 11.5156 4.82099C11.3893 5.52984 10.9128 6.16051 10.2038 6.45448C9.49308 6.74922 8.70964 6.63904 8.11972 6.22761C7.7309 5.95644 7.18956 5.99673 6.84314 6.34314C6.49673 6.68956 6.45644 7.2309 6.72762 7.61972C7.13904 8.20964 7.24922 8.99308 6.95448 9.70384C6.66051 10.4128 6.02984 10.8893 5.32098 11.0156C4.85429 11.0988 4.5 11.5101 4.5 12C4.5 12.4899 4.85429 12.9012 5.32098 12.9844C6.02984 13.1107 6.66051 13.5872 6.95448 14.2962C7.24922 15.0069 7.13904 15.7904 6.72762 16.3803C6.45644 16.7691 6.49673 17.3104 6.84315 17.6569C7.18957 18.0033 7.7309 18.0436 8.11972 17.7724C8.70963 17.361 9.49307 17.2508 10.2038 17.5455C10.9128 17.8395 11.3893 18.4702 11.5156 19.179C11.5988 19.6457 12.0101 20 12.5 20C12.9899 20 13.4012 19.6457 13.4844 19.179C13.6107 18.4702 14.0872 17.8395 14.7961 17.5455C15.5069 17.2508 16.2904 17.361 16.8803 17.7724C17.2691 18.0436 17.8104 18.0033 18.1569 17.6569C18.5033 17.3104 18.5436 16.7691 18.2724 16.3803C17.861 15.7904 17.7508 15.0069 18.0455 14.2962C18.3395 13.5872 18.9702 13.1107 19.679 12.9844C20.1457 12.9012 20.5 12.4899 20.5 12C20.5 11.5101 20.1457 11.0988 19.679 11.0156C18.9702 10.8893 18.3395 10.4128 18.0455 9.70384C17.7508 8.99307 17.861 8.20963 18.2724 7.61972C18.5436 7.2309 18.5033 6.68957 18.1569 6.34315Z" fill="black"/>
<path fill-rule="evenodd" clip-rule="evenodd" d="M12.5 14C13.6046 14 14.5 13.1046 14.5 12C14.5 10.8954 13.6046 10 12.5 10C11.3954 10 10.5 10.8954 10.5 12C10.5 13.1046 11.3954 14 12.5 14ZM12.5 16C14.7091 16 16.5 14.2091 16.5 12C16.5 9.79086 14.7091 8 12.5 8C10.2909 8 8.5 9.79086 8.5 12C8.5 14.2091 10.2909 16 12.5 16Z" fill="black"/>
</svg>
