<svg width="14" height="14" viewBox="0 0 14 14" fill="none" xmlns="http://www.w3.org/2000/svg">
<path fill-rule="evenodd" clip-rule="evenodd" d="M7.00008 11.6667C9.57741 11.6667 11.6667 9.57741 11.6667 7.00008C11.6667 4.42275 9.57741 2.33341 7.00008 2.33341C4.42275 2.33341 2.33341 4.42275 2.33341 7.00008C2.33341 9.57741 4.42275 11.6667 7.00008 11.6667ZM7.00008 12.8334C10.2217 12.8334 12.8334 10.2217 12.8334 7.00008C12.8334 3.77842 10.2217 1.16675 7.00008 1.16675C3.77842 1.16675 1.16675 3.77842 1.16675 7.00008C1.16675 10.2217 3.77842 12.8334 7.00008 12.8334Z" />
<path fill-rule="evenodd" clip-rule="evenodd" d="M7.00008 4.08325C6.67792 4.08325 6.41675 4.34442 6.41675 4.66659C6.41675 4.98875 6.67792 5.24992 7.00008 5.24992C7.32225 5.24992 7.58341 4.98875 7.58341 4.66659C7.58341 4.34442 7.32225 4.08325 7.00008 4.08325ZM7.00008 6.41659C6.67792 6.41659 6.41675 6.67775 6.41675 6.99992V9.33325C6.41675 9.65542 6.67792 9.91659 7.00008 9.91659C7.32225 9.91659 7.58341 9.65542 7.58341 9.33325V6.99992C7.58341 6.67775 7.32225 6.41659 7.00008 6.41659Z" />
</svg>
