<svg width="245" height="179" viewBox="0 0 245 179" fill="none" xmlns="http://www.w3.org/2000/svg">
<path d="M190.439 139.436C190.439 139.436 117.624 150.701 99.4543 150.883C98.773 150.883 98.137 150.883 97.5919 150.838C83.3287 150.111 81.2392 141.571 81.2392 141.571C81.2392 141.571 73.9712 75.4332 73.6079 70.4365C73.2445 65.3944 75.4703 60.5794 75.4703 60.5794C75.4703 60.5794 78.5591 67.2568 88.3708 70.164C89.5064 70.482 90.7329 70.7999 92.0502 70.9816C104.814 72.8895 189.349 60.1706 189.349 60.1706L193.801 133.849C193.665 138.437 190.439 139.436 190.439 139.436Z" fill="#12FE64" stroke="black" stroke-width="0.572743" stroke-miterlimit="10" stroke-linecap="round" stroke-linejoin="round"/>
<path fill-rule="evenodd" clip-rule="evenodd" d="M151.584 83.6508C148.401 82.1475 145.909 79.3649 144.819 75.9336C144.58 77.009 144.483 78.1302 144.535 79.2794C144.577 80.1762 144.712 81.0424 144.925 81.879C144.925 81.879 144.925 81.879 144.925 81.8877C144.926 81.8964 144.935 81.9134 144.936 81.9221C145.222 83.0432 145.655 84.0966 146.214 85.0656C145.08 84.3061 144.06 83.3843 143.192 82.3334C142.484 90.8898 145.98 99.6029 151.897 105.178C159.665 113.425 153.531 128.302 142.021 128.445C125.764 129.328 121.882 105.504 137.312 101.029L137.301 100.986C141.401 99.446 143.228 96.649 143.406 93.1161C137.621 98.2578 127.855 92.6585 129.477 85.0112C107.435 97.1437 117.459 132.77 143 131.157C154.136 130.647 163.219 122.851 165.847 112.584C168.998 100.609 162.45 88.3012 151.584 83.6508Z" fill="#00D856" stroke="black" stroke-width="0.57" stroke-linejoin="round"/>
<path fill-rule="evenodd" clip-rule="evenodd" d="M154.584 83.6508C151.401 82.1475 148.909 79.3649 147.819 75.9336C147.58 77.009 147.483 78.1302 147.535 79.2794C147.577 80.1762 147.712 81.0424 147.925 81.879C147.925 81.879 147.925 81.879 147.925 81.8877C147.926 81.8964 147.935 81.9134 147.936 81.9221C148.222 83.0432 148.655 84.0966 149.214 85.0656C148.08 84.3061 147.06 83.3843 146.192 82.3334C145.484 90.8898 148.98 99.6029 154.897 105.178C162.665 113.425 156.531 128.302 145.021 128.445C128.764 129.328 124.882 105.504 140.312 101.029L140.301 100.986C144.401 99.446 146.228 96.649 146.406 93.1161C140.621 98.2578 130.855 92.6585 132.477 85.0112C110.435 97.1437 120.459 132.77 146 131.157C157.136 130.647 166.219 122.851 168.847 112.584C171.998 100.609 165.45 88.3012 154.584 83.6508Z" fill="black"/>
<path d="M172.042 94.7396L173.45 109.23C173.586 110.411 174.631 111.274 175.812 111.138L192.346 109.139C192.346 109.139 194.209 109.139 194.799 107.504C195.39 105.914 193.073 83.1564 193.073 83.1564C193.073 83.1564 192.71 81.2032 190.62 81.2032L190.938 86.4724C190.938 86.4724 190.938 86.5178 190.938 86.6087C190.984 88.9253 189.212 90.8786 186.895 91.1057L173.859 92.423C172.768 92.5593 171.905 93.604 172.042 94.7396Z" fill="white" stroke="black" stroke-width="0.572743" stroke-miterlimit="10"/>
<path d="M99.4543 150.889C98.7276 150.889 98.137 150.889 97.5919 150.844C83.3287 150.117 81.2392 141.577 81.2392 141.577C81.2392 141.577 73.9712 75.4392 73.6079 70.4425C73.2445 65.4004 75.4703 60.5854 75.4703 60.5854C75.4703 60.5854 78.5591 67.2628 88.3708 70.17L90.2332 72.1686L99.4543 150.889Z" fill="white" stroke="black" stroke-width="0.572743" stroke-miterlimit="10" stroke-linecap="round" stroke-linejoin="round"/>
<path d="M193.301 124.542C180.583 132.082 165.911 139.214 149.921 145.346C148.331 145.937 146.741 146.573 145.152 147.163C83.011 169.921 25.64 169.376 17.0547 145.937C11.0133 129.402 30.7729 105.963 64.6595 85.5679C67.8392 83.6601 71.1552 81.7977 74.562 79.9353C75.0617 84.6594 75.6977 90.7463 76.4244 97.1965L75.7431 97.6054C74.0169 98.6955 72.3363 99.7857 70.701 100.876C51.9407 113.504 41.5839 126.541 44.9453 135.671C48.125 144.393 63.1605 147.754 84.0557 145.892C100.091 144.483 119.532 140.032 139.837 132.582C160.732 124.951 178.947 115.412 192.211 105.873C208.609 94.0623 217.422 82.1611 214.288 73.6213C212.198 67.8978 205.066 64.491 194.528 63.3554C192.983 63.1737 191.348 63.0828 189.622 62.992L189.44 60.1302L188.032 56.8597C188.032 56.8597 187.124 56.9505 185.534 57.1776L185.625 51.7721C185.625 51.7721 183.671 49.5009 182.218 49.3646C182.218 49.3646 171.907 49.4555 158.461 49.5918C174.587 46.4121 189.486 45.0493 202.159 45.549C223.282 46.3666 238.135 52.3626 242.224 63.4008C248.265 80.1624 227.96 104.01 193.301 124.542Z" fill="white" stroke="black" stroke-width="0.572743" stroke-miterlimit="10" stroke-linecap="round" stroke-linejoin="round"/>
<path d="M185.443 57.2183C183.763 57.4 181.31 57.7179 178.266 58.0813C176.767 58.263 175.132 58.4447 173.36 58.6718C172.861 58.7173 172.361 58.8081 171.816 58.8535C171.316 58.899 170.862 58.9898 170.362 59.0352C166.819 59.4441 162.867 59.8983 158.734 60.398C156.826 60.6251 154.918 60.8522 152.919 61.0793C152.193 61.1702 151.511 61.261 150.784 61.3065C150.058 61.3973 149.376 61.4882 148.649 61.5336C146.151 61.8061 143.653 62.1241 141.109 62.3967C139.428 62.5783 137.748 62.76 136.112 62.9872C133.932 63.2143 131.752 63.4868 129.617 63.714C118.942 64.895 108.903 65.9852 101.635 66.712C95.7754 67.3025 91.7326 67.6205 90.6425 67.575C84.7827 67.3025 81.6484 64.3045 83.2837 60.6251C84.8736 57.082 89.416 54.2203 101.181 53.3572C101.226 53.3572 101.226 53.3572 101.226 53.3572C101.771 53.3118 102.317 53.2663 102.862 53.2663C106.496 53.0846 119.169 52.8121 133.523 52.585C135.476 52.5396 137.475 52.5396 139.474 52.4941C141.654 52.4487 143.88 52.4033 146.06 52.4033C152.556 52.3124 158.915 52.2216 164.639 52.1762C165.729 52.1762 166.774 52.1762 167.773 52.1307C168 52.1307 168.182 52.1307 168.364 52.1307C170.726 52.0853 172.951 52.0853 174.95 52.0399C175.041 52.0399 175.086 52.0399 175.177 52.0399C177.585 51.9945 179.674 51.9945 181.355 51.949C181.491 51.949 181.628 51.949 181.718 51.949C182.127 51.949 182.491 51.949 182.809 51.949C182.99 51.949 183.172 51.949 183.354 51.949C183.672 51.949 183.944 51.949 184.171 51.949C184.262 51.949 184.353 51.949 184.398 51.949C184.489 51.949 184.535 51.949 184.626 51.949C184.762 51.949 184.853 51.949 184.989 51.949C185.034 51.949 185.08 51.949 185.125 51.949C185.216 51.949 185.262 51.949 185.307 51.949C185.307 51.949 185.307 51.949 185.352 51.949C185.443 51.949 185.443 51.949 185.443 51.949V57.2183Z" fill="#777E90" stroke="black" stroke-width="0.572743" stroke-miterlimit="10" stroke-linecap="round" stroke-linejoin="round"/>
<path d="M101.635 66.6665C95.7755 67.257 91.7328 67.575 90.6426 67.5295C84.7828 67.257 81.6485 64.259 83.2838 60.5796C84.8737 57.0365 89.4161 54.1748 101.181 53.3117C101.226 53.3117 101.226 53.3117 101.226 53.3117L101.635 66.6665Z" fill="#E6E8EC" stroke="black" stroke-width="0.572743" stroke-miterlimit="10" stroke-linecap="round" stroke-linejoin="round"/>
<path d="M158.778 60.3593C162.957 59.8596 166.909 59.4054 170.452 58.9966C170.952 58.9511 171.451 58.8603 171.951 58.8149C172.496 58.7694 172.996 58.6786 173.495 58.6332C175.267 58.406 176.902 58.2243 178.401 58.0426C181.399 57.6792 183.807 57.4067 185.442 57.225C187.077 57.0433 187.94 56.907 187.94 56.907L189.348 60.1776C189.348 60.1776 97.9546 74.1683 86.0534 71.9425C74.1522 69.7167 73.8796 62.358 76.4688 58.5877C78.2404 55.9985 80.7387 54.6812 82.4648 53.8636C85.372 52.5009 91.5951 51.2744 98.1362 50.6839C101.271 50.4113 118.123 50.1388 135.975 49.9117C137.837 49.9117 139.745 49.8662 141.607 49.8208C143.379 49.8208 145.151 49.7754 146.922 49.7754C147.876 49.7754 148.83 49.7754 149.738 49.73C153.463 49.6845 157.052 49.6391 160.413 49.6391C162.003 49.6391 163.502 49.5937 164.956 49.5937C165.183 49.5937 165.41 49.5937 165.637 49.5937C168.408 49.5483 170.906 49.5483 173.087 49.5029C178.674 49.4574 182.171 49.4574 182.171 49.4574C183.58 49.5483 185.578 51.8649 185.578 51.8649C185.578 51.8649 185.533 51.8649 185.487 51.8649C185.487 51.8649 185.487 51.8649 185.442 51.8649C185.397 51.8649 185.306 51.8649 185.26 51.8649C185.215 51.8649 185.169 51.8649 185.124 51.8649C185.033 51.8649 184.897 51.8649 184.761 51.8649C184.67 51.8649 184.624 51.8649 184.533 51.8649C184.443 51.8649 184.397 51.8649 184.306 51.8649C184.079 51.8649 183.761 51.8649 183.489 51.8649C183.307 51.8649 183.125 51.8649 182.944 51.8649C182.626 51.8649 182.262 51.8649 181.853 51.8649C181.717 51.8649 181.581 51.8649 181.49 51.8649C179.855 51.8649 177.765 51.9103 175.312 51.9103C175.267 51.9103 175.267 51.9103 175.221 51.9103C173.223 51.9558 171.042 51.9558 168.635 52.0012C168.453 52.0012 168.226 52.0012 168.044 52.0012C167 52.0012 165.955 52.0466 164.865 52.0466C159.187 52.1375 152.827 52.1829 146.377 52.2737C144.197 52.3192 141.971 52.3192 139.79 52.3646C137.792 52.41 135.793 52.41 133.84 52.4554C119.395 52.6826 106.631 52.9097 102.997 53.1368C89.9599 53.8636 85.054 56.8616 83.3733 60.541C81.738 64.2204 84.8723 67.2184 90.7321 67.4909C93.185 67.6272 110.492 65.8102 129.842 63.6298C131.977 63.4027 134.158 63.1302 136.338 62.9031C138.019 62.7214 139.7 62.5397 141.335 62.358C143.879 62.0854 146.377 61.7674 148.875 61.4949C149.557 61.404 150.238 61.3132 150.919 61.2678L158.778 60.3593Z" fill="white" stroke="black" stroke-width="0.572743" stroke-miterlimit="10" stroke-linecap="round" stroke-linejoin="round"/>
<path d="M139.79 31.4211C139.927 34.0558 139.7 36.5995 139.064 39.007C137.065 46.8654 131.341 53.134 123.892 55.269H123.846C122.847 55.5415 118.759 56.6771 117.714 56.8588C117.124 56.9497 116.624 57.0405 116.17 57.0859C114.353 57.3585 113.49 57.4039 113.49 57.4039L113.172 55.4052C104.132 53.0886 97.0461 44.7759 96.183 34.2829C95.4108 25.0163 99.7715 16.6128 106.676 12.2066L106.494 10.9802L111.446 10.1171C112.945 9.61742 115.08 9.48115 116.715 9.34488C128.707 8.34554 138.7 17.8847 139.745 30.8306C139.79 31.0123 139.79 31.2394 139.79 31.4211Z" fill="#FFF34B" stroke="black" stroke-width="0.572743" stroke-miterlimit="10"/>
<path d="M139.062 39.0092C137.064 46.8676 131.34 53.1362 123.89 55.2712H123.845C122.846 55.5437 118.758 56.6793 117.713 56.861C117.122 56.9519 116.623 57.0427 116.168 57.0881C117.94 55.7708 128.478 47.9124 132.567 40.6899L139.062 39.0092Z" fill="#C19700" stroke="black" stroke-width="0.572743" stroke-miterlimit="10"/>
<path d="M113.535 57.4464C110.628 57.6736 107.766 57.3102 105.132 56.3563C101.361 55.0389 98.0453 52.6769 95.4562 49.5426C88.0066 40.0489 89.7781 29.8284 91.05 25.9219C92.3673 21.9246 94.6385 18.4269 97.682 15.7468C100.998 12.8397 105.132 10.9318 109.765 10.5685C112.218 10.3868 114.58 10.6139 116.806 11.2498C125.663 13.6573 132.568 21.9246 133.386 32.2359C133.794 37.0963 132.75 41.775 130.706 45.6815C127.299 52.2226 121.03 56.8559 113.535 57.4464Z" fill="white" stroke="black" stroke-width="0.572743" stroke-miterlimit="10"/>
<path d="M130.704 45.7328L125.798 44.2793C127.842 40.9633 128.887 36.9659 128.524 32.696C127.888 24.7013 122.573 18.2965 115.714 16.3887L116.759 11.3011C125.617 13.7086 132.521 21.9759 133.339 32.2872C133.748 37.1476 132.748 41.7809 130.704 45.7328Z" fill="white" stroke="black" stroke-width="0.572743" stroke-miterlimit="10"/>
<path d="M114.442 52.0468C113.988 52.1376 113.534 52.1831 113.08 52.2285C103.768 53.0007 95.5458 45.4602 94.7282 35.376C93.9106 25.2918 100.815 16.5249 110.173 15.7981C110.536 15.7527 110.854 15.7527 111.217 15.7527C120.12 15.6164 127.752 22.9752 128.569 32.6506C129.296 42.1897 123.118 50.5932 114.442 52.0468Z" fill="black" stroke="black" stroke-width="0.572743" stroke-miterlimit="10"/>
<path d="M125.799 44.2299C123.301 48.3181 119.258 51.2252 114.443 52.0429C105.767 51.8612 98.3628 44.5933 97.5906 35.0996C96.8183 25.6967 102.769 17.4295 111.172 15.7033C112.717 15.6579 114.261 15.885 115.715 16.2939C122.529 18.2017 127.843 24.6065 128.525 32.6012C128.888 36.9165 127.843 40.9593 125.799 44.2299Z" fill="white" stroke="black" stroke-width="0.572743" stroke-miterlimit="10"/>
<path d="M111.354 25.198C111.718 25.4706 112.126 25.7431 112.49 26.0611C112.762 26.2882 112.899 26.2428 113.035 25.9702C113.444 25.2889 113.943 24.6529 114.352 23.9716C114.534 23.699 114.67 23.6536 114.988 23.8353C116.306 24.7892 116.169 24.4258 115.397 25.6068C115.079 26.1065 114.761 26.5607 114.443 27.0604C114.261 27.2875 114.352 27.4238 114.579 27.6055C115.67 28.4686 115.67 28.4686 116.351 27.4238C116.669 26.9696 116.987 26.4699 117.305 26.0156C117.487 25.7431 117.623 25.7431 117.895 25.9248C119.076 26.697 119.076 26.697 118.35 27.7418C118.032 28.196 117.759 28.6957 117.396 29.1045C117.169 29.4225 117.214 29.5588 117.532 29.8313C119.894 31.83 120.076 35.0551 117.85 36.645C117.532 36.8721 117.214 37.0084 116.851 37.0992C116.578 37.1446 116.578 37.2809 116.669 37.508C117.35 39.4613 116.623 41.0965 115.079 42.005C113.762 42.7773 112.126 42.4593 110.673 41.142C109.719 40.3243 109.719 40.3243 109.083 41.1874C108.765 41.6416 108.447 42.0959 108.175 42.5501C108.038 42.7773 107.902 42.7773 107.675 42.5501C106.63 41.6416 106.63 41.6416 107.311 40.6877C107.629 40.2335 107.947 39.7338 108.265 39.2796C108.402 39.0979 108.402 38.9616 108.175 38.7799C107.221 37.7806 107.221 37.7806 106.539 38.7799C106.267 39.1887 105.949 39.5975 105.722 40.0518C105.54 40.3243 105.404 40.3243 105.177 40.0972C104.086 39.007 104.177 39.3704 104.859 38.2802C105.131 37.8714 105.358 37.4626 105.676 37.0992C105.949 36.7812 105.858 36.5995 105.54 36.327C104.859 35.7365 104.268 35.146 103.632 34.5554C103.36 34.3283 103.36 34.1466 103.587 33.9195C103.723 33.7832 103.905 33.6924 103.996 33.5561C104.223 33.2836 104.404 33.2836 104.722 33.4652C105.358 33.7832 105.994 33.6469 106.358 33.0564C107.493 31.3757 108.629 29.6496 109.764 27.878C110.264 27.1513 110.082 26.2882 109.356 25.6068C109.083 25.3343 109.083 25.198 109.265 24.88C109.992 23.8353 109.719 23.9261 110.718 24.6529C110.9 24.88 111.127 25.0163 111.354 25.198ZM109.901 37.2809C110.355 37.6443 110.764 38.0531 111.218 38.4165C111.99 39.0524 112.944 38.9162 113.444 38.1894C113.943 37.4626 113.762 36.4178 113.035 35.7819C112.217 35.0097 111.354 34.3283 110.537 33.6469C110.355 33.4653 110.219 33.4198 110.082 33.6469C109.628 34.3737 109.128 35.0551 108.674 35.7365C108.538 35.9182 108.583 36.0544 108.765 36.1907C109.083 36.5541 109.492 36.9175 109.901 37.2809ZM114.125 30.3764C113.807 30.1038 113.489 29.8767 113.171 29.6042C112.944 29.4225 112.808 29.4225 112.672 29.6496C112.217 30.331 111.763 31.0123 111.309 31.6937C111.173 31.9208 111.173 32.0571 111.4 32.2388C111.99 32.693 112.581 33.1927 113.171 33.6924C113.989 34.3283 115.034 34.2375 115.533 33.5107C116.033 32.7385 115.76 31.6483 114.943 31.0123C114.67 30.7852 114.398 30.6035 114.125 30.3764Z" fill="#FFF34B" stroke="black" stroke-width="0.572743" stroke-miterlimit="10"/>
<path d="M61.9901 104.878L82.2494 103.652L93.2421 115.553L61.9901 104.878Z" fill="white" stroke="black" stroke-width="0.572743" stroke-miterlimit="10" stroke-linecap="round" stroke-linejoin="round"/>
<path d="M82.2502 103.652L93.243 115.553L87.2924 85.6185L82.2502 103.652Z" fill="white" stroke="black" stroke-width="0.572743" stroke-miterlimit="10" stroke-linecap="round" stroke-linejoin="round"/>
<path d="M87.2915 85.6185L67.759 86.2999L61.9901 104.878L82.2494 103.652L87.2915 85.6185Z" fill="black" stroke="black" stroke-width="0.572743" stroke-miterlimit="10" stroke-linecap="round" stroke-linejoin="round"/>
<path d="M48 62L58.0388 100.111L77.5713 98.3395L48 62Z" fill="white" stroke="black" stroke-width="0.572743" stroke-miterlimit="10" stroke-linecap="round" stroke-linejoin="round"/>
<path d="M48 62L83.0676 79.3976L77.5713 98.3396L48 62Z" fill="white" stroke="black" stroke-width="0.572743" stroke-miterlimit="10" stroke-linecap="round" stroke-linejoin="round"/>
<path d="M171.996 58.8536C171.496 58.8991 171.042 58.9899 170.542 59.0353C166.999 59.4442 163.047 59.8984 158.914 60.3981C157.006 60.6252 155.098 60.8523 153.099 61.0794C153.099 61.0794 153.099 61.034 153.145 61.034C152.418 61.1249 151.691 61.2157 150.919 61.3066L150.964 61.352C150.238 61.4428 149.556 61.5337 148.829 61.5791C146.331 61.8516 143.833 62.1696 141.289 62.4422C139.608 62.6239 137.928 62.8056 136.292 63.0327C134.112 63.2598 131.932 63.5324 129.797 63.7595V63.7141C130.16 59.5804 131.523 55.7648 133.794 52.5851C133.794 52.5851 133.794 52.5851 133.794 52.5396C134.43 51.6312 135.202 50.7681 135.974 49.9505C138.2 47.6792 141.016 45.9531 144.287 44.9538C145.831 44.4541 147.876 43.8182 149.465 43.7273L152.781 43.1368L154.326 42.8642L154.598 44.0907C158.687 44.8629 162.502 46.8162 165.682 49.7233C166.045 50.0413 166.409 50.4047 166.727 50.7681C167.181 51.2223 167.59 51.6766 167.999 52.1762C167.999 52.1762 167.999 52.1762 168.044 52.2217C169.634 54.0386 170.997 56.2644 171.996 58.8536C171.95 58.8082 171.95 58.8082 171.996 58.8536Z" fill="#FFF34B"/>
<path d="M171.996 58.8536C171.496 58.8991 171.042 58.9899 170.542 59.0353C166.999 59.4442 163.047 59.8984 158.914 60.3981C157.006 60.6252 155.098 60.8523 153.099 61.0794C153.099 61.0794 153.099 61.034 153.145 61.034C152.418 61.1249 151.691 61.2157 150.919 61.3066L150.964 61.352C150.238 61.4428 149.556 61.5337 148.829 61.5791C146.331 61.8516 143.833 62.1696 141.289 62.4422C139.608 62.6239 137.928 62.8056 136.292 63.0327C134.112 63.2598 131.932 63.5324 129.797 63.7595V63.7141C130.16 59.5804 131.523 55.7648 133.794 52.5851C133.794 52.5851 133.794 52.5851 133.794 52.5396C134.43 51.6312 135.202 50.7681 135.974 49.9505C138.2 47.6792 141.016 45.9531 144.287 44.9538C145.831 44.4541 147.876 43.8182 149.465 43.7273L152.781 43.1368L154.326 42.8642L154.598 44.0907C158.687 44.8629 162.502 46.8162 165.682 49.7233C166.045 50.0413 166.409 50.4047 166.727 50.7681C167.181 51.2223 167.59 51.6766 167.999 52.1762C167.999 52.1762 167.999 52.1762 168.044 52.2217C169.634 54.0386 170.997 56.2644 171.996 58.8536ZM171.996 58.8536C171.95 58.8082 171.95 58.8082 171.996 58.8536Z" stroke="black" stroke-width="0.572743" stroke-miterlimit="10"/>
<path d="M178.445 58.0878C176.946 58.2695 175.311 58.4512 173.54 58.6783C173.04 58.7237 172.54 58.8145 171.995 58.86C171.495 58.9054 171.041 58.9962 170.542 59.0417C166.998 59.4505 163.046 59.9047 158.913 60.4044C157.005 60.6315 155.097 60.8586 153.099 61.0858C153.099 61.0858 153.099 61.0403 153.144 61.0403C152.417 61.1312 151.69 61.222 150.918 61.3129L150.964 61.3583C150.237 61.4492 149.555 61.54 148.829 61.5854C146.33 61.858 143.832 62.176 141.288 62.4485C139.607 62.6302 137.927 62.8119 136.292 63.039V62.9936C136.609 59.1779 137.79 55.5894 139.744 52.5006C139.744 52.5006 139.744 52.4551 139.789 52.4551C140.334 51.5466 140.97 50.6836 141.652 49.8659C142.651 48.7303 143.741 47.6856 144.968 46.7317C146.83 45.3235 148.919 44.1879 151.282 43.4611C151.781 43.3248 152.326 43.1885 152.826 43.0523C153.326 42.916 153.871 42.8252 154.37 42.7797C156.642 42.4618 158.867 42.5072 161.093 42.916C162.229 43.1431 163.319 43.4157 164.409 43.8245C167.68 45.0055 170.678 46.9588 173.222 49.548C173.63 49.9568 173.994 50.3656 174.357 50.8198C174.63 51.1378 174.948 51.5466 175.266 52.0009C175.266 52.0009 175.266 52.0009 175.266 52.0463C176.22 53.409 177.446 55.4986 178.445 58.0878C178.445 58.0878 178.4 58.0878 178.445 58.0878Z" fill="white"/>
<path d="M178.445 58.0878C176.946 58.2695 175.311 58.4512 173.54 58.6783C173.04 58.7237 172.54 58.8145 171.995 58.86C171.495 58.9054 171.041 58.9962 170.542 59.0417C166.998 59.4505 163.046 59.9047 158.913 60.4044C157.005 60.6315 155.097 60.8586 153.099 61.0858C153.099 61.0858 153.099 61.0403 153.144 61.0403C152.417 61.1312 151.69 61.222 150.918 61.3129L150.964 61.3583C150.237 61.4492 149.555 61.54 148.829 61.5854C146.33 61.858 143.832 62.176 141.288 62.4485C139.607 62.6302 137.927 62.8119 136.292 63.039V62.9936C136.609 59.1779 137.79 55.5894 139.744 52.5006C139.744 52.5006 139.744 52.4551 139.789 52.4551C140.334 51.5466 140.97 50.6836 141.652 49.8659C142.651 48.7303 143.741 47.6856 144.968 46.7317C146.83 45.3235 148.919 44.1879 151.282 43.4611C151.781 43.3248 152.326 43.1885 152.826 43.0523C153.326 42.916 153.871 42.8252 154.37 42.7797C156.642 42.4618 158.867 42.5072 161.093 42.916C162.229 43.1431 163.319 43.4157 164.409 43.8245C167.68 45.0055 170.678 46.9588 173.222 49.548C173.63 49.9568 173.994 50.3656 174.357 50.8198C174.63 51.1378 174.948 51.5466 175.266 52.0009C175.266 52.0009 175.266 52.0009 175.266 52.0463C176.22 53.409 177.446 55.4986 178.445 58.0878ZM178.445 58.0878C178.4 58.0878 178.445 58.0878 178.445 58.0878Z" stroke="black" stroke-width="0.572743" stroke-miterlimit="10"/>
<path d="M147.74 51.0898C147.558 51.2261 147.377 51.4078 147.195 51.544C147.059 51.6803 146.922 51.7712 146.786 51.9074L146.559 52.1346C146.468 52.2254 146.423 52.2708 146.332 52.3617C146.241 52.4525 146.15 52.5434 146.059 52.6342C145.878 52.8159 145.696 52.9976 145.514 53.2247C145.378 53.4064 145.196 53.5881 145.06 53.7698L144.469 54.5421C144.333 54.7237 144.197 54.9054 144.061 55.1326C143.924 55.3143 143.833 55.496 143.697 55.6777L143.334 56.3136C143.288 56.4045 143.243 56.4953 143.197 56.6316L142.925 57.2221C142.789 57.4492 142.698 57.6763 142.607 57.9489C142.425 58.4031 142.244 58.8574 142.062 59.357L141.744 60.4018C141.698 60.5835 141.653 60.8106 141.608 61.0377C141.562 61.3103 141.471 61.5374 141.426 61.81C141.38 62.0371 141.335 62.2642 141.29 62.4913C139.609 62.673 137.928 62.8547 136.293 63.0818C136.611 59.2662 137.792 55.6322 139.745 52.5434C141.108 50.3176 142.88 48.3643 144.924 46.8199L147.74 51.0898C147.74 51.0898 147.74 51.0444 147.74 51.0898Z" fill="white"/>
<path d="M147.74 51.0898C147.558 51.2261 147.377 51.4078 147.195 51.544C147.059 51.6803 146.922 51.7712 146.786 51.9074L146.559 52.1346C146.468 52.2254 146.423 52.2708 146.332 52.3617C146.241 52.4525 146.15 52.5434 146.059 52.6342C145.878 52.8159 145.696 52.9976 145.514 53.2247C145.378 53.4064 145.196 53.5881 145.06 53.7698L144.469 54.5421C144.333 54.7237 144.197 54.9054 144.061 55.1326C143.924 55.3143 143.833 55.496 143.697 55.6777L143.334 56.3136C143.288 56.4045 143.243 56.4953 143.197 56.6316L142.925 57.2221C142.789 57.4492 142.698 57.6763 142.607 57.9489C142.425 58.4031 142.244 58.8574 142.062 59.357L141.744 60.4018C141.698 60.5835 141.653 60.8106 141.608 61.0377C141.562 61.3103 141.471 61.5374 141.426 61.81C141.38 62.0371 141.335 62.2642 141.29 62.4913C139.609 62.673 137.928 62.8547 136.293 63.0818C136.611 59.2662 137.792 55.6322 139.745 52.5434C141.108 50.3176 142.88 48.3643 144.924 46.8199L147.74 51.0898ZM147.74 51.0898C147.74 51.0444 147.74 51.0898 147.74 51.0898Z" stroke="black" stroke-width="0.572743" stroke-miterlimit="10"/>
<path d="M173.541 58.6792C173.041 58.7247 172.542 58.8155 171.997 58.8609C171.497 58.9064 171.043 58.9972 170.543 59.0426C167 59.4515 163.048 59.9057 158.914 60.4054C157.007 60.6325 155.099 60.8596 153.1 61.0867C153.1 61.0867 153.1 61.0413 153.145 61.0413C152.419 61.1322 151.692 61.223 150.92 61.3139L150.965 61.3593C150.238 61.4501 149.557 61.541 148.83 61.5864C146.332 61.8589 143.833 62.1769 141.29 62.4495V62.404C141.335 62.1769 141.335 61.9952 141.381 61.7681C141.426 61.4956 141.471 61.223 141.562 60.9959C141.608 60.7688 141.653 60.5871 141.698 60.3599L142.016 59.3152C142.153 58.8155 142.334 58.3613 142.562 57.907C142.652 57.6799 142.789 57.4074 142.88 57.1802L143.152 56.5897C143.197 56.4989 143.243 56.3626 143.288 56.2717L143.652 55.6358C143.788 55.4541 143.879 55.2724 144.015 55.0907C144.151 54.909 144.288 54.6819 144.424 54.5002L145.014 53.728C145.151 53.5463 145.332 53.3646 145.469 53.1829C145.65 53.0012 145.832 52.7741 146.014 52.5924C146.059 52.5469 146.105 52.5015 146.15 52.4561C146.196 52.4107 146.241 52.3652 146.286 52.3198C146.286 52.3198 146.286 52.3198 146.332 52.2744C146.377 52.229 146.468 52.1381 146.513 52.0927L146.741 51.8656C146.877 51.7293 147.013 51.593 147.149 51.5022C147.331 51.3205 147.513 51.1842 147.695 51.0479L147.74 51.0025C148.24 50.5937 148.785 50.2303 149.375 49.9123C149.511 49.8215 149.602 49.7761 149.739 49.7306C149.875 49.6398 150.057 49.5489 150.238 49.4581C150.738 49.231 151.238 49.0038 151.737 48.7767C152.055 48.6404 152.373 48.5496 152.737 48.4133C156.916 47.1414 161.231 47.6411 164.956 49.5489C165.546 49.8669 166.137 50.1849 166.727 50.5937C167.363 51.0025 167.999 51.5022 168.59 52.0019C168.59 52.0019 168.635 52.0019 168.635 52.0473C170.634 53.8188 172.315 56.0446 173.541 58.6792C173.541 58.6338 173.496 58.6338 173.541 58.6792Z" fill="black"/>
<path d="M173.541 58.6792C173.041 58.7247 172.542 58.8155 171.997 58.8609C171.497 58.9064 171.043 58.9972 170.543 59.0426C167 59.4515 163.048 59.9057 158.914 60.4054C157.007 60.6325 155.099 60.8596 153.1 61.0867C153.1 61.0867 153.1 61.0413 153.145 61.0413C152.419 61.1322 151.692 61.223 150.92 61.3139L150.965 61.3593C150.238 61.4501 149.557 61.541 148.83 61.5864C146.332 61.8589 143.833 62.1769 141.29 62.4495V62.404C141.335 62.1769 141.335 61.9952 141.381 61.7681C141.426 61.4956 141.471 61.223 141.562 60.9959C141.608 60.7688 141.653 60.5871 141.698 60.3599L142.016 59.3152C142.153 58.8155 142.334 58.3613 142.562 57.907C142.652 57.6799 142.789 57.4074 142.88 57.1802L143.152 56.5897C143.197 56.4989 143.243 56.3626 143.288 56.2717L143.652 55.6358C143.788 55.4541 143.879 55.2724 144.015 55.0907C144.151 54.909 144.288 54.6819 144.424 54.5002L145.014 53.728C145.151 53.5463 145.332 53.3646 145.469 53.1829C145.65 53.0012 145.832 52.7741 146.014 52.5924C146.059 52.5469 146.105 52.5015 146.15 52.4561C146.196 52.4107 146.241 52.3652 146.286 52.3198C146.286 52.3198 146.286 52.3198 146.332 52.2744C146.377 52.229 146.468 52.1381 146.513 52.0927L146.741 51.8656C146.877 51.7293 147.013 51.593 147.149 51.5022C147.331 51.3205 147.513 51.1842 147.695 51.0479L147.74 51.0025C148.24 50.5937 148.785 50.2303 149.375 49.9123C149.511 49.8215 149.602 49.7761 149.739 49.7306C149.875 49.6398 150.057 49.5489 150.238 49.4581C150.738 49.231 151.238 49.0038 151.737 48.7767C152.055 48.6404 152.373 48.5496 152.737 48.4133C156.916 47.1414 161.231 47.6411 164.956 49.5489C165.546 49.8669 166.137 50.1849 166.727 50.5937C167.363 51.0025 167.999 51.5022 168.59 52.0019C168.59 52.0019 168.635 52.0018 168.635 52.0473C170.634 53.8188 172.315 56.0446 173.541 58.6792ZM173.541 58.6792C173.496 58.6338 173.541 58.6338 173.541 58.6792Z" stroke="black" stroke-width="0.572743" stroke-miterlimit="10"/>
<path d="M170.498 59.0431C166.955 59.452 163.003 59.9062 158.87 60.4059C156.962 60.633 155.054 60.8601 153.055 61.0872C153.055 61.0872 153.055 61.0418 153.101 61.0418C152.374 61.1327 151.647 61.2235 150.875 61.3144L150.92 61.3598C150.193 61.4506 149.512 61.5415 148.785 61.5869C146.287 61.8594 143.789 62.1774 141.245 62.45V62.4045C141.29 62.1774 141.29 61.9957 141.336 61.7686C141.381 61.4961 141.427 61.2235 141.517 60.9964C141.563 60.7693 141.608 60.5876 141.654 60.3604L141.972 59.3157C142.108 58.816 142.29 58.3618 142.517 57.9075C142.608 57.6804 142.744 57.4079 142.835 57.1807L143.107 56.5902C143.153 56.4994 143.198 56.3631 143.244 56.2722L143.607 55.6363C143.743 55.4546 143.834 55.2729 143.97 55.0912C144.107 54.9095 144.243 54.6824 144.379 54.5007L144.97 53.7285C145.106 53.5468 145.288 53.3651 145.424 53.1834C145.606 53.0017 145.787 52.7746 145.969 52.5929C146.014 52.5474 146.06 52.502 146.105 52.4566C146.151 52.4112 146.196 52.3657 146.242 52.3203C146.242 52.3203 146.242 52.3203 146.287 52.2749C146.332 52.2295 146.423 52.1386 146.469 52.0932L146.696 51.8661C146.832 51.7298 146.968 51.5935 147.105 51.5027C147.286 51.321 147.468 51.1847 147.65 51.0484L147.695 51.003C148.195 50.5942 148.74 50.2308 149.33 49.9128C149.467 49.822 149.558 49.7766 149.694 49.7311C149.83 49.6403 150.012 49.5494 150.193 49.4586C150.693 49.2315 151.193 49.0043 151.692 48.7772C154.645 48.2321 157.643 48.5501 160.369 49.5949C161.913 50.1854 163.412 51.003 164.775 52.0478C164.775 52.0478 164.82 52.0478 164.82 52.0932C167.137 53.8193 169.09 56.1814 170.407 58.9523C170.498 58.9977 170.498 58.9977 170.498 59.0431Z" fill="white" stroke="black" stroke-width="0.572743" stroke-miterlimit="10"/>
<path d="M150.875 61.2667C150.557 61.0396 150.239 60.8125 149.921 60.5854C149.694 60.4037 149.512 60.4491 149.33 60.7217C149.103 61.0396 148.921 61.3122 148.83 61.4939C148.83 61.4939 148.83 61.5393 148.785 61.5393C149.512 61.4484 150.239 61.3576 150.92 61.3122C150.92 61.2667 150.92 61.2667 150.875 61.2667ZM153.055 61.0396C155.008 60.8125 156.961 60.5854 158.869 60.3583L158.824 60.3128C158.46 60.0403 158.097 59.8132 157.688 59.5406C156.961 59.0409 156.78 58.1779 157.189 57.2694C157.37 56.906 157.279 56.7697 157.007 56.588C155.962 55.9067 156.235 55.8612 155.553 56.906C155.417 57.1331 155.281 57.3602 155.144 57.5874C154.917 57.9962 154.645 58.405 154.418 58.8138C154.281 59.0864 154.145 59.1318 153.873 58.9501C153.237 58.4959 152.555 58.0416 151.919 57.5874C151.647 57.4057 151.51 57.4057 151.283 57.7236C150.42 59.1318 150.42 58.723 151.556 59.5406C152.01 59.8586 152.51 60.222 153.009 60.4945C153.237 60.6308 153.237 60.7671 153.146 60.9942C153.1 60.9942 153.055 61.0396 153.055 61.0396Z" fill="#FFF34B" stroke="black" stroke-width="0.572743" stroke-miterlimit="10"/>
<path d="M30.3174 118.044C19.5518 118.226 8.60449 106.234 8.60449 106.234C8.60449 106.234 9.33128 122.451 1.60913 129.946C1.60913 129.946 13.4195 130.627 23.3674 141.756C22.5044 126.902 30.3174 118.044 30.3174 118.044Z" fill="#12FE64" stroke="black" stroke-width="0.572743" stroke-miterlimit="10"/>
<path d="M53.9466 115.906C49.4496 115.997 44.9072 111 44.9072 111C44.9072 111 45.2251 117.723 42 120.857C42 120.857 46.9058 121.13 51.0395 125.763C50.6761 119.585 53.9466 115.906 53.9466 115.906Z" fill="#FFF34B" stroke="black" stroke-width="0.572743" stroke-miterlimit="10"/>
<path d="M218.92 48.9139C225.506 48.5051 231.593 40.6467 231.593 40.6467C231.593 40.6467 231.956 50.5492 237.044 54.7737C237.044 54.7737 229.867 55.773 224.37 63.0409C224.143 53.9106 218.92 48.9139 218.92 48.9139Z" fill="#12FE64" stroke="black" stroke-width="0.572743" stroke-miterlimit="10"/>
<path d="M202.475 64.9431C204.792 64.1254 206.2 60.7186 206.2 60.7186C206.2 60.7186 207.336 64.2617 209.562 65.261C209.562 65.261 207.063 66.3512 205.837 69.4855C204.838 66.215 202.475 64.9431 202.475 64.9431Z" fill="#FFF34B" stroke="black" stroke-width="0.572743" stroke-miterlimit="10"/>
<path d="M180.944 105.233C183.227 105.233 185.078 103.383 185.078 101.1C185.078 98.8169 183.227 96.9662 180.944 96.9662C178.661 96.9662 176.811 98.8169 176.811 101.1C176.811 103.383 178.661 105.233 180.944 105.233Z" fill="#DDFD57" stroke="black" stroke-width="0.572743" stroke-miterlimit="10"/>
</svg>
