<svg width="302" height="302" viewBox="0 0 302 302" fill="none" xmlns="http://www.w3.org/2000/svg">
<circle cx="150.65" cy="150.65" r="87.0504" stroke="#E6E8EC"/>
<circle opacity="0.5" cx="150.65" cy="150.65" r="118.6" stroke="#E6E8EC"/>
<circle opacity="0.5" cx="150.65" cy="150.65" r="150.15" stroke="#E6E8EC"/>
<circle cx="202.707" cy="82.0292" r="3.15497" fill="url(#paint0_linear_35_11)"/>
<circle cx="112.79" cy="37.8596" r="2.36623" fill="url(#paint1_linear_35_11)"/>
<circle cx="202.707" cy="257.524" r="2.36623" fill="url(#paint2_linear_35_11)"/>
<circle cx="105.692" cy="224.792" r="4.73246" fill="url(#paint3_linear_35_11)"/>
<path fill-rule="evenodd" clip-rule="evenodd" d="M140.012 158.22C140.257 158.3 140.509 158.354 140.765 158.38C140.765 158.38 139.704 158.778 137.509 158.035C137.509 158.035 135.867 157.366 134.636 157.479C133.207 157.608 132.221 159.466 132.221 159.466C132.503 159.314 132.803 159.195 133.114 159.114C134.088 158.916 133.752 159.082 133.752 159.082C133.752 159.082 131.879 159.866 131.751 160.564C131.721 160.738 132.245 160.247 133.63 160.29C135.331 160.344 136.809 161.331 137.416 161.494C138.661 161.827 140.447 161.903 142.085 160.618C142.085 160.618 143.598 159.67 144.065 157.917C144.186 157.431 144.258 156.934 144.278 156.433C144.285 155.993 144.241 155.553 144.144 155.123C144.144 155.123 143.259 157.172 140.012 158.22Z" fill="white"/>
<path fill-rule="evenodd" clip-rule="evenodd" d="M172.179 177.444C175.478 173.308 177.275 168.174 177.275 162.883C177.275 157.592 175.478 152.458 172.179 148.322L193.314 145.998C193.314 145.998 195.511 152.022 196.09 155.244C196.165 155.657 196.294 156.488 196.294 156.488C196.294 156.488 193.016 164.447 187.983 168.821C181.219 174.699 172.179 177.444 172.179 177.444ZM122.13 177.154L114.029 178.655C111.458 172.145 110.519 165.105 111.293 158.149C112.067 151.193 114.53 144.532 118.469 138.746C118.64 138.495 118.99 137.999 118.99 137.999L127.941 163.207L122.13 177.154Z" fill="url(#paint4_linear_35_11)"/>
<path fill-rule="evenodd" clip-rule="evenodd" d="M151.434 125.455C151.46 125.421 151.483 125.405 151.511 125.371C151.728 125.142 156.757 119.729 150.76 110.576C146.334 103.826 135.065 104.016 130.465 100.503C130.805 103.209 133.457 105.648 133.17 109.356C133.057 110.579 132.828 111.787 132.487 112.966C131.939 115.083 131.432 117.09 132.192 121.036C132.785 124.11 134.186 126.353 136.36 127.703C138.849 129.246 142.295 129.585 145.83 128.623C148.199 127.979 150.294 126.789 151.434 125.455Z" fill="url(#paint5_linear_35_11)"/>
<path fill-rule="evenodd" clip-rule="evenodd" d="M158.937 121.508C160.229 119.279 160.474 116.678 159.68 113.793C158.575 109.762 156.463 107.119 154.76 104.994C154.228 104.321 153.724 103.694 153.321 103.103C151.702 100.731 151.004 97.8498 151.359 95C149.306 96.4752 145.356 99.2656 142.827 102.235C146.477 103.984 149.326 105.892 151.583 109.331C155.424 115.188 155.364 119.923 154.635 122.862C154.43 123.672 155.979 124.389 155.692 125.016C157.003 124.082 158.108 122.888 158.937 121.508Z" fill="url(#paint6_linear_35_11)"/>
<path fill-rule="evenodd" clip-rule="evenodd" d="M186.932 145.846C182.639 145.437 173.945 144.38 173.945 144.38C154.391 143.291 143.294 149.16 134.914 156.838C128.447 163.259 122.689 179.91 122.689 179.91L115.685 179.53C115.685 179.53 117.917 172.886 120.495 168.053C123.451 162.512 124.115 162.965 123.444 162.042C120.318 157.746 118.854 154.37 117.597 147.148C117.597 147.148 119.067 148.302 120.179 147.598C120.179 147.598 117.653 143.213 117.264 138.484C116.574 130.101 120.5 118.658 120.591 118.394C120.554 118.514 120.343 119.498 122.647 120.966C122.812 120.273 122.987 119.596 123.172 118.933C123.984 114.978 126.149 106.345 130.482 100.492C130.482 100.492 132.905 108.954 138.992 112.792C150.84 120.266 158.258 120.306 158.258 120.306C174.996 122.178 182.143 130.389 182.143 130.389C194.156 143.347 205.067 143.226 205.067 143.226C201.147 146.974 186.932 145.846 186.932 145.846ZM120.591 118.394C120.592 118.39 120.594 118.386 120.595 118.382L120.591 118.394Z" fill="url(#paint7_linear_35_11)"/>
<path fill-rule="evenodd" clip-rule="evenodd" d="M205.271 143.226C205.271 143.226 203.568 152.652 194.637 153.751C194.637 153.751 162.255 153.542 159.894 182.96L159.345 191.224L120.497 179.902C120.497 179.902 124.161 167.411 132.166 157.383C132.166 157.383 145.764 138.173 184.514 143.235C184.514 143.235 189.039 144.146 195.389 144.741C200.754 145.243 205.271 143.226 205.271 143.226Z" fill="url(#paint8_linear_35_11)"/>
<path fill-rule="evenodd" clip-rule="evenodd" d="M183.239 138.74C183.239 138.74 174.827 134.364 164.363 134.777C164.363 134.777 170.054 130.33 177.746 131.416L183.239 138.74Z" fill="#722B00"/>
<path fill-rule="evenodd" clip-rule="evenodd" d="M161.97 178.928C161.97 178.928 164.706 180.816 169.051 179.814C169.051 179.814 162.031 183.883 147.237 178.303C147.237 178.303 131.979 171.479 121.246 173.035C114.348 174.035 108.248 179.516 104.554 183.688C100.091 188.73 100.646 186.373 111.855 184.986C114.549 184.652 112.997 185.419 112.997 185.419C112.997 185.419 98.0226 191.691 97.0107 197.27C96.758 198.663 100.955 194.732 112.024 195.081C125.611 195.509 137.433 203.4 142.295 204.701C152.246 207.363 166.52 207.971 179.613 197.702C179.613 197.702 191.697 190.121 195.432 176.113C196.404 172.226 196.977 168.251 197.141 164.248C197.339 159.032 195.752 153.541 195.752 153.541C195.752 153.541 186.922 173.1 161.97 178.928Z" fill="url(#paint9_linear_35_11)"/>
<defs>
<linearGradient id="paint0_linear_35_11" x1="199.552" y1="78.8743" x2="204.482" y2="85.1842" gradientUnits="userSpaceOnUse">
<stop stop-color="#FFE2BC"/>
<stop offset="1" stop-color="#FF965C"/>
</linearGradient>
<linearGradient id="paint1_linear_35_11" x1="110.424" y1="35.4934" x2="114.121" y2="40.2259" gradientUnits="userSpaceOnUse">
<stop stop-color="#E8CDFF"/>
<stop offset="1" stop-color="#FFB8BD"/>
</linearGradient>
<linearGradient id="paint2_linear_35_11" x1="200.341" y1="255.158" x2="204.038" y2="259.891" gradientUnits="userSpaceOnUse">
<stop stop-color="#E8CDFF"/>
<stop offset="1" stop-color="#FFB8BD"/>
</linearGradient>
<linearGradient id="paint3_linear_35_11" x1="100.959" y1="220.059" x2="108.354" y2="229.524" gradientUnits="userSpaceOnUse">
<stop stop-color="#C3DBFF"/>
<stop offset="1" stop-color="#A887EA"/>
</linearGradient>
<linearGradient id="paint4_linear_35_11" x1="151.971" y1="136.71" x2="153.662" y2="178.655" gradientUnits="userSpaceOnUse">
<stop stop-color="#DADB48"/>
<stop offset="0.65625" stop-color="#637621"/>
</linearGradient>
<linearGradient id="paint5_linear_35_11" x1="153.691" y1="117.169" x2="133.14" y2="117.169" gradientUnits="userSpaceOnUse">
<stop stop-color="#EC6F01"/>
<stop offset="1" stop-color="#F4B23D"/>
</linearGradient>
<linearGradient id="paint6_linear_35_11" x1="155.411" y1="118.081" x2="154.197" y2="98.2395" gradientUnits="userSpaceOnUse">
<stop stop-color="#F4B33E"/>
<stop offset="1" stop-color="#FB6F1B"/>
</linearGradient>
<linearGradient id="paint7_linear_35_11" x1="122.613" y1="118.185" x2="194.894" y2="146.733" gradientUnits="userSpaceOnUse">
<stop stop-color="#FB6D1A"/>
<stop offset="1" stop-color="#F3B23E"/>
</linearGradient>
<linearGradient id="paint8_linear_35_11" x1="130.206" y1="175.887" x2="198.842" y2="145.719" gradientUnits="userSpaceOnUse">
<stop stop-color="#F3B63F"/>
<stop offset="1" stop-color="#FB701C"/>
</linearGradient>
<linearGradient id="paint9_linear_35_11" x1="127.775" y1="206.358" x2="187.199" y2="169.307" gradientUnits="userSpaceOnUse">
<stop stop-color="#EC6F00"/>
<stop offset="1" stop-color="#F4B33E"/>
</linearGradient>
</defs>
</svg>
