<svg width="24" height="24" viewBox="0 0 24 24" fill="none" xmlns="http://www.w3.org/2000/svg">
<path fill-rule="evenodd" clip-rule="evenodd" d="M12 18C16.1255 18 19.0592 15.4076 20.7773 13.2486C21.3732 12.4998 21.3732 11.5002 20.7773 10.7514C19.0592 8.59239 16.1255 6 12 6C7.87451 6 4.9408 8.59238 3.22274 10.7514C2.62684 11.5002 2.62684 12.4998 3.22274 13.2486C4.9408 15.4076 7.8745 18 12 18ZM22.3422 14.494C23.5182 13.0163 23.5182 10.9837 22.3422 9.506C20.4739 7.15826 17.0265 4 12 4C6.97347 4 3.52606 7.15826 1.65778 9.506C0.48183 10.9837 0.481829 13.0163 1.65778 14.494C3.52606 16.8417 6.97347 20 12 20C17.0265 20 20.4739 16.8417 22.3422 14.494Z" fill="#777E91"/>
<path fill-rule="evenodd" clip-rule="evenodd" d="M14 12C14 13.1046 13.1046 14 12 14C10.8954 14 10 13.1046 10 12C10 11.9716 10.0006 11.9434 10.0018 11.9153C10.1577 11.9701 10.3253 12 10.5 12C11.3284 12 12 11.3284 12 10.5C12 10.3253 11.9701 10.1577 11.9153 10.0018C11.9434 10.0006 11.9716 10 12 10C13.1046 10 14 10.8954 14 12ZM16 12C16 14.2091 14.2091 16 12 16C9.79086 16 8 14.2091 8 12C8 9.79086 9.79086 8 12 8C14.2091 8 16 9.79086 16 12Z" fill="#777E91"/>
</svg>
