<svg width="61" height="60" viewBox="0 0 61 60" fill="none" xmlns="http://www.w3.org/2000/svg">
<rect x="0.5" width="60" height="60" rx="30" fill="#F9F9F9"/>
<rect opacity="0.01" x="14.5" y="14" width="32" height="32" fill="#EC7D43"/>
<path fill-rule="evenodd" clip-rule="evenodd" d="M37.0211 20.6627L34.6122 18H26.7143L24.3054 20.6627H20.1327L19.9365 20.6707C18.5794 20.7719 17.5 21.9275 17.5 23.3255V39.3019L17.5079 39.5003C17.6079 40.8729 18.7505 41.9646 20.1327 41.9646H35.689L37.0053 40.6332L35.8088 39.3019H20.1327V23.3255H25.4637L27.8726 20.6627H33.4538L35.8628 23.3254H41.1938V36.3968L43.8265 33.7327V23.3254L43.8186 23.1271C43.7185 21.7544 42.576 20.6627 41.1938 20.6627H37.0211ZM46.4987 36.679L45.1034 35.2678V35.2664L41.1939 39.2207L37.2844 35.2678L35.8878 36.679L39.7973 40.6332L35.8891 44.5874L37.2844 46L41.1939 42.0458L45.1034 45.9986L46.5 44.5874L42.5905 40.6332L46.4987 36.679ZM30.6632 24.6568C34.2963 24.6568 37.2449 27.6391 37.2449 31.3136C37.2449 34.9882 34.2963 37.9705 30.6632 37.9705C27.0301 37.9705 24.0816 34.9882 24.0816 31.3136C24.0816 27.6391 27.0302 24.6568 30.6632 24.6568ZM26.7143 31.3136C26.7143 29.1169 28.4913 27.3195 30.6632 27.3195C32.8352 27.3195 34.6122 29.1169 34.6122 31.3136C34.6122 33.5104 32.8352 35.3077 30.6632 35.3077C28.4913 35.3077 26.7143 33.5104 26.7143 31.3136Z" fill="#EC7D43"/>
</svg>
